STARTFONT 2.1
FONTBOUNDINGBOX 24 24 0 0
STARTPROPERTIES 2
FONT_ASCENT 24
FONT_DESCENT 0
ENDPROPERTIES
CHARS 7449
STARTCHAR 0
ENCODING 0
SWIDTH 520 0
DWIDTH 24 0
BBX 24 24 0 0
BITMAP
000000
000000
000000
000000
000000
000000
000000
000000
000000
000000
000000
000000
000000
000000
000000
000000
000000
000000
000000
000000
000000
000000
000000
000000
ENDCHAR
STARTCHAR 164
ENCODING 164
SWIDTH 520 0
DWIDTH 24 0
BBX 24 24 0 0
BITMAP
000000
200004
107e08
098190
060060
080010
080010
100008
100008
200004
200004
200004
200004
200004
200004
100008
100008
080010
080010
060060
098190
107e08
200004
000000
ENDCHAR
STARTCHAR 167
ENCODING 167
SWIDTH 520 0
DWIDTH 24 0
BBX 24 24 0 0
BITMAP
000000
003c00
004200
008300
008300
004000
004000
003000
007800
008c00
008600
008300
00c100
006100
003100
001e00
000600
000200
00c100
00c100
008200
004200
003c00
000000
ENDCHAR
STARTCHAR 168
ENCODING 168
SWIDTH 520 0
DWIDTH 24 0
BBX 24 24 0 0
BITMAP
000000
000000
000000
000000
0300c0
0781e0
0781e0
0300c0
000000
000000
000000
000000
000000
000000
000000
000000
000000
000000
000000
000000
000000
000000
000000
000000
ENDCHAR
STARTCHAR 176
ENCODING 176
SWIDTH 520 0
DWIDTH 24 0
BBX 24 24 0 0
BITMAP
000000
000000
070000
088000
104000
104000
104000
088000
070000
000000
000000
000000
000000
000000
000000
000000
000000
000000
000000
000000
000000
000000
000000
000000
ENDCHAR
STARTCHAR 177
ENCODING 177
SWIDTH 520 0
DWIDTH 24 0
BBX 24 24 0 0
BITMAP
000000
000000
000000
001000
001000
001000
001000
001000
001000
001000
0ffff0
001000
001000
001000
001000
001000
001000
000000
000000
0ffff0
000000
000000
000000
000000
ENDCHAR
STARTCHAR 215
ENCODING 215
SWIDTH 520 0
DWIDTH 24 0
BBX 24 24 0 0
BITMAP
000000
000000
000000
000000
080010
040020
020040
010080
008100
004200
002400
001800
001800
002400
004200
008100
010080
020040
040020
080010
000000
000000
000000
000000
ENDCHAR
STARTCHAR 224
ENCODING 224
SWIDTH 520 0
DWIDTH 24 0
BBX 24 24 0 0
BITMAP
000000
000000
000000
000000
002000
001000
000800
000000
007d00
008300
010100
010100
010100
010100
010100
010100
010100
008300
007d00
000000
000000
000000
000000
000000
ENDCHAR
STARTCHAR 225
ENCODING 225
SWIDTH 520 0
DWIDTH 24 0
BBX 24 24 0 0
BITMAP
000000
000000
000000
000000
000800
001000
002000
000000
007d00
008300
010100
010100
010100
010100
010100
010100
010100
008300
007d00
000000
000000
000000
000000
000000
ENDCHAR
STARTCHAR 232
ENCODING 232
SWIDTH 520 0
DWIDTH 24 0
BBX 24 24 0 0
BITMAP
000000
000000
000000
000000
002000
001000
000800
000000
003e00
004100
008080
008080
00ff80
008000
008000
008080
008080
004100
003e00
000000
000000
000000
000000
000000
ENDCHAR
STARTCHAR 233
ENCODING 233
SWIDTH 520 0
DWIDTH 24 0
BBX 24 24 0 0
BITMAP
000000
000000
000000
000000
000400
000800
001000
000000
003e00
004100
008080
008080
00ff80
008000
008000
008080
008080
004100
003e00
000000
000000
000000
000000
000000
ENDCHAR
STARTCHAR 234
ENCODING 234
SWIDTH 520 0
DWIDTH 24 0
BBX 24 24 0 0
BITMAP
000000
000000
000000
000000
000800
001400
002200
000000
003e00
004100
008080
008080
00ff80
008000
008000
008080
008080
004100
003e00
000000
000000
000000
000000
000000
ENDCHAR
STARTCHAR 236
ENCODING 236
SWIDTH 520 0
DWIDTH 24 0
BBX 24 24 0 0
BITMAP
000000
000000
000000
000000
006000
003000
001800
000000
001000
001000
001000
001000
001000
001000
001000
001000
001000
001000
001000
000000
000000
000000
000000
000000
ENDCHAR
STARTCHAR 237
ENCODING 237
SWIDTH 520 0
DWIDTH 24 0
BBX 24 24 0 0
BITMAP
000000
000000
000000
000000
000c00
001800
003000
000000
001000
001000
001000
001000
001000
001000
001000
001000
001000
001000
001000
000000
000000
000000
000000
000000
ENDCHAR
STARTCHAR 242
ENCODING 242
SWIDTH 520 0
DWIDTH 24 0
BBX 24 24 0 0
BITMAP
000000
000000
000000
000000
002000
001000
000800
000000
007c00
008200
010100
010100
010100
010100
010100
010100
010100
008200
007c00
000000
000000
000000
000000
000000
ENDCHAR
STARTCHAR 243
ENCODING 243
SWIDTH 520 0
DWIDTH 24 0
BBX 24 24 0 0
BITMAP
000000
000000
000000
000000
000400
000800
001000
000000
007c00
008200
010100
010100
010100
010100
010100
010100
010100
008200
007c00
000000
000000
000000
000000
000000
ENDCHAR
STARTCHAR 247
ENCODING 247
SWIDTH 520 0
DWIDTH 24 0
BBX 24 24 0 0
BITMAP
000000
000000
000000
000000
000000
001000
003800
001000
000000
000000
000000
0ffff0
000000
000000
000000
001000
003800
001000
000000
000000
000000
000000
000000
000000
ENDCHAR
STARTCHAR 249
ENCODING 249
SWIDTH 520 0
DWIDTH 24 0
BBX 24 24 0 0
BITMAP
000000
000000
000000
000000
002000
001000
000800
000000
008100
008100
008100
008100
008100
008100
008100
008100
008300
008d00
007100
000000
000000
000000
000000
000000
ENDCHAR
STARTCHAR 250
ENCODING 250
SWIDTH 520 0
DWIDTH 24 0
BBX 24 24 0 0
BITMAP
000000
000000
000000
000000
000400
000800
001000
000000
008100
008100
008100
008100
008100
008100
008100
008100
008300
008d00
007100
000000
000000
000000
000000
000000
ENDCHAR
STARTCHAR 252
ENCODING 252
SWIDTH 520 0
DWIDTH 24 0
BBX 24 24 0 0
BITMAP
000000
000000
000000
000000
000000
000000
006600
006600
000000
008100
008100
008100
008100
008100
008100
008100
008300
008d00
007100
000000
000000
000000
000000
000000
ENDCHAR
STARTCHAR 257
ENCODING 257
SWIDTH 520 0
DWIDTH 24 0
BBX 24 24 0 0
BITMAP
000000
000000
000000
000000
000000
01ff00
000000
000000
007d00
008300
010100
010100
010100
010100
010100
010100
010100
008300
007d00
000000
000000
000000
000000
000000
ENDCHAR
STARTCHAR 275
ENCODING 275
SWIDTH 520 0
DWIDTH 24 0
BBX 24 24 0 0
BITMAP
000000
000000
000000
000000
000000
00ff00
000000
000000
003e00
004100
008080
008080
00ff80
008000
008000
008080
008080
004100
003e00
000000
000000
000000
000000
000000
ENDCHAR
STARTCHAR 283
ENCODING 283
SWIDTH 520 0
DWIDTH 24 0
BBX 24 24 0 0
BITMAP
000000
000000
000000
000000
002200
001400
000800
000000
003e00
004100
008080
008080
00ff80
008000
008000
008080
008080
004100
003e00
000000
000000
000000
000000
000000
ENDCHAR
STARTCHAR 299
ENCODING 299
SWIDTH 520 0
DWIDTH 24 0
BBX 24 24 0 0
BITMAP
000000
000000
000000
000000
000000
003800
000000
000000
001000
001000
001000
001000
001000
001000
001000
001000
001000
001000
001000
000000
000000
000000
000000
000000
ENDCHAR
STARTCHAR 333
ENCODING 333
SWIDTH 520 0
DWIDTH 24 0
BBX 24 24 0 0
BITMAP
000000
000000
000000
000000
000000
01ff00
000000
000000
007c00
008200
010100
010100
010100
010100
010100
010100
010100
008200
007c00
000000
000000
000000
000000
000000
ENDCHAR
STARTCHAR 363
ENCODING 363
SWIDTH 520 0
DWIDTH 24 0
BBX 24 24 0 0
BITMAP
000000
000000
000000
000000
000000
00ff00
000000
000000
008100
008100
008100
008100
008100
008100
008100
008100
008300
008d00
007100
000000
000000
000000
000000
000000
ENDCHAR
STARTCHAR 462
ENCODING 462
SWIDTH 520 0
DWIDTH 24 0
BBX 24 24 0 0
BITMAP
000000
000000
000000
000000
004400
002800
001000
000000
007d00
008300
010100
010100
010100
010100
010100
010100
010100
008300
007d00
000000
000000
000000
000000
000000
ENDCHAR
STARTCHAR 464
ENCODING 464
SWIDTH 520 0
DWIDTH 24 0
BBX 24 24 0 0
BITMAP
000000
000000
000000
000000
004400
002800
001000
000000
001000
001000
001000
001000
001000
001000
001000
001000
001000
001000
001000
000000
000000
000000
000000
000000
ENDCHAR
STARTCHAR 466
ENCODING 466
SWIDTH 520 0
DWIDTH 24 0
BBX 24 24 0 0
BITMAP
000000
000000
000000
000000
004400
002800
001000
000000
007c00
008200
010100
010100
010100
010100
010100
010100
010100
008200
007c00
000000
000000
000000
000000
000000
ENDCHAR
STARTCHAR 468
ENCODING 468
SWIDTH 520 0
DWIDTH 24 0
BBX 24 24 0 0
BITMAP
000000
000000
000000
000000
004200
002400
001800
000000
008100
008100
008100
008100
008100
008100
008100
008100
008300
008d00
007100
000000
000000
000000
000000
000000
ENDCHAR
STARTCHAR 470
ENCODING 470
SWIDTH 520 0
DWIDTH 24 0
BBX 24 24 0 0
BITMAP
000000
000000
000000
000000
00ff00
000000
006600
006600
000000
008100
008100
008100
008100
008100
008100
008100
008300
008d00
007100
000000
000000
000000
000000
000000
ENDCHAR
STARTCHAR 472
ENCODING 472
SWIDTH 520 0
DWIDTH 24 0
BBX 24 24 0 0
BITMAP
000000
000000
000400
000800
001000
000000
006600
006600
000000
008100
008100
008100
008100
008100
008100
008100
008300
008d00
007100
000000
000000
000000
000000
000000
ENDCHAR
STARTCHAR 474
ENCODING 474
SWIDTH 520 0
DWIDTH 24 0
BBX 24 24 0 0
BITMAP
000000
000000
004200
002400
001800
000000
006600
006600
000000
008100
008100
008100
008100
008100
008100
008100
008300
008d00
007100
000000
000000
000000
000000
000000
ENDCHAR
STARTCHAR 476
ENCODING 476
SWIDTH 520 0
DWIDTH 24 0
BBX 24 24 0 0
BITMAP
000000
000000
002000
001000
000800
000000
006600
006600
000000
008100
008100
008100
008100
008100
008100
008100
008300
008d00
007100
000000
000000
000000
000000
000000
ENDCHAR
STARTCHAR 711
ENCODING 711
SWIDTH 520 0
DWIDTH 24 0
BBX 24 24 0 0
BITMAP
000000
020080
020080
010100
010100
008200
008200
004400
004400
002800
002800
001000
000000
000000
000000
000000
000000
000000
000000
000000
000000
000000
000000
000000
ENDCHAR
STARTCHAR 713
ENCODING 713
SWIDTH 520 0
DWIDTH 24 0
BBX 24 24 0 0
BITMAP
000000
000000
000000
000000
000000
000000
00ff00
000000
000000
000000
000000
000000
000000
000000
000000
000000
000000
000000
000000
000000
000000
000000
000000
000000
ENDCHAR
STARTCHAR 913
ENCODING 913
SWIDTH 520 0
DWIDTH 24 0
BBX 24 24 0 0
BITMAP
000000
001000
003000
003800
005800
004c00
004c00
008600
008600
008600
010300
01ff00
010300
020180
020180
020180
0400c0
0400c0
1f03f0
000000
000000
000000
000000
000000
ENDCHAR
STARTCHAR 914
ENCODING 914
SWIDTH 520 0
DWIDTH 24 0
BBX 24 24 0 0
BITMAP
000000
07fe00
018300
018180
018180
018180
018180
018180
018300
01fe00
018300
018180
0181c0
0180c0
0180c0
0180c0
0181c0
018380
07ff00
000000
000000
000000
000000
000000
ENDCHAR
STARTCHAR 915
ENCODING 915
SWIDTH 520 0
DWIDTH 24 0
BBX 24 24 0 0
BITMAP
000000
07ffe0
018060
018020
018020
018000
018000
018000
018000
018000
018000
018000
018000
018000
018000
018000
018000
018000
07e000
000000
000000
000000
000000
000000
ENDCHAR
STARTCHAR 916
ENCODING 916
SWIDTH 520 0
DWIDTH 24 0
BBX 24 24 0 0
BITMAP
000000
001800
002c00
002c00
004600
004600
004600
008300
008300
010180
010180
010180
0200c0
0200c0
040060
040060
040060
080030
0ffff0
000000
000000
000000
000000
000000
ENDCHAR
STARTCHAR 917
ENCODING 917
SWIDTH 520 0
DWIDTH 24 0
BBX 24 24 0 0
BITMAP
000000
07ffe0
018060
018020
018020
018000
018100
018100
018300
01ff00
018300
018100
018100
018000
018000
018020
018020
018060
07ffe0
000000
000000
000000
000000
000000
ENDCHAR
STARTCHAR 918
ENCODING 918
SWIDTH 520 0
DWIDTH 24 0
BBX 24 24 0 0
BITMAP
000000
03ffc0
0300c0
020180
020300
000600
000600
000c00
001800
001800
003000
006000
006000
00c000
018000
018020
030020
060060
07ffe0
000000
000000
000000
000000
000000
ENDCHAR
STARTCHAR 919
ENCODING 919
SWIDTH 520 0
DWIDTH 24 0
BBX 24 24 0 0
BITMAP
000000
0fc3f0
0300c0
0300c0
0300c0
0300c0
0300c0
0300c0
0300c0
03ffc0
0300c0
0300c0
0300c0
0300c0
0300c0
0300c0
0300c0
0300c0
0fc3f0
000000
000000
000000
000000
000000
ENDCHAR
STARTCHAR 920
ENCODING 920
SWIDTH 520 0
DWIDTH 24 0
BBX 24 24 0 0
BITMAP
000000
003c00
00c300
0300c0
060060
060060
0c0030
0c8130
0c8130
0cff30
0cff30
0c8130
0c8130
0c0030
060060
060060
0300c0
00c300
003c00
000000
000000
000000
000000
000000
ENDCHAR
STARTCHAR 921
ENCODING 921
SWIDTH 520 0
DWIDTH 24 0
BBX 24 24 0 0
BITMAP
000000
007e00
001800
001800
001800
001800
001800
001800
001800
001800
001800
001800
001800
001800
001800
001800
001800
001800
007e00
000000
000000
000000
000000
000000
ENDCHAR
STARTCHAR 922
ENCODING 922
SWIDTH 520 0
DWIDTH 24 0
BBX 24 24 0 0
BITMAP
000000
0fc3f0
030080
030100
030200
030400
030800
031000
033800
034c00
038c00
030600
030300
030300
030180
0300c0
0300c0
030060
0fc1f8
000000
000000
000000
000000
000000
ENDCHAR
STARTCHAR 923
ENCODING 923
SWIDTH 520 0
DWIDTH 24 0
BBX 24 24 0 0
BITMAP
000000
003000
003000
003800
005800
004c00
004c00
008600
008600
008600
010300
010300
010300
020180
020180
020180
0400c0
0400c0
1f03f0
000000
000000
000000
000000
000000
ENDCHAR
STARTCHAR 924
ENCODING 924
SWIDTH 520 0
DWIDTH 24 0
BBX 24 24 0 0
BITMAP
000000
3e007c
0e00e0
0b00e0
0b00e0
0b0160
098160
098160
098260
08c260
08c260
08c460
086460
086460
082860
083860
083060
081060
3e01f8
000000
000000
000000
000000
000000
ENDCHAR
STARTCHAR 925
ENCODING 925
SWIDTH 520 0
DWIDTH 24 0
BBX 24 24 0 0
BITMAP
000000
0f01f0
038040
038040
02c040
026040
026040
023040
021840
020c40
020c40
020640
020640
020340
0201c0
0201c0
0200c0
0200c0
0f8040
000000
000000
000000
000000
000000
ENDCHAR
STARTCHAR 926
ENCODING 926
SWIDTH 520 0
DWIDTH 24 0
BBX 24 24 0 0
BITMAP
000000
0ffff0
0ffff0
080010
080010
000000
000000
000000
010080
01ff80
01ff80
010080
000000
000000
000000
080010
080010
0ffff0
0ffff0
000000
000000
000000
000000
000000
ENDCHAR
STARTCHAR 927
ENCODING 927
SWIDTH 520 0
DWIDTH 24 0
BBX 24 24 0 0
BITMAP
000000
003c00
00c300
0300c0
060060
060060
0c0030
0c0030
0c0030
0c0030
0c0030
0c0030
0c0030
0c0030
060060
060060
0300c0
00c300
003c00
000000
000000
000000
000000
000000
ENDCHAR
STARTCHAR 928
ENCODING 928
SWIDTH 520 0
DWIDTH 24 0
BBX 24 24 0 0
BITMAP
000000
0ffff0
0300c0
0300c0
0300c0
0300c0
0300c0
0300c0
0300c0
0300c0
0300c0
0300c0
0300c0
0300c0
0300c0
0300c0
0300c0
0300c0
0fc3f0
000000
000000
000000
000000
000000
ENDCHAR
STARTCHAR 929
ENCODING 929
SWIDTH 520 0
DWIDTH 24 0
BBX 24 24 0 0
BITMAP
000000
07ff00
018180
0180c0
0180c0
0180c0
0180c0
0180c0
018180
01ff00
018000
018000
018000
018000
018000
018000
018000
018000
07e000
000000
000000
000000
000000
000000
ENDCHAR
STARTCHAR 931
ENCODING 931
SWIDTH 520 0
DWIDTH 24 0
BBX 24 24 0 0
BITMAP
000000
0fffe0
0e0060
070020
038020
01c000
00e000
007000
003800
001c00
001800
003000
006000
00c000
018000
030020
060020
0fffe0
0fffe0
000000
000000
000000
000000
000000
ENDCHAR
STARTCHAR 932
ENCODING 932
SWIDTH 520 0
DWIDTH 24 0
BBX 24 24 0 0
BITMAP
000000
0ffff0
0c1830
081810
081810
081810
001800
001800
001800
001800
001800
001800
001800
001800
001800
001800
001800
001800
007e00
000000
000000
000000
000000
000000
ENDCHAR
STARTCHAR 933
ENCODING 933
SWIDTH 520 0
DWIDTH 24 0
BBX 24 24 0 0
BITMAP
000000
000700
00e980
019980
019800
001800
001800
001800
001800
001800
001800
001800
001800
001800
001800
001800
001800
001800
007e00
000000
000000
000000
000000
000000
ENDCHAR
STARTCHAR 934
ENCODING 934
SWIDTH 520 0
DWIDTH 24 0
BBX 24 24 0 0
BITMAP
000000
007e00
001800
001800
00ff00
0318c0
061860
0c1830
0c1830
0c1830
0c1830
0c1830
0c1830
061860
0318c0
00ff00
001800
001800
007e00
000000
000000
000000
000000
000000
ENDCHAR
STARTCHAR 935
ENCODING 935
SWIDTH 520 0
DWIDTH 24 0
BBX 24 24 0 0
BITMAP
000000
0fc3f0
030080
018100
00c200
006200
006400
003400
001800
001800
002c00
002600
004600
004300
008180
008180
0100c0
020060
1f81f8
000000
000000
000000
000000
000000
ENDCHAR
STARTCHAR 936
ENCODING 936
SWIDTH 520 0
DWIDTH 24 0
BBX 24 24 0 0
BITMAP
000000
007e00
181818
0c1830
0c1830
061860
061860
061860
061860
061860
0318c0
019980
00ff00
001800
001800
001800
001800
001800
007e00
000000
000000
000000
000000
000000
ENDCHAR
STARTCHAR 937
ENCODING 937
SWIDTH 520 0
DWIDTH 24 0
BBX 24 24 0 0
BITMAP
000000
007e00
018180
060060
060060
0c0030
0c0030
0c0030
0c0030
0c0030
0c0030
060060
060060
018180
00e700
002400
042420
07e7e0
07e7e0
000000
000000
000000
000000
000000
ENDCHAR
STARTCHAR 945
ENCODING 945
SWIDTH 520 0
DWIDTH 24 0
BBX 24 24 0 0
BITMAP
000000
000000
000000
000000
000000
000000
000000
003980
006580
00c380
018300
018300
018300
018300
018300
018300
018500
00c940
007180
000000
000000
000000
000000
000000
ENDCHAR
STARTCHAR 946
ENCODING 946
SWIDTH 520 0
DWIDTH 24 0
BBX 24 24 0 0
BITMAP
000000
000000
000000
003800
004600
00c300
018300
018300
018300
018600
01bc00
018600
018300
018180
018180
018180
018180
01c300
01bc00
018000
018000
018000
018000
018000
ENDCHAR
STARTCHAR 947
ENCODING 947
SWIDTH 520 0
DWIDTH 24 0
BBX 24 24 0 0
BITMAP
000000
000000
000000
000000
000000
000000
030180
078180
048300
004300
004200
002600
002c00
001800
001000
001000
001800
001800
001800
000000
000000
000000
000000
000000
ENDCHAR
STARTCHAR 948
ENCODING 948
SWIDTH 520 0
DWIDTH 24 0
BBX 24 24 0 0
BITMAP
000000
000000
007c00
00c600
00c300
006000
003000
003800
00ce00
018300
030180
030180
030180
030180
030180
030180
018300
00c600
003800
000000
000000
000000
000000
000000
ENDCHAR
STARTCHAR 949
ENCODING 949
SWIDTH 520 0
DWIDTH 24 0
BBX 24 24 0 0
BITMAP
000000
000000
000000
000000
000000
000000
000000
003e00
00c180
018180
018000
00c000
007c00
00c000
018000
018000
018040
00c180
003e00
000000
000000
000000
000000
000000
ENDCHAR
STARTCHAR 950
ENCODING 950
SWIDTH 520 0
DWIDTH 24 0
BBX 24 24 0 0
BITMAP
000000
004000
008000
018000
018300
018700
00cc00
007800
006000
00c000
018000
018000
030000
030000
030000
030000
030000
018000
00ff00
007f80
000180
000180
00c300
00fe00
ENDCHAR
STARTCHAR 951
ENCODING 951
SWIDTH 520 0
DWIDTH 24 0
BBX 24 24 0 0
BITMAP
000000
000000
000000
000000
000000
000000
000000
00ce00
01d300
00e300
00c300
00c300
00c300
00c300
00c300
00c300
00c300
00c300
00c300
000300
000300
000300
000300
000300
ENDCHAR
STARTCHAR 952
ENCODING 952
SWIDTH 520 0
DWIDTH 24 0
BBX 24 24 0 0
BITMAP
000000
000000
003c00
006600
00c300
018180
018180
018180
018180
018180
01ff80
018180
018180
018180
018180
018180
00c300
006600
003c00
000000
000000
000000
000000
000000
ENDCHAR
STARTCHAR 953
ENCODING 953
SWIDTH 520 0
DWIDTH 24 0
BBX 24 24 0 0
BITMAP
000000
000000
000000
000000
000000
000000
000800
007800
001800
001800
001800
001800
001800
001800
001800
001800
001800
001900
000e00
000000
000000
000000
000000
000000
ENDCHAR
STARTCHAR 954
ENCODING 954
SWIDTH 520 0
DWIDTH 24 0
BBX 24 24 0 0
BITMAP
000000
000000
000000
000000
000000
000000
002070
01e0b0
006100
006200
006400
007800
007800
006c00
006600
006300
006180
0060c0
0061f0
000000
000000
000000
000000
000000
ENDCHAR
STARTCHAR 955
ENCODING 955
SWIDTH 520 0
DWIDTH 24 0
BBX 24 24 0 0
BITMAP
000000
00c000
012000
011000
001000
001000
001800
000800
003800
002c00
006400
006400
00c600
00c200
018200
018300
030100
030120
0600c0
000000
000000
000000
000000
000000
ENDCHAR
STARTCHAR 956
ENCODING 956
SWIDTH 520 0
DWIDTH 24 0
BBX 24 24 0 0
BITMAP
000000
000000
000000
000000
000000
000000
000000
018180
018180
018180
018180
018180
018180
018180
018180
018180
01c380
01fd90
0139a0
0101c0
010000
018000
01c000
008000
ENDCHAR
STARTCHAR 957
ENCODING 957
SWIDTH 520 0
DWIDTH 24 0
BBX 24 24 0 0
BITMAP
000000
000000
000000
000000
000000
000000
000000
070180
030180
030080
018100
018100
00c200
00c200
006400
006400
003800
003800
001000
000000
000000
000000
000000
000000
ENDCHAR
STARTCHAR 958
ENCODING 958
SWIDTH 520 0
DWIDTH 24 0
BBX 24 24 0 0
BITMAP
001000
006000
00c000
00c000
006600
003e00
006000
00c000
00c000
007e00
008e00
018000
030000
030000
030000
030000
030000
018000
00ff00
007f80
000180
000180
00c300
00fe00
ENDCHAR
STARTCHAR 959
ENCODING 959
SWIDTH 520 0
DWIDTH 24 0
BBX 24 24 0 0
BITMAP
000000
000000
000000
000000
000000
000000
000000
003800
00c600
018300
030180
030180
030180
030180
030180
030180
018300
00c600
003800
000000
000000
000000
000000
000000
ENDCHAR
STARTCHAR 960
ENCODING 960
SWIDTH 520 0
DWIDTH 24 0
BBX 24 24 0 0
BITMAP
000000
000000
000000
000000
000000
000000
000000
01ff80
03ff80
024200
044200
004200
004200
004200
004200
004200
014240
03c3c0
018180
000000
000000
000000
000000
000000
ENDCHAR
STARTCHAR 961
ENCODING 961
SWIDTH 520 0
DWIDTH 24 0
BBX 24 24 0 0
BITMAP
000000
000000
000000
000000
000000
000000
000000
001c00
002300
006180
004180
00c180
00c180
00c180
00c180
00c180
00c100
00e300
00dc00
00c000
00c000
00c000
00c000
00c000
ENDCHAR
STARTCHAR 963
ENCODING 963
SWIDTH 520 0
DWIDTH 24 0
BBX 24 24 0 0
BITMAP
000000
000000
000000
000000
000000
000000
000000
003fe0
00c7e0
018300
030180
030180
030180
030180
030180
030180
018300
00c600
003800
000000
000000
000000
000000
000000
ENDCHAR
STARTCHAR 964
ENCODING 964
SWIDTH 520 0
DWIDTH 24 0
BBX 24 24 0 0
BITMAP
000000
000000
000000
000000
000000
000000
000000
00ff80
01ff80
021800
001800
001800
001800
001800
001800
001800
001800
001900
000e00
000000
000000
000000
000000
000000
ENDCHAR
STARTCHAR 965
ENCODING 965
SWIDTH 520 0
DWIDTH 24 0
BBX 24 24 0 0
BITMAP
000000
000000
000000
000000
000000
000000
000000
030300
048380
018180
018180
018180
018180
018180
018180
018180
018180
00c300
003c00
000000
000000
000000
000000
000000
ENDCHAR
STARTCHAR 966
ENCODING 966
SWIDTH 520 0
DWIDTH 24 0
BBX 24 24 0 0
BITMAP
000000
000000
001000
001000
001000
001000
001000
007c00
019300
031180
0610c0
0610c0
0610c0
0610c0
0610c0
0610c0
031180
019300
007c00
001000
001000
001000
001000
001000
ENDCHAR
STARTCHAR 967
ENCODING 967
SWIDTH 520 0
DWIDTH 24 0
BBX 24 24 0 0
BITMAP
000000
000000
000000
000000
000000
000000
000000
0180c0
024180
004300
002300
002600
001600
001c00
001800
001800
003800
006400
006400
00c200
00c200
018100
030120
0600c0
ENDCHAR
STARTCHAR 968
ENCODING 968
SWIDTH 520 0
DWIDTH 24 0
BBX 24 24 0 0
BITMAP
000000
000000
000000
000800
000800
000800
000800
030980
0589c0
0188c0
0188c0
0188c0
0188c0
0188c0
0188c0
0188c0
0188c0
00c980
003e00
000800
000800
000800
000800
000800
ENDCHAR
STARTCHAR 969
ENCODING 969
SWIDTH 520 0
DWIDTH 24 0
BBX 24 24 0 0
BITMAP
000000
000000
000000
000000
000000
000000
000000
01c380
0300c0
0300c0
060060
060060
061860
061860
061860
061860
061860
0324c0
01c380
000000
000000
000000
000000
000000
ENDCHAR
STARTCHAR 1025
ENCODING 1025
SWIDTH 520 0
DWIDTH 24 0
BBX 24 24 0 0
BITMAP
008100
01c380
008100
000000
07ffe0
018060
018020
018020
018000
018100
018100
018300
01ff00
018300
018100
018100
018000
018020
018020
018060
07ffe0
000000
000000
000000
ENDCHAR
STARTCHAR 1040
ENCODING 1040
SWIDTH 520 0
DWIDTH 24 0
BBX 24 24 0 0
BITMAP
000000
000000
000000
001000
003000
003800
005800
004c00
004c00
008600
008600
008600
010300
01ff00
010300
020180
020180
020180
0400c0
0400c0
1f03f0
000000
000000
000000
ENDCHAR
STARTCHAR 1041
ENCODING 1041
SWIDTH 520 0
DWIDTH 24 0
BBX 24 24 0 0
BITMAP
000000
000000
000000
000000
07ffc0
0180c0
018040
018040
018000
018000
018000
018000
01ff00
018180
0180c0
0180c0
0180c0
0180c0
0180c0
018180
07ff00
000000
000000
000000
ENDCHAR
STARTCHAR 1042
ENCODING 1042
SWIDTH 520 0
DWIDTH 24 0
BBX 24 24 0 0
BITMAP
000000
000000
000000
000000
07fe00
018300
018180
018180
018180
018180
018180
018300
01fe00
018380
0181c0
0180c0
0180c0
0180c0
0181c0
018380
07fe00
000000
000000
000000
ENDCHAR
STARTCHAR 1043
ENCODING 1043
SWIDTH 520 0
DWIDTH 24 0
BBX 24 24 0 0
BITMAP
000000
000000
000000
000000
07fff0
018030
018010
018010
018000
018000
018000
018000
018000
018000
018000
018000
018000
018000
018000
018000
07e000
000000
000000
000000
ENDCHAR
STARTCHAR 1044
ENCODING 1044
SWIDTH 520 0
DWIDTH 24 0
BBX 24 24 0 0
BITMAP
000000
000000
000000
000000
03ffe0
008180
008180
008180
008180
010180
010180
010180
010180
010180
020180
020180
020180
020180
040180
080180
1ffff0
300030
200010
000010
ENDCHAR
STARTCHAR 1045
ENCODING 1045
SWIDTH 520 0
DWIDTH 24 0
BBX 24 24 0 0
BITMAP
000000
000000
000000
000000
07ffe0
018060
018020
018020
018000
018100
018100
018300
01ff00
018300
018100
018100
018000
018020
018020
018060
07ffe0
000000
000000
000000
ENDCHAR
STARTCHAR 1046
ENCODING 1046
SWIDTH 520 0
DWIDTH 24 0
BBX 24 24 0 0
BITMAP
000000
000000
000000
000000
1c7e38
1a1858
021840
011880
011880
009900
009900
005a00
007e00
00db00
019980
019980
0318c0
061860
061860
0c1830
3c7e3c
000000
000000
000000
ENDCHAR
STARTCHAR 1047
ENCODING 1047
SWIDTH 520 0
DWIDTH 24 0
BBX 24 24 0 0
BITMAP
000000
000000
000000
000000
04f800
070c00
060600
040600
040600
000600
000c00
001800
00f000
001800
000c00
000600
080600
080600
0c0600
060c00
03f000
000000
000000
000000
ENDCHAR
STARTCHAR 1048
ENCODING 1048
SWIDTH 520 0
DWIDTH 24 0
BBX 24 24 0 0
BITMAP
000000
000000
000000
000000
0fc3f0
0300c0
0300c0
0301c0
0302c0
0302c0
0304c0
0308c0
0308c0
0310c0
0320c0
0340c0
0340c0
0380c0
0300c0
0300c0
0fc3f0
000000
000000
000000
ENDCHAR
STARTCHAR 1049
ENCODING 1049
SWIDTH 520 0
DWIDTH 24 0
BBX 24 24 0 0
BITMAP
00c300
00c300
004200
003c00
0f81f0
0300c0
0300c0
0301c0
0302c0
0302c0
0304c0
0308c0
0308c0
0310c0
0320c0
0340c0
0340c0
0380c0
0300c0
0300c0
0fc3f0
000000
000000
000000
ENDCHAR
STARTCHAR 1050
ENCODING 1050
SWIDTH 520 0
DWIDTH 24 0
BBX 24 24 0 0
BITMAP
000000
000000
000000
000000
0fc0e0
030160
030200
030400
030800
031000
032000
036000
03e000
033000
031800
030c00
030600
030300
030180
0300c0
0fc0f0
000000
000000
000000
ENDCHAR
STARTCHAR 1051
ENCODING 1051
SWIDTH 520 0
DWIDTH 24 0
BBX 24 24 0 0
BITMAP
000000
000000
000000
000000
07ffe0
010180
010180
010180
010180
010180
010180
010180
010180
010180
010180
010180
010180
010180
190180
1a0180
0c07e0
000000
000000
000000
ENDCHAR
STARTCHAR 1052
ENCODING 1052
SWIDTH 520 0
DWIDTH 24 0
BBX 24 24 0 0
BITMAP
000000
000000
000000
000000
3e007c
0b00e0
0b00e0
0b0160
098160
098160
098260
08c260
08c260
08c460
086460
086460
082860
083860
083060
081060
3e01f8
000000
000000
000000
ENDCHAR
STARTCHAR 1053
ENCODING 1053
SWIDTH 520 0
DWIDTH 24 0
BBX 24 24 0 0
BITMAP
000000
000000
000000
000000
0fc3f0
0300c0
0300c0
0300c0
0300c0
0300c0
0300c0
0300c0
03ffc0
0300c0
0300c0
0300c0
0300c0
0300c0
0300c0
0300c0
0fc3f0
000000
000000
000000
ENDCHAR
STARTCHAR 1054
ENCODING 1054
SWIDTH 520 0
DWIDTH 24 0
BBX 24 24 0 0
BITMAP
000000
000000
000000
000000
003800
00c600
030180
0600c0
040060
0c0060
0c0060
0c0060
0c0060
0c0060
0c0060
0c0060
040040
0600c0
030180
00c600
003800
000000
000000
000000
ENDCHAR
STARTCHAR 1055
ENCODING 1055
SWIDTH 520 0
DWIDTH 24 0
BBX 24 24 0 0
BITMAP
000000
000000
000000
000000
0ffff0
0300c0
0300c0
0300c0
0300c0
0300c0
0300c0
0300c0
0300c0
0300c0
0300c0
0300c0
0300c0
0300c0
0300c0
0300c0
0fc3f0
000000
000000
000000
ENDCHAR
STARTCHAR 1056
ENCODING 1056
SWIDTH 520 0
DWIDTH 24 0
BBX 24 24 0 0
BITMAP
000000
000000
000000
000000
07ff00
018180
0180c0
0180c0
0180c0
0180c0
0180c0
018180
01ff00
018000
018000
018000
018000
018000
018000
018000
07e000
000000
000000
000000
ENDCHAR
STARTCHAR 1057
ENCODING 1057
SWIDTH 520 0
DWIDTH 24 0
BBX 24 24 0 0
BITMAP
000000
000000
000000
000000
003f20
00c0e0
018060
030020
030020
060000
060000
060000
060000
060000
060000
060030
030030
030020
018060
00c0c0
003f00
000000
000000
000000
ENDCHAR
STARTCHAR 1058
ENCODING 1058
SWIDTH 520 0
DWIDTH 24 0
BBX 24 24 0 0
BITMAP
000000
000000
000000
000000
0ffff0
0c1830
081810
081810
001800
001800
001800
001800
001800
001800
001800
001800
001800
001800
001800
001800
007e00
000000
000000
000000
ENDCHAR
STARTCHAR 1059
ENCODING 1059
SWIDTH 520 0
DWIDTH 24 0
BBX 24 24 0 0
BITMAP
000000
000000
000000
000000
0fc1f0
030040
018080
018080
00c100
00c100
006200
006200
003400
003400
001800
000800
001000
001000
062000
064000
038000
000000
000000
000000
ENDCHAR
STARTCHAR 1060
ENCODING 1060
SWIDTH 520 0
DWIDTH 24 0
BBX 24 24 0 0
BITMAP
000000
000000
000000
000000
000000
0f81f0
030040
018080
00c100
006200
006400
003800
001800
001c00
002600
004600
008300
010180
0200c0
040060
1f01f8
000000
000000
000000
ENDCHAR
STARTCHAR 1061
ENCODING 1061
SWIDTH 520 0
DWIDTH 24 0
BBX 24 24 0 0
BITMAP
000000
000000
000000
000000
007e00
001800
001800
00ff00
0318c0
061860
0c1830
0c1830
0c1830
0c1830
0c1830
061860
0318c0
00ff00
001800
001800
007e00
000000
000000
000000
ENDCHAR
STARTCHAR 1062
ENCODING 1062
SWIDTH 520 0
DWIDTH 24 0
BBX 24 24 0 0
BITMAP
000000
000000
000000
0fc3f0
0300c0
0300c0
0300c0
0300c0
0300c0
0300c0
0300c0
0300c0
0300c0
0300c0
0300c0
0300c0
0300c0
0300c0
0300c0
0ffff8
000018
000008
000008
000000
ENDCHAR
STARTCHAR 1063
ENCODING 1063
SWIDTH 520 0
DWIDTH 24 0
BBX 24 24 0 0
BITMAP
000000
000000
000000
000000
07c3e0
018180
018180
018180
018180
018180
018180
018380
008580
007980
000180
000180
000180
000180
000180
000180
0007e0
000000
000000
000000
ENDCHAR
STARTCHAR 1064
ENCODING 1064
SWIDTH 520 0
DWIDTH 24 0
BBX 24 24 0 0
BITMAP
000000
000000
000000
000000
1f3cf8
061860
061860
061860
061860
061860
061860
061860
061860
061860
061860
061860
061860
061860
061860
061860
1ffff8
000000
000000
000000
ENDCHAR
STARTCHAR 1065
ENCODING 1065
SWIDTH 520 0
DWIDTH 24 0
BBX 24 24 0 0
BITMAP
000000
000000
000000
1f3cf8
061860
061860
061860
061860
061860
061860
061860
061860
061860
061860
061860
061860
061860
061860
061860
1ffffc
00000c
000004
000004
000000
ENDCHAR
STARTCHAR 1066
ENCODING 1066
SWIDTH 520 0
DWIDTH 24 0
BBX 24 24 0 0
BITMAP
000000
000000
000000
000000
1ffc00
183000
103000
103000
003000
003000
003000
003000
003fe0
003030
003018
003018
003018
003018
003018
003030
00ffe0
000000
000000
000000
ENDCHAR
STARTCHAR 1067
ENCODING 1067
SWIDTH 520 0
DWIDTH 24 0
BBX 24 24 0 0
BITMAP
000000
000000
000000
000000
3f00fc
0c0030
0c0030
0c0030
0c0030
0c0030
0c0030
0c0030
0ff830
0c0c30
0c0630
0c0630
0c0630
0c0630
0c0630
0c0c30
3ff8fc
000000
000000
000000
ENDCHAR
STARTCHAR 1068
ENCODING 1068
SWIDTH 520 0
DWIDTH 24 0
BBX 24 24 0 0
BITMAP
000000
000000
000000
000000
07f000
018000
018000
018000
018000
018000
018000
018000
01ff00
018180
0180c0
0180c0
0180c0
0180c0
0180c0
018180
07ff00
000000
000000
000000
ENDCHAR
STARTCHAR 1069
ENCODING 1069
SWIDTH 520 0
DWIDTH 24 0
BBX 24 24 0 0
BITMAP
000000
000000
000000
000000
04fc00
070300
060180
0400c0
0400c0
000060
000060
000060
007fe0
000060
000060
000060
0800c0
0800c0
0c0180
070300
01fc00
000000
000000
000000
ENDCHAR
STARTCHAR 1070
ENCODING 1070
SWIDTH 520 0
DWIDTH 24 0
BBX 24 24 0 0
BITMAP
000000
000000
000000
000000
3f0780
0c1860
0c3030
0c3030
0c6018
0c6018
0c6018
0c6018
0fe018
0c6018
0c6018
0c6018
0c6018
0c3030
0c3030
0c1860
3f0780
000000
000000
000000
ENDCHAR
STARTCHAR 1071
ENCODING 1071
SWIDTH 520 0
DWIDTH 24 0
BBX 24 24 0 0
BITMAP
000000
000000
000000
000000
00ffe0
018180
030180
030180
030180
030180
018180
00ff80
001980
003180
003180
006180
00c180
00c180
018180
030180
0fc7e0
000000
000000
000000
ENDCHAR
STARTCHAR 1072
ENCODING 1072
SWIDTH 520 0
DWIDTH 24 0
BBX 24 24 0 0
BITMAP
000000
000000
000000
000000
000000
000000
000000
000000
000000
000000
007800
00c600
00c300
008300
000f00
007300
00c300
018300
018700
019b40
00e380
000000
000000
000000
ENDCHAR
STARTCHAR 1073
ENCODING 1073
SWIDTH 520 0
DWIDTH 24 0
BBX 24 24 0 0
BITMAP
000000
000000
000000
000000
000000
000000
000200
001c00
007000
00c000
018000
018000
01b800
01c600
018300
018300
018300
018300
018300
00c600
003800
000000
000000
000000
ENDCHAR
STARTCHAR 1074
ENCODING 1074
SWIDTH 520 0
DWIDTH 24 0
BBX 24 24 0 0
BITMAP
000000
000000
000000
000000
000000
000000
000000
000000
000000
000000
01fe00
00c700
00c300
00c300
00c700
00fe00
00c300
00c180
00c180
00c380
01ff00
000000
000000
000000
ENDCHAR
STARTCHAR 1075
ENCODING 1075
SWIDTH 520 0
DWIDTH 24 0
BBX 24 24 0 0
BITMAP
000000
000000
000000
000000
000000
000000
000000
000000
000000
000000
01ff80
00c180
00c080
00c000
00c000
00c000
00c000
00c000
00c000
00c000
01e000
000000
000000
000000
ENDCHAR
STARTCHAR 1076
ENCODING 1076
SWIDTH 520 0
DWIDTH 24 0
BBX 24 24 0 0
BITMAP
000000
000000
000000
000000
000000
000000
000000
000000
000000
000000
00ff00
004600
004600
004600
008600
008600
008600
010600
010600
010600
03ffc0
0600c0
040040
000000
ENDCHAR
STARTCHAR 1077
ENCODING 1077
SWIDTH 520 0
DWIDTH 24 0
BBX 24 24 0 0
BITMAP
000000
000000
000000
000000
000000
000000
000000
000000
000000
000000
003e00
006100
00c180
00c180
00ff80
00c000
00c000
00c080
00c080
006100
003e00
000000
000000
000000
ENDCHAR
STARTCHAR 1078
ENCODING 1078
SWIDTH 520 0
DWIDTH 24 0
BBX 24 24 0 0
BITMAP
000000
000000
000000
000000
000000
000000
000000
000000
000000
000000
073ce0
069960
009900
005a00
005a00
003c00
00db00
019980
019980
0318c0
0f3cf0
000000
000000
000000
ENDCHAR
STARTCHAR 1079
ENCODING 1079
SWIDTH 520 0
DWIDTH 24 0
BBX 24 24 0 0
BITMAP
000000
000000
000000
000000
000000
000000
000000
000000
000000
000000
017c00
01c600
018300
010300
000600
003c00
000600
018300
018300
00c600
007c00
000000
000000
000000
ENDCHAR
STARTCHAR 1080
ENCODING 1080
SWIDTH 520 0
DWIDTH 24 0
BBX 24 24 0 0
BITMAP
000000
000000
000000
000000
000000
000000
000000
000000
000000
000000
01e780
00c300
00c700
00cb00
00cb00
00d300
00d300
00e300
00e300
00c300
01e780
000000
000000
000000
ENDCHAR
STARTCHAR 1081
ENCODING 1081
SWIDTH 520 0
DWIDTH 24 0
BBX 24 24 0 0
BITMAP
000000
000000
000000
000000
000000
006600
004200
002400
001800
000000
01e780
00c300
00c700
00cb00
00cb00
00d300
00d300
00e300
00e300
00c300
01e780
000000
000000
000000
ENDCHAR
STARTCHAR 1082
ENCODING 1082
SWIDTH 520 0
DWIDTH 24 0
BBX 24 24 0 0
BITMAP
000000
000000
000000
000000
000000
000000
000000
000000
000000
000000
01e180
00c380
00c400
00c800
00f000
00f000
00d800
00cc00
00c600
00c340
01e180
000000
000000
000000
ENDCHAR
STARTCHAR 1083
ENCODING 1083
SWIDTH 520 0
DWIDTH 24 0
BBX 24 24 0 0
BITMAP
000000
000000
000000
000000
000000
000000
000000
000000
000000
000000
00ff80
002300
002300
002300
002300
002300
002300
002300
01a300
01a300
00c780
000000
000000
000000
ENDCHAR
STARTCHAR 1084
ENCODING 1084
SWIDTH 520 0
DWIDTH 24 0
BBX 24 24 0 0
BITMAP
000000
000000
000000
000000
000000
000000
000000
000000
000000
000000
03c0e0
01c1c0
0161c0
0162c0
0162c0
0162c0
0134c0
0134c0
0118c0
0118c0
0391e0
000000
000000
000000
ENDCHAR
STARTCHAR 1085
ENCODING 1085
SWIDTH 520 0
DWIDTH 24 0
BBX 24 24 0 0
BITMAP
000000
000000
000000
000000
000000
000000
000000
000000
000000
000000
01e780
00c300
00c300
00c300
00c300
00ff00
00c300
00c300
00c300
00c300
01e780
000000
000000
000000
ENDCHAR
STARTCHAR 1086
ENCODING 1086
SWIDTH 520 0
DWIDTH 24 0
BBX 24 24 0 0
BITMAP
000000
000000
000000
000000
000000
000000
000000
000000
000000
000000
003c00
00c300
018180
018180
018180
018180
018180
018180
018180
00c300
003c00
000000
000000
000000
ENDCHAR
STARTCHAR 1087
ENCODING 1087
SWIDTH 520 0
DWIDTH 24 0
BBX 24 24 0 0
BITMAP
000000
000000
000000
000000
000000
000000
000000
000000
000000
000000
01ff80
00c300
00c300
00c300
00c300
00c300
00c300
00c300
00c300
00c300
01e780
000000
000000
000000
ENDCHAR
STARTCHAR 1088
ENCODING 1088
SWIDTH 520 0
DWIDTH 24 0
BBX 24 24 0 0
BITMAP
000000
000000
000000
000000
000000
000000
000000
000000
000000
010000
033800
01c600
018300
018300
018300
018300
018300
018300
018300
01c600
01b800
018000
018000
03c000
ENDCHAR
STARTCHAR 1089
ENCODING 1089
SWIDTH 520 0
DWIDTH 24 0
BBX 24 24 0 0
BITMAP
000000
000000
000000
000000
000000
000000
000000
000000
000000
000000
003e00
006300
00c300
00c000
00c000
00c000
00c000
00c000
00c100
006200
003c00
000000
000000
000000
ENDCHAR
STARTCHAR 1090
ENCODING 1090
SWIDTH 520 0
DWIDTH 24 0
BBX 24 24 0 0
BITMAP
000000
000000
000000
000000
000000
000000
000000
000000
000000
000000
01ff80
019980
011880
001800
001800
001800
001800
001800
001800
001800
003c00
000000
000000
000000
ENDCHAR
STARTCHAR 1091
ENCODING 1091
SWIDTH 520 0
DWIDTH 24 0
BBX 24 24 0 0
BITMAP
000000
000000
000000
000000
000000
000000
000000
000000
000000
000000
03c380
018100
00c100
00c200
006200
006400
003400
003800
001800
001000
001000
032000
032000
01c000
ENDCHAR
STARTCHAR 1092
ENCODING 1092
SWIDTH 520 0
DWIDTH 24 0
BBX 24 24 0 0
BITMAP
000000
000000
000000
000800
003800
001800
001800
001800
001800
001800
01db80
033cc0
0318c0
0318c0
0318c0
0318c0
0318c0
0318c0
0318c0
033cc0
01db80
001800
001800
003c00
ENDCHAR
STARTCHAR 1093
ENCODING 1093
SWIDTH 520 0
DWIDTH 24 0
BBX 24 24 0 0
BITMAP
000000
000000
000000
000000
000000
000000
000000
000000
000000
000000
03c780
010300
008600
004c00
003800
001800
003800
006400
00c200
018100
07c3c0
000000
000000
000000
ENDCHAR
STARTCHAR 1094
ENCODING 1094
SWIDTH 520 0
DWIDTH 24 0
BBX 24 24 0 0
BITMAP
000000
000000
000000
000000
000000
000000
000000
000000
000000
000000
01e780
00c300
00c300
00c300
00c300
00c300
00c300
00c300
00c300
00c300
01ffc0
0000c0
000040
000000
ENDCHAR
STARTCHAR 1095
ENCODING 1095
SWIDTH 520 0
DWIDTH 24 0
BBX 24 24 0 0
BITMAP
000000
000000
000000
000000
000000
000000
000000
000000
000000
000000
01e780
00c300
00c300
00c300
00c300
006700
003b00
000300
000300
000300
000780
000000
000000
000000
ENDCHAR
STARTCHAR 1096
ENCODING 1096
SWIDTH 520 0
DWIDTH 24 0
BBX 24 24 0 0
BITMAP
000000
000000
000000
000000
000000
000000
000000
000000
000000
000000
07bde0
0318c0
0318c0
0318c0
0318c0
0318c0
0318c0
0318c0
0318c0
0318c0
07ffe0
000000
000000
000000
ENDCHAR
STARTCHAR 1097
ENCODING 1097
SWIDTH 520 0
DWIDTH 24 0
BBX 24 24 0 0
BITMAP
000000
000000
000000
000000
000000
000000
000000
000000
000000
000000
07bde0
0318c0
0318c0
0318c0
0318c0
0318c0
0318c0
0318c0
0318c0
0318c0
07fff0
000030
000010
000000
ENDCHAR
STARTCHAR 1098
ENCODING 1098
SWIDTH 520 0
DWIDTH 24 0
BBX 24 24 0 0
BITMAP
000000
000000
000000
000000
000000
000000
000000
000000
000000
000000
03f800
033000
023000
003000
003f00
003180
0030c0
0030c0
0030c0
003180
007f00
000000
000000
000000
ENDCHAR
STARTCHAR 1099
ENCODING 1099
SWIDTH 520 0
DWIDTH 24 0
BBX 24 24 0 0
BITMAP
000000
000000
000000
000000
000000
000000
000000
000000
000000
000000
0783c0
030180
030180
030180
03f180
031980
030d80
030d80
030d80
031980
07f3c0
000000
000000
000000
ENDCHAR
STARTCHAR 1100
ENCODING 1100
SWIDTH 520 0
DWIDTH 24 0
BBX 24 24 0 0
BITMAP
000000
000000
000000
000000
000000
000000
000000
000000
000000
000000
01e000
00c000
00c000
00c000
00fc00
00c600
00c300
00c300
00c300
00c600
01fc00
000000
000000
000000
ENDCHAR
STARTCHAR 1101
ENCODING 1101
SWIDTH 520 0
DWIDTH 24 0
BBX 24 24 0 0
BITMAP
000000
000000
000000
000000
000000
000000
000000
000000
000000
000000
007800
008600
008300
000300
000300
003f00
000300
000300
00c300
00c600
007800
000000
000000
000000
ENDCHAR
STARTCHAR 1102
ENCODING 1102
SWIDTH 520 0
DWIDTH 24 0
BBX 24 24 0 0
BITMAP
000000
000000
000000
000000
000000
000000
000000
000000
000000
000000
03c700
018880
0198c0
0198c0
0198c0
01f8c0
0198c0
0198c0
0198c0
018880
03c700
000000
000000
000000
ENDCHAR
STARTCHAR 1103
ENCODING 1103
SWIDTH 520 0
DWIDTH 24 0
BBX 24 24 0 0
BITMAP
000000
000000
000000
000000
000000
000000
000000
000000
000000
000000
007f80
00c300
00c300
00c300
00c300
007f00
001b00
003300
003300
016300
00c780
000000
000000
000000
ENDCHAR
STARTCHAR 1105
ENCODING 1105
SWIDTH 520 0
DWIDTH 24 0
BBX 24 24 0 0
BITMAP
000000
000000
000000
000000
000000
000000
002200
007700
002200
000000
003e00
006100
00c180
00c180
00ff80
00c000
00c000
00c080
00c080
006100
003e00
000000
000000
000000
ENDCHAR
STARTCHAR 8212
ENCODING 8212
SWIDTH 520 0
DWIDTH 24 0
BBX 24 24 0 0
BITMAP
000000
000000
000000
000000
000000
000000
000000
000000
000000
000000
000000
0ffff0
000000
000000
000000
000000
000000
000000
000000
000000
000000
000000
000000
000000
ENDCHAR
STARTCHAR 8213
ENCODING 8213
SWIDTH 520 0
DWIDTH 24 0
BBX 24 24 0 0
BITMAP
000000
000000
000000
000000
000000
000000
000000
000000
000000
000000
000000
1ffff8
000000
000000
000000
000000
000000
000000
000000
000000
000000
000000
000000
000000
ENDCHAR
STARTCHAR 8214
ENCODING 8214
SWIDTH 520 0
DWIDTH 24 0
BBX 24 24 0 0
BITMAP
000000
000000
000000
004200
004200
004200
004200
004200
004200
004200
004200
004200
004200
004200
004200
004200
004200
004200
004200
004200
004200
000000
000000
000000
ENDCHAR
STARTCHAR 8216
ENCODING 8216
SWIDTH 520 0
DWIDTH 24 0
BBX 24 24 0 0
BITMAP
000000
000000
000008
000010
000020
000060
0000c0
0000e0
0000e0
000040
000000
000000
000000
000000
000000
000000
000000
000000
000000
000000
000000
000000
000000
000000
ENDCHAR
STARTCHAR 8217
ENCODING 8217
SWIDTH 520 0
DWIDTH 24 0
BBX 24 24 0 0
BITMAP
000000
000000
020000
070000
070000
030000
060000
040000
080000
100000
000000
000000
000000
000000
000000
000000
000000
000000
000000
000000
000000
000000
000000
000000
ENDCHAR
STARTCHAR 8220
ENCODING 8220
SWIDTH 520 0
DWIDTH 24 0
BBX 24 24 0 0
BITMAP
000000
000000
000042
000084
000108
000318
000630
000738
000738
000210
000000
000000
000000
000000
000000
000000
000000
000000
000000
000000
000000
000000
000000
000000
ENDCHAR
STARTCHAR 8221
ENCODING 8221
SWIDTH 520 0
DWIDTH 24 0
BBX 24 24 0 0
BITMAP
000000
000000
084000
1ce000
1ce000
0c6000
18c000
108000
210000
420000
000000
000000
000000
000000
000000
000000
000000
000000
000000
000000
000000
000000
000000
000000
ENDCHAR
STARTCHAR 8230
ENCODING 8230
SWIDTH 520 0
DWIDTH 24 0
BBX 24 24 0 0
BITMAP
000000
000000
000000
000000
000000
000000
000000
000000
000000
000000
181818
3c3c3c
3c3c3c
181818
000000
000000
000000
000000
000000
000000
000000
000000
000000
000000
ENDCHAR
STARTCHAR 8240
ENCODING 8240
SWIDTH 520 0
DWIDTH 24 0
BBX 24 24 0 0
BITMAP
000000
000080
1c0100
220200
220400
220400
220800
221000
221000
222000
224000
224000
1c9c38
012244
012244
022244
042244
042244
082244
102244
102244
202244
401c38
000000
ENDCHAR
STARTCHAR 8242
ENCODING 8242
SWIDTH 520 0
DWIDTH 24 0
BBX 24 24 0 0
BITMAP
000000
000000
070000
070000
060000
060000
040000
0c0000
080000
100000
000000
000000
000000
000000
000000
000000
000000
000000
000000
000000
000000
000000
000000
000000
ENDCHAR
STARTCHAR 8243
ENCODING 8243
SWIDTH 520 0
DWIDTH 24 0
BBX 24 24 0 0
BITMAP
000000
000000
041000
0e3800
0c3000
186000
186000
30c000
30c000
618000
410000
000000
000000
000000
000000
000000
000000
000000
000000
000000
000000
000000
000000
000000
ENDCHAR
STARTCHAR 8251
ENCODING 8251
SWIDTH 520 0
DWIDTH 24 0
BBX 24 24 0 0
BITMAP
000000
000000
200004
101808
083c10
041820
020040
010080
008100
004200
082410
1c1838
1c1838
082410
004200
008100
010080
020040
041820
083c10
101808
200004
000000
000000
ENDCHAR
STARTCHAR 8451
ENCODING 8451
SWIDTH 520 0
DWIDTH 24 0
BBX 24 24 0 0
BITMAP
000000
000000
180000
240fc4
243034
18601c
00c00c
00c004
018004
018004
018000
018000
018000
018000
018000
018000
018000
018000
00c004
00c004
006008
003010
000fe0
000000
ENDCHAR
STARTCHAR 8470
ENCODING 8470
SWIDTH 520 0
DWIDTH 24 0
BBX 24 24 0 0
BITMAP
000000
000000
3c0c00
0c1600
0c1600
0e1000
0e10c0
0b1120
0b1330
0b1330
099330
099330
099330
08d330
08d330
08d330
087330
087120
0870c0
683000
683000
3017f8
000000
000000
ENDCHAR
STARTCHAR 8544
ENCODING 8544
SWIDTH 520 0
DWIDTH 24 0
BBX 24 24 0 0
BITMAP
000000
000000
007e00
001800
001800
001800
001800
001800
001800
001800
001800
001800
001800
001800
001800
001800
001800
001800
001800
001800
00ff00
000000
000000
000000
ENDCHAR
STARTCHAR 8545
ENCODING 8545
SWIDTH 520 0
DWIDTH 24 0
BBX 24 24 0 0
BITMAP
000000
000000
07e7e0
018180
018180
018180
018180
018180
018180
018180
018180
018180
018180
018180
018180
018180
018180
018180
018180
018180
0fe7f0
000000
000000
000000
ENDCHAR
STARTCHAR 8546
ENCODING 8546
SWIDTH 520 0
DWIDTH 24 0
BBX 24 24 0 0
BITMAP
000000
000000
1fbdf8
061860
061860
061860
061860
061860
061860
061860
061860
061860
061860
061860
061860
061860
061860
061860
061860
061860
3fbdfc
000000
000000
000000
ENDCHAR
STARTCHAR 8547
ENCODING 8547
SWIDTH 520 0
DWIDTH 24 0
BBX 24 24 0 0
BITMAP
000000
000000
1f7c7c
063010
063010
063010
061820
061820
061820
061820
060c40
060c40
060c40
060c40
060680
060680
060680
060680
060300
060300
1f8300
000000
000000
000000
ENDCHAR
STARTCHAR 8548
ENCODING 8548
SWIDTH 520 0
DWIDTH 24 0
BBX 24 24 0 0
BITMAP
000000
000000
1f80f8
060020
060020
030040
030040
030040
018080
018080
00c100
00c100
00c100
006200
006200
003400
003400
003400
001800
001800
001800
000000
000000
000000
ENDCHAR
STARTCHAR 8549
ENCODING 8549
SWIDTH 520 0
DWIDTH 24 0
BBX 24 24 0 0
BITMAP
000000
000000
3e1ef8
0c0460
0c0460
0c0460
060860
060860
060860
060860
031060
031060
031060
031060
01a060
01a060
01a060
01a060
00c060
00c060
00c1f8
000000
000000
000000
ENDCHAR
STARTCHAR 8550
ENCODING 8550
SWIDTH 520 0
DWIDTH 24 0
BBX 24 24 0 0
BITMAP
000000
000000
7c1f78
180b30
180b30
0c0b30
0c1330
0c1330
0c1330
0c1330
062330
062330
062330
062330
034330
034330
034330
034330
018330
018330
018ff8
000000
000000
000000
ENDCHAR
STARTCHAR 8551
ENCODING 8551
SWIDTH 520 0
DWIDTH 24 0
BBX 24 24 0 0
BITMAP
000000
000000
78fffc
305998
305998
305998
305998
189998
189998
189998
189998
189998
189998
0d1998
0d1998
0d1998
0d1998
0d1998
061998
061998
063ffc
000000
000000
000000
ENDCHAR
STARTCHAR 8552
ENCODING 8552
SWIDTH 520 0
DWIDTH 24 0
BBX 24 24 0 0
BITMAP
000000
000000
0fde7c
030c10
030c10
030620
030620
030340
030340
030180
030180
030180
0301c0
0302c0
0302c0
030260
030460
030460
030830
030830
0fbefc
000000
000000
000000
ENDCHAR
STARTCHAR 8553
ENCODING 8553
SWIDTH 520 0
DWIDTH 24 0
BBX 24 24 0 0
BITMAP
000000
000000
0fc1f0
030040
018080
018080
00c100
006200
006200
003400
001800
001800
001c00
002600
004300
004300
008180
0100c0
0100c0
020060
1f81fc
000000
000000
000000
ENDCHAR
STARTCHAR 8554
ENCODING 8554
SWIDTH 520 0
DWIDTH 24 0
BBX 24 24 0 0
BITMAP
000000
000000
3f7bf0
0c10c0
0c10c0
0620c0
0620c0
0340c0
0340c0
0180c0
0180c0
0180c0
01c0c0
02c0c0
02c0c0
0260c0
0460c0
0460c0
0830c0
0830c0
3efdf0
000000
000000
000000
ENDCHAR
STARTCHAR 8555
ENCODING 8555
SWIDTH 520 0
DWIDTH 24 0
BBX 24 24 0 0
BITMAP
000000
000000
3f7ffc
0c1330
062330
062330
032330
034330
034330
01c330
018330
00c330
01c330
01c330
026330
026330
026330
043330
043330
081b30
3e7ffc
000000
000000
000000
ENDCHAR
STARTCHAR 8592
ENCODING 8592
SWIDTH 520 0
DWIDTH 24 0
BBX 24 24 0 0
BITMAP
000000
000000
000000
000000
000000
000000
000000
000000
008000
030000
1e0000
7ffffe
1e0000
030000
008000
000000
000000
000000
000000
000000
000000
000000
000000
000000
ENDCHAR
STARTCHAR 8593
ENCODING 8593
SWIDTH 520 0
DWIDTH 24 0
BBX 24 24 0 0
BITMAP
000000
000000
001000
001000
003800
003800
007c00
00fe00
001000
001000
001000
001000
001000
001000
001000
001000
001000
001000
001000
001000
001000
001000
000000
000000
ENDCHAR
STARTCHAR 8594
ENCODING 8594
SWIDTH 520 0
DWIDTH 24 0
BBX 24 24 0 0
BITMAP
000000
000000
000000
000000
000000
000000
000000
000000
000100
0000c0
000078
7ffffe
000078
0000c0
000100
000000
000000
000000
000000
000000
000000
000000
000000
000000
ENDCHAR
STARTCHAR 8595
ENCODING 8595
SWIDTH 520 0
DWIDTH 24 0
BBX 24 24 0 0
BITMAP
000000
000000
001000
001000
001000
001000
001000
001000
001000
001000
001000
001000
001000
001000
001000
001000
00fe00
007c00
003800
003800
001000
001000
000000
000000
ENDCHAR
STARTCHAR 8712
ENCODING 8712
SWIDTH 520 0
DWIDTH 24 0
BBX 24 24 0 0
BITMAP
000000
000000
000380
000c00
003000
004000
004000
008000
008000
010000
010000
01ff80
010000
010000
010000
008000
008000
004000
004000
003000
000c00
000380
000000
000000
ENDCHAR
STARTCHAR 8719
ENCODING 8719
SWIDTH 520 0
DWIDTH 24 0
BBX 24 24 0 0
BITMAP
000000
000000
3ffffc
060060
060060
060060
060060
060060
060060
060060
060060
060060
060060
060060
060060
060060
060060
060060
060060
060060
060060
3fc3fc
000000
000000
ENDCHAR
STARTCHAR 8721
ENCODING 8721
SWIDTH 520 0
DWIDTH 24 0
BBX 24 24 0 0
BITMAP
000000
000000
3ffffc
30001c
38000c
1c0004
0e0004
070004
038004
01c000
00e000
007000
002000
004000
008000
010004
020004
040004
08000c
10001c
3ffffc
3ffffc
000000
000000
ENDCHAR
STARTCHAR 8730
ENCODING 8730
SWIDTH 520 0
DWIDTH 24 0
BBX 24 24 0 0
BITMAP
000000
000000
000002
000002
000004
000004
000008
000008
000010
000010
000020
000020
000040
080040
0c0080
160080
230100
018100
00c200
006200
003400
001c00
000800
000000
ENDCHAR
STARTCHAR 8733
ENCODING 8733
SWIDTH 520 0
DWIDTH 24 0
BBX 24 24 0 0
BITMAP
000000
000000
000000
000000
000000
000000
000000
000000
07c0f8
082104
101200
100c00
100c00
101200
082104
07c0f8
000000
000000
000000
000000
000000
000000
000000
000000
ENDCHAR
STARTCHAR 8734
ENCODING 8734
SWIDTH 520 0
DWIDTH 24 0
BBX 24 24 0 0
BITMAP
000000
000000
000000
000000
000000
000000
000000
000000
0f81f0
104208
202404
201804
201804
202404
104208
0f81f0
000000
000000
000000
000000
000000
000000
000000
000000
ENDCHAR
STARTCHAR 8736
ENCODING 8736
SWIDTH 520 0
DWIDTH 24 0
BBX 24 24 0 0
BITMAP
000000
000000
000004
000008
000010
000020
000040
000080
000100
000200
000400
000800
001000
002000
004000
008000
010000
020000
040000
080000
100000
3ffffc
000000
000000
ENDCHAR
STARTCHAR 8741
ENCODING 8741
SWIDTH 520 0
DWIDTH 24 0
BBX 24 24 0 0
BITMAP
000000
000000
000000
002040
002040
002040
004080
004080
004080
008100
008100
008100
010200
010200
010200
020400
020400
020400
040800
040800
040800
000000
000000
000000
ENDCHAR
STARTCHAR 8743
ENCODING 8743
SWIDTH 520 0
DWIDTH 24 0
BBX 24 24 0 0
BITMAP
000000
000000
001000
002800
002800
004400
004400
008200
008200
010100
010100
020080
020080
040040
040040
080020
080020
100010
100010
200008
200008
000000
000000
000000
ENDCHAR
STARTCHAR 8744
ENCODING 8744
SWIDTH 520 0
DWIDTH 24 0
BBX 24 24 0 0
BITMAP
000000
000000
000000
200008
200008
100010
100010
080020
080020
040040
040040
020080
020080
010100
010100
008200
008200
004400
004400
002800
002800
001000
000000
000000
ENDCHAR
STARTCHAR 8745
ENCODING 8745
SWIDTH 520 0
DWIDTH 24 0
BBX 24 24 0 0
BITMAP
000000
000000
007e00
018180
020040
020040
040020
040020
040020
040020
040020
040020
040020
040020
040020
040020
040020
040020
040020
040020
040020
040020
000000
000000
ENDCHAR
STARTCHAR 8746
ENCODING 8746
SWIDTH 520 0
DWIDTH 24 0
BBX 24 24 0 0
BITMAP
000000
000000
040020
040020
040020
040020
040020
040020
040020
040020
040020
040020
040020
040020
040020
040020
040020
040020
020040
020040
018180
007e00
000000
000000
ENDCHAR
STARTCHAR 8747
ENCODING 8747
SWIDTH 520 0
DWIDTH 24 0
BBX 24 24 0 0
BITMAP
000000
000380
0004c0
0008c0
000800
000800
000800
000800
000800
000800
000800
000800
000800
000800
000800
000800
000800
000800
000800
000800
018800
019000
00e000
000000
ENDCHAR
STARTCHAR 8750
ENCODING 8750
SWIDTH 520 0
DWIDTH 24 0
BBX 24 24 0 0
BITMAP
000000
000000
000070
000088
00010c
00010c
000200
000200
003c00
004600
008900
008900
009100
009100
006200
003c00
004000
004000
308000
308000
110000
0e0000
000000
000000
ENDCHAR
STARTCHAR 8756
ENCODING 8756
SWIDTH 520 0
DWIDTH 24 0
BBX 24 24 0 0
BITMAP
000000
000000
000000
000000
000000
001800
003c00
003c00
001800
000000
000000
000000
000000
000000
000000
060060
0f00f0
0f00f0
060060
000000
000000
000000
000000
000000
ENDCHAR
STARTCHAR 8757
ENCODING 8757
SWIDTH 520 0
DWIDTH 24 0
BBX 24 24 0 0
BITMAP
000000
000000
000000
000000
000000
060060
0f00f0
0f00f0
060060
000000
000000
000000
000000
000000
000000
001800
003c00
003c00
001800
000000
000000
000000
000000
000000
ENDCHAR
STARTCHAR 8758
ENCODING 8758
SWIDTH 520 0
DWIDTH 24 0
BBX 24 24 0 0
BITMAP
000000
000000
000000
000000
000000
060000
0f0000
0f0000
060000
000000
000000
000000
000000
000000
000000
060000
0f0000
0f0000
060000
000000
000000
000000
000000
000000
ENDCHAR
STARTCHAR 8759
ENCODING 8759
SWIDTH 520 0
DWIDTH 24 0
BBX 24 24 0 0
BITMAP
000000
000000
000000
000000
060060
0f00f0
0f00f0
060060
000000
000000
000000
000000
000000
000000
000000
000000
060060
0f00f0
0f00f0
060060
000000
000000
000000
000000
ENDCHAR
STARTCHAR 8765
ENCODING 8765
SWIDTH 520 0
DWIDTH 24 0
BBX 24 24 0 0
BITMAP
000000
000000
000000
000000
000000
000000
000000
000000
0e00f0
100308
200404
200804
201004
202004
10c008
0f0070
000000
000000
000000
000000
000000
000000
000000
000000
ENDCHAR
STARTCHAR 8776
ENCODING 8776
SWIDTH 520 0
DWIDTH 24 0
BBX 24 24 0 0
BITMAP
000000
000000
000000
000000
000000
000000
038000
0fe004
303818
400fe0
000380
000000
000000
038000
0fe004
303818
400fe0
000380
000000
000000
000000
000000
000000
000000
ENDCHAR
STARTCHAR 8780
ENCODING 8780
SWIDTH 520 0
DWIDTH 24 0
BBX 24 24 0 0
BITMAP
000000
000000
000000
000000
0e00f0
100308
200404
200804
201004
202004
10c008
0f0070
000000
000000
3ffffc
000000
000000
000000
3ffffc
000000
000000
000000
000000
000000
ENDCHAR
STARTCHAR 8800
ENCODING 8800
SWIDTH 520 0
DWIDTH 24 0
BBX 24 24 0 0
BITMAP
000000
000000
000080
000080
000100
000100
000200
3ffffc
000400
000400
000800
000800
001000
001000
002000
3ffffc
004000
004000
008000
008000
010000
010000
000000
000000
ENDCHAR
STARTCHAR 8801
ENCODING 8801
SWIDTH 520 0
DWIDTH 24 0
BBX 24 24 0 0
BITMAP
000000
000000
000000
000000
000000
000000
000000
1ffff8
000000
000000
000000
1ffff8
000000
000000
000000
1ffff8
000000
000000
000000
000000
000000
000000
000000
000000
ENDCHAR
STARTCHAR 8804
ENCODING 8804
SWIDTH 520 0
DWIDTH 24 0
BBX 24 24 0 0
BITMAP
000000
000000
000000
00000c
000070
000380
000c00
007000
038000
0c0000
300000
0c0000
038000
307000
0c0c00
038380
007070
000c0c
000380
000070
00000c
000000
000000
000000
ENDCHAR
STARTCHAR 8805
ENCODING 8805
SWIDTH 520 0
DWIDTH 24 0
BBX 24 24 0 0
BITMAP
000000
000000
000000
300000
0e0000
01c000
003000
000e00
0001c0
000030
00000c
000030
0001c0
000e0c
003030
01c1c0
0e0e00
303000
01c000
0e0000
300000
000000
000000
000000
ENDCHAR
STARTCHAR 8814
ENCODING 8814
SWIDTH 520 0
DWIDTH 24 0
BBX 24 24 0 0
BITMAP
000000
000000
00080c
000830
0008c0
000b00
000c00
003800
00c800
030800
0c0800
300800
0c0800
030800
00c800
003800
000c00
000b00
0008c0
000830
00080c
000000
000000
000000
ENDCHAR
STARTCHAR 8815
ENCODING 8815
SWIDTH 520 0
DWIDTH 24 0
BBX 24 24 0 0
BITMAP
000000
000000
301000
0c1000
031000
00d000
003000
001c00
001300
0010c0
001030
00100c
001030
0010c0
001300
001c00
003000
00d000
031000
0c1000
301000
000000
000000
000000
ENDCHAR
STARTCHAR 8857
ENCODING 8857
SWIDTH 520 0
DWIDTH 24 0
BBX 24 24 0 0
BITMAP
000000
000000
007e00
018180
060060
080010
080010
100008
100008
200004
201804
203c04
203c04
201804
200004
100008
100008
080010
080010
060060
018180
007e00
000000
000000
ENDCHAR
STARTCHAR 8869
ENCODING 8869
SWIDTH 520 0
DWIDTH 24 0
BBX 24 24 0 0
BITMAP
000000
000000
001000
001000
001000
001000
001000
001000
001000
001000
001000
001000
001000
001000
001000
001000
001000
001000
001000
001000
001000
1ffff8
000000
000000
ENDCHAR
STARTCHAR 8978
ENCODING 8978
SWIDTH 520 0
DWIDTH 24 0
BBX 24 24 0 0
BITMAP
000000
000000
000000
000000
000000
000000
007e00
018180
060060
080010
080010
100008
100008
200004
200004
200004
000000
000000
000000
000000
000000
000000
000000
000000
ENDCHAR
STARTCHAR 9312
ENCODING 9312
SWIDTH 520 0
DWIDTH 24 0
BBX 24 24 0 0
BITMAP
000000
007e00
018180
060060
080810
101808
107808
201804
201804
401802
401802
401802
401802
401802
401802
201804
201804
107e08
100008
080010
060060
018180
007e00
000000
ENDCHAR
STARTCHAR 9313
ENCODING 9313
SWIDTH 520 0
DWIDTH 24 0
BBX 24 24 0 0
BITMAP
000000
007e00
018180
060060
080010
103e08
104308
20c304
20c304
400302
400602
400c02
401802
403002
406102
20c104
20ff04
10ff08
100008
080010
060060
018180
007e00
000000
ENDCHAR
STARTCHAR 9314
ENCODING 9314
SWIDTH 520 0
DWIDTH 24 0
BBX 24 24 0 0
BITMAP
000000
007e00
018180
060060
080010
103c08
104208
20c304
20c304
400302
400602
403802
400602
400302
400302
20c304
20c304
104208
103c08
080010
060060
018180
007e00
000000
ENDCHAR
STARTCHAR 9315
ENCODING 9315
SWIDTH 520 0
DWIDTH 24 0
BBX 24 24 0 0
BITMAP
000000
007e00
018180
060060
080410
100c08
101c08
202c04
202c04
404c02
408c02
408c02
410c02
43ff82
400c02
200c04
200c04
103f08
100008
080010
060060
018180
007e00
000000
ENDCHAR
STARTCHAR 9316
ENCODING 9316
SWIDTH 520 0
DWIDTH 24 0
BBX 24 24 0 0
BITMAP
000000
007e00
018180
060060
080110
107f08
107f08
204004
204004
404002
405c02
406202
404302
400302
400302
20c304
20c304
104208
103c08
080010
060060
018180
007e00
000000
ENDCHAR
STARTCHAR 9317
ENCODING 9317
SWIDTH 520 0
DWIDTH 24 0
BBX 24 24 0 0
BITMAP
000000
007e00
018180
060060
080010
103c08
104208
20c304
20c304
40c002
40dc02
40e202
40c302
40c302
40c302
20c304
20c304
104208
103c08
080010
060060
018180
007e00
000000
ENDCHAR
STARTCHAR 9318
ENCODING 9318
SWIDTH 520 0
DWIDTH 24 0
BBX 24 24 0 0
BITMAP
000000
007e00
018180
060060
080010
10ff08
10ff08
208204
200404
400402
400802
400802
400802
401802
401802
201804
201804
101808
101808
080010
060060
018180
007e00
000000
ENDCHAR
STARTCHAR 9319
ENCODING 9319
SWIDTH 520 0
DWIDTH 24 0
BBX 24 24 0 0
BITMAP
000000
007e00
018180
060060
080010
103c08
104208
20c304
20c304
406202
403402
401802
402c02
404602
40c302
20c304
20c304
104208
103c08
080010
060060
018180
007e00
000000
ENDCHAR
STARTCHAR 9320
ENCODING 9320
SWIDTH 520 0
DWIDTH 24 0
BBX 24 24 0 0
BITMAP
000000
007e00
018180
060060
080010
103c08
104208
20c304
20c304
40c302
40c302
40c302
404702
403b02
400302
20c304
20c304
104208
103c08
080010
060060
018180
007e00
000000
ENDCHAR
STARTCHAR 9321
ENCODING 9321
SWIDTH 520 0
DWIDTH 24 0
BBX 24 24 0 0
BITMAP
000000
007e00
018180
060060
080010
108708
138888
2198c4
2198c4
4198c2
4198c2
4198c2
4198c2
4198c2
4198c2
2198c4
2198c4
118888
13c708
080010
060060
018180
007e00
000000
ENDCHAR
STARTCHAR 9332
ENCODING 9332
SWIDTH 520 0
DWIDTH 24 0
BBX 24 24 0 0
BITMAP
000000
020040
040020
080810
181818
103808
30180c
201804
601806
601806
601806
601806
601806
601806
601806
601806
201804
30180c
101808
187e18
080010
040020
020040
000000
ENDCHAR
STARTCHAR 9333
ENCODING 9333
SWIDTH 520 0
DWIDTH 24 0
BBX 24 24 0 0
BITMAP
000000
020040
040020
080010
183c18
104208
30c30c
20c304
600306
600306
600606
600c06
601806
603006
603006
606006
206004
30c10c
10ff08
18ff18
080010
040020
020040
000000
ENDCHAR
STARTCHAR 9334
ENCODING 9334
SWIDTH 520 0
DWIDTH 24 0
BBX 24 24 0 0
BITMAP
000000
020040
040020
080010
183c18
104208
30c30c
20c304
600306
600306
600606
603806
600406
600606
600306
600306
20c304
30c30c
104208
183c18
080010
040020
020040
000000
ENDCHAR
STARTCHAR 9335
ENCODING 9335
SWIDTH 520 0
DWIDTH 24 0
BBX 24 24 0 0
BITMAP
000000
020040
040020
080410
180c18
101c08
302c0c
202c04
604c06
604c06
608c06
608c06
610c06
610c06
620c06
63ff86
200c04
300c0c
100c08
183f18
080010
040020
020040
000000
ENDCHAR
STARTCHAR 9336
ENCODING 9336
SWIDTH 520 0
DWIDTH 24 0
BBX 24 24 0 0
BITMAP
000000
020040
040020
080110
187f18
107f08
30400c
204004
604006
604006
605c06
606206
604306
600306
600306
600306
20c304
30c30c
104208
183c18
080010
040020
020040
000000
ENDCHAR
STARTCHAR 9337
ENCODING 9337
SWIDTH 520 0
DWIDTH 24 0
BBX 24 24 0 0
BITMAP
000000
020040
040020
080010
183c18
104208
30c30c
20c304
60c006
60c006
60dc06
60e206
60c306
60c306
60c306
60c306
20c304
30c30c
104208
183c18
080010
040020
020040
000000
ENDCHAR
STARTCHAR 9338
ENCODING 9338
SWIDTH 520 0
DWIDTH 24 0
BBX 24 24 0 0
BITMAP
000000
020040
040020
080010
18ff18
10ff08
30820c
200404
600406
600806
600806
601806
601806
601806
601806
601806
201804
30180c
101808
181818
080010
040020
020040
000000
ENDCHAR
STARTCHAR 9339
ENCODING 9339
SWIDTH 520 0
DWIDTH 24 0
BBX 24 24 0 0
BITMAP
000000
020040
040020
080010
183c18
104208
30c30c
20c304
60c306
606206
603406
601806
603c06
604206
60c306
60c306
20c304
30c30c
104208
183c18
080010
040020
020040
000000
ENDCHAR
STARTCHAR 9340
ENCODING 9340
SWIDTH 520 0
DWIDTH 24 0
BBX 24 24 0 0
BITMAP
000000
020040
040020
080010
183c18
104208
30c30c
20c304
60c306
60c306
60c306
60c306
604706
603b06
600306
600306
20c304
30c30c
104208
183c18
080010
040020
020040
000000
ENDCHAR
STARTCHAR 9341
ENCODING 9341
SWIDTH 520 0
DWIDTH 24 0
BBX 24 24 0 0
BITMAP
000000
020040
040020
080010
188718
138888
3198cc
2198c4
6198c6
6198c6
6198c6
6198c6
6198c6
6198c6
6198c6
6198c6
2198c4
3198cc
118888
1bc718
080010
040020
020040
000000
ENDCHAR
STARTCHAR 9342
ENCODING 9342
SWIDTH 520 0
DWIDTH 24 0
BBX 24 24 0 0
BITMAP
000000
020040
040020
080010
184118
11c708
30c30c
20c304
60c306
60c306
60c306
60c306
60c306
60c306
60c306
60c306
20c304
30c30c
10c308
19e798
080010
040020
020040
000000
ENDCHAR
STARTCHAR 9343
ENCODING 9343
SWIDTH 520 0
DWIDTH 24 0
BBX 24 24 0 0
BITMAP
000000
020040
040020
080010
188718
138888
3198cc
2198c4
6180c6
6180c6
6180c6
618186
618306
618606
618606
618c06
218c04
31984c
119fc8
1bdfd8
080010
040020
020040
000000
ENDCHAR
STARTCHAR 9344
ENCODING 9344
SWIDTH 520 0
DWIDTH 24 0
BBX 24 24 0 0
BITMAP
000000
020040
040020
080010
188718
138888
3198cc
2198c4
6180c6
6180c6
618186
618e06
618106
618186
6180c6
6180c6
2198c4
3198cc
118888
1bc718
080010
040020
020040
000000
ENDCHAR
STARTCHAR 9345
ENCODING 9345
SWIDTH 520 0
DWIDTH 24 0
BBX 24 24 0 0
BITMAP
000000
020040
040020
080010
188098
138188
31838c
218384
618586
618586
618986
618986
619186
619186
61a186
61bfe6
218184
31818c
118188
1bc7d8
080010
040020
020040
000000
ENDCHAR
STARTCHAR 9346
ENCODING 9346
SWIDTH 520 0
DWIDTH 24 0
BBX 24 24 0 0
BITMAP
000000
020040
040020
088050
1b8fd8
118fc8
31880c
218804
618806
618806
618b06
618c86
6188c6
6180c6
6180c6
6180c6
2198c4
3198cc
118888
1bc718
080010
040020
020040
000000
ENDCHAR
STARTCHAR 9347
ENCODING 9347
SWIDTH 520 0
DWIDTH 24 0
BBX 24 24 0 0
BITMAP
000000
020040
040020
080010
188398
138448
318c6c
218c64
618c06
618c06
618d86
618e46
618c66
618c66
618c66
618c66
218c64
318c6c
118448
1bc398
080010
040020
020040
000000
ENDCHAR
STARTCHAR 9348
ENCODING 9348
SWIDTH 520 0
DWIDTH 24 0
BBX 24 24 0 0
BITMAP
000000
020040
040020
080010
188018
139fc8
319fcc
219044
618086
618086
618106
618106
618206
618206
618606
618606
218604
31860c
118608
1bc618
080010
040020
020040
000000
ENDCHAR
STARTCHAR 9349
ENCODING 9349
SWIDTH 520 0
DWIDTH 24 0
BBX 24 24 0 0
BITMAP
000000
020040
040020
080010
188718
138888
3198cc
2198c4
6198c6
618886
618506
618206
618506
618886
6198c6
6198c6
2198c4
3198cc
118888
1bc718
080010
040020
020040
000000
ENDCHAR
STARTCHAR 9350
ENCODING 9350
SWIDTH 520 0
DWIDTH 24 0
BBX 24 24 0 0
BITMAP
000000
020040
040020
080010
188718
138888
3198cc
2198c4
6198c6
6198c6
6198c6
6198c6
6189c6
6186c6
6180c6
6180c6
2198c4
3198cc
118888
1bc718
080010
040020
020040
000000
ENDCHAR
STARTCHAR 9351
ENCODING 9351
SWIDTH 520 0
DWIDTH 24 0
BBX 24 24 0 0
BITMAP
000000
020040
040020
080010
19c198
122248
33366c
233664
603666
603666
603666
606666
606666
60c666
60c666
618666
218664
33166c
13f248
1bf198
080010
040020
020040
000000
ENDCHAR
STARTCHAR 9352
ENCODING 9352
SWIDTH 520 0
DWIDTH 24 0
BBX 24 24 0 0
BITMAP
000000
000000
000000
000800
001800
007800
001800
001800
001800
001800
001800
001800
001800
001800
001800
001800
001800
001800
001820
001870
007e20
000000
000000
000000
ENDCHAR
STARTCHAR 9353
ENCODING 9353
SWIDTH 520 0
DWIDTH 24 0
BBX 24 24 0 0
BITMAP
000000
000000
000000
003c00
004200
00c300
00c300
000300
000300
000300
000600
000c00
000c00
001800
001800
003000
006000
006100
00c310
00ff38
00ff10
000000
000000
000000
ENDCHAR
STARTCHAR 9354
ENCODING 9354
SWIDTH 520 0
DWIDTH 24 0
BBX 24 24 0 0
BITMAP
000000
000000
000000
003c00
004200
00c300
00c300
000300
000300
000200
000c00
003000
000c00
000200
000300
000300
000300
00c300
00c310
004238
003c10
000000
000000
000000
ENDCHAR
STARTCHAR 9355
ENCODING 9355
SWIDTH 520 0
DWIDTH 24 0
BBX 24 24 0 0
BITMAP
000000
000000
000000
000600
000e00
000e00
001600
001600
002600
002600
004600
004600
008600
008600
008600
010600
01ffc0
000600
000610
000638
001f90
000000
000000
000000
ENDCHAR
STARTCHAR 9356
ENCODING 9356
SWIDTH 520 0
DWIDTH 24 0
BBX 24 24 0 0
BITMAP
000000
000000
000000
000100
00ff00
00ff00
008000
008000
008000
008000
00bc00
00c200
008300
000300
000300
000300
000300
00c300
00c310
004238
003c10
000000
000000
000000
ENDCHAR
STARTCHAR 9357
ENCODING 9357
SWIDTH 520 0
DWIDTH 24 0
BBX 24 24 0 0
BITMAP
000000
000000
000000
003c00
004200
00c300
00c300
00c000
00c000
00c000
00dc00
00e200
00c300
00c300
00c300
00c300
00c300
00c300
00c310
004238
003c10
000000
000000
000000
ENDCHAR
STARTCHAR 9358
ENCODING 9358
SWIDTH 520 0
DWIDTH 24 0
BBX 24 24 0 0
BITMAP
000000
000000
000000
000000
00ff80
00ff80
00c080
008100
000100
000200
000200
000400
000400
000800
000800
001800
001800
001800
001810
001838
001810
000000
000000
000000
ENDCHAR
STARTCHAR 9359
ENCODING 9359
SWIDTH 520 0
DWIDTH 24 0
BBX 24 24 0 0
BITMAP
000000
000000
000000
007c00
008200
018300
018300
018300
018300
00c600
006c00
001000
006c00
00c600
018300
018300
018300
018300
018310
008238
007c10
000000
000000
000000
ENDCHAR
STARTCHAR 9360
ENCODING 9360
SWIDTH 520 0
DWIDTH 24 0
BBX 24 24 0 0
BITMAP
000000
000000
000000
003c00
004200
00c300
00c300
00c300
00c300
00c300
00c300
00c300
004700
003b00
000300
000300
000300
00c300
00c310
004238
003c10
000000
000000
000000
ENDCHAR
STARTCHAR 9361
ENCODING 9361
SWIDTH 520 0
DWIDTH 24 0
BBX 24 24 0 0
BITMAP
000000
000000
000000
010700
070880
0318c0
0318c0
0318c0
0318c0
0318c0
0318c0
0318c0
0318c0
0318c0
0318c0
0318c0
0318c0
0318c0
0318c8
03089c
078708
000000
000000
000000
ENDCHAR
STARTCHAR 9362
ENCODING 9362
SWIDTH 520 0
DWIDTH 24 0
BBX 24 24 0 0
BITMAP
000000
000000
000000
010100
070700
030300
030300
030300
030300
030300
030300
030300
030300
030300
030300
030300
030300
030300
030308
03031c
078788
000000
000000
000000
ENDCHAR
STARTCHAR 9363
ENCODING 9363
SWIDTH 520 0
DWIDTH 24 0
BBX 24 24 0 0
BITMAP
000000
000000
000000
010f00
071080
0330c0
0330c0
0300c0
0300c0
030180
030180
030300
030300
030600
030600
030c00
030c00
031800
031848
031fdc
079fc8
000000
000000
000000
ENDCHAR
STARTCHAR 9364
ENCODING 9364
SWIDTH 520 0
DWIDTH 24 0
BBX 24 24 0 0
BITMAP
000000
000000
000000
010f00
071080
0330c0
0330c0
0300c0
0300c0
0300c0
030180
030e00
030180
0300c0
0300c0
0300c0
0300c0
0330c0
0330c8
03109c
078f08
000000
000000
000000
ENDCHAR
STARTCHAR 9365
ENCODING 9365
SWIDTH 520 0
DWIDTH 24 0
BBX 24 24 0 0
BITMAP
000000
000000
000000
010080
070180
030380
030380
030580
030580
030980
030980
031180
031180
032180
032180
033fe0
030180
030180
030188
03019c
0787c8
000000
000000
000000
ENDCHAR
STARTCHAR 9366
ENCODING 9366
SWIDTH 520 0
DWIDTH 24 0
BBX 24 24 0 0
BITMAP
000000
000000
000000
010040
071fc0
031fc0
031000
031000
031000
031000
031700
031880
0310c0
0300c0
0300c0
0300c0
0300c0
0330c0
0330c8
03109c
078f08
000000
000000
000000
ENDCHAR
STARTCHAR 9367
ENCODING 9367
SWIDTH 520 0
DWIDTH 24 0
BBX 24 24 0 0
BITMAP
000000
000000
000000
010700
070880
0318c0
0318c0
031800
031800
031800
031b00
031c80
0318c0
0318c0
0318c0
0318c0
0318c0
0318c0
0318c8
03089c
078708
000000
000000
000000
ENDCHAR
STARTCHAR 9368
ENCODING 9368
SWIDTH 520 0
DWIDTH 24 0
BBX 24 24 0 0
BITMAP
000000
000000
000000
010000
071fe0
031fe0
031020
030040
030080
030080
030100
030100
030300
030300
030300
030300
030300
030300
030308
03031c
078308
000000
000000
000000
ENDCHAR
STARTCHAR 9369
ENCODING 9369
SWIDTH 520 0
DWIDTH 24 0
BBX 24 24 0 0
BITMAP
000000
000000
000000
010f00
071080
0330c0
0330c0
0330c0
0330c0
031980
030f00
030600
030900
031980
0330c0
0330c0
0330c0
0330c0
0330c8
03109c
078f08
000000
000000
000000
ENDCHAR
STARTCHAR 9370
ENCODING 9370
SWIDTH 520 0
DWIDTH 24 0
BBX 24 24 0 0
BITMAP
000000
000000
000000
010700
070880
0318c0
0318c0
0318c0
0318c0
0318c0
0318c0
0318c0
0309c0
0306c0
0300c0
0300c0
0300c0
0318c0
0318c8
03089c
078708
000000
000000
000000
ENDCHAR
STARTCHAR 9371
ENCODING 9371
SWIDTH 520 0
DWIDTH 24 0
BBX 24 24 0 0
BITMAP
000000
000000
000000
070700
088880
18d8c0
18d8c0
00d8c0
00d8c0
00d8c0
0198c0
0198c0
0318c0
0318c0
0618c0
0618c0
0c18c0
0c18c0
1858c8
1fc89c
1fc708
000000
000000
000000
ENDCHAR
STARTCHAR 9472
ENCODING 9472
SWIDTH 520 0
DWIDTH 24 0
BBX 24 24 0 0
BITMAP
000000
000000
000000
000000
000000
000000
000000
000000
000000
000000
000000
ffffff
000000
000000
000000
000000
000000
000000
000000
000000
000000
000000
000000
000000
ENDCHAR
STARTCHAR 9473
ENCODING 9473
SWIDTH 520 0
DWIDTH 24 0
BBX 24 24 0 0
BITMAP
000000
000000
000000
000000
000000
000000
000000
000000
000000
000000
000000
ffffff
ffffff
000000
000000
000000
000000
000000
000000
000000
000000
000000
000000
000000
ENDCHAR
STARTCHAR 9474
ENCODING 9474
SWIDTH 520 0
DWIDTH 24 0
BBX 24 24 0 0
BITMAP
001000
001000
001000
001000
001000
001000
001000
001000
001000
001000
001000
001000
001000
001000
001000
001000
001000
001000
001000
001000
001000
001000
001000
001000
ENDCHAR
STARTCHAR 9475
ENCODING 9475
SWIDTH 520 0
DWIDTH 24 0
BBX 24 24 0 0
BITMAP
001800
001800
001800
001800
001800
001800
001800
001800
001800
001800
001800
001800
001800
001800
001800
001800
001800
001800
001800
001800
001800
001800
001800
001800
ENDCHAR
STARTCHAR 9476
ENCODING 9476
SWIDTH 520 0
DWIDTH 24 0
BBX 24 24 0 0
BITMAP
000000
000000
000000
000000
000000
000000
000000
000000
000000
000000
000000
3c3c3c
000000
000000
000000
000000
000000
000000
000000
000000
000000
000000
000000
000000
ENDCHAR
STARTCHAR 9477
ENCODING 9477
SWIDTH 520 0
DWIDTH 24 0
BBX 24 24 0 0
BITMAP
000000
000000
000000
000000
000000
000000
000000
000000
000000
000000
000000
3c3c3c
3c3c3c
000000
000000
000000
000000
000000
000000
000000
000000
000000
000000
000000
ENDCHAR
STARTCHAR 9478
ENCODING 9478
SWIDTH 520 0
DWIDTH 24 0
BBX 24 24 0 0
BITMAP
000000
000000
001000
001000
001000
001000
000000
000000
000000
000000
001000
001000
001000
001000
000000
000000
000000
000000
001000
001000
001000
001000
000000
000000
ENDCHAR
STARTCHAR 9479
ENCODING 9479
SWIDTH 520 0
DWIDTH 24 0
BBX 24 24 0 0
BITMAP
000000
000000
001800
001800
001800
001800
000000
000000
000000
000000
001800
001800
001800
001800
000000
000000
000000
000000
001800
001800
001800
001800
000000
000000
ENDCHAR
STARTCHAR 9480
ENCODING 9480
SWIDTH 520 0
DWIDTH 24 0
BBX 24 24 0 0
BITMAP
000000
000000
000000
000000
000000
000000
000000
000000
000000
000000
000000
71c71c
000000
000000
000000
000000
000000
000000
000000
000000
000000
000000
000000
000000
ENDCHAR
STARTCHAR 9481
ENCODING 9481
SWIDTH 520 0
DWIDTH 24 0
BBX 24 24 0 0
BITMAP
000000
000000
000000
000000
000000
000000
000000
000000
000000
000000
000000
71c71c
71c71c
000000
000000
000000
000000
000000
000000
000000
000000
000000
000000
000000
ENDCHAR
STARTCHAR 9482
ENCODING 9482
SWIDTH 520 0
DWIDTH 24 0
BBX 24 24 0 0
BITMAP
000000
001000
001000
001000
000000
000000
000000
001000
001000
001000
000000
000000
000000
001000
001000
001000
000000
000000
000000
001000
001000
001000
000000
000000
ENDCHAR
STARTCHAR 9483
ENCODING 9483
SWIDTH 520 0
DWIDTH 24 0
BBX 24 24 0 0
BITMAP
000000
001800
001800
001800
000000
000000
000000
001800
001800
001800
000000
000000
000000
001800
001800
001800
000000
000000
000000
001800
001800
001800
000000
000000
ENDCHAR
STARTCHAR 9484
ENCODING 9484
SWIDTH 520 0
DWIDTH 24 0
BBX 24 24 0 0
BITMAP
000000
000000
000000
000000
000000
000000
000000
000000
000000
000000
000000
001fff
001000
001000
001000
001000
001000
001000
001000
001000
001000
001000
001000
001000
ENDCHAR
STARTCHAR 9485
ENCODING 9485
SWIDTH 520 0
DWIDTH 24 0
BBX 24 24 0 0
BITMAP
000000
000000
000000
000000
000000
000000
000000
000000
000000
000000
000000
001fff
001fff
001000
001000
001000
001000
001000
001000
001000
001000
001000
001000
001000
ENDCHAR
STARTCHAR 9486
ENCODING 9486
SWIDTH 520 0
DWIDTH 24 0
BBX 24 24 0 0
BITMAP
000000
000000
000000
000000
000000
000000
000000
000000
000000
000000
000000
001fff
001800
001800
001800
001800
001800
001800
001800
001800
001800
001800
001800
001800
ENDCHAR
STARTCHAR 9487
ENCODING 9487
SWIDTH 520 0
DWIDTH 24 0
BBX 24 24 0 0
BITMAP
000000
000000
000000
000000
000000
000000
000000
000000
000000
000000
000000
001fff
001fff
001800
001800
001800
001800
001800
001800
001800
001800
001800
001800
001800
ENDCHAR
STARTCHAR 9488
ENCODING 9488
SWIDTH 520 0
DWIDTH 24 0
BBX 24 24 0 0
BITMAP
000000
000000
000000
000000
000000
000000
000000
000000
000000
000000
000000
fff000
001000
001000
001000
001000
001000
001000
001000
001000
001000
001000
001000
001000
ENDCHAR
STARTCHAR 9489
ENCODING 9489
SWIDTH 520 0
DWIDTH 24 0
BBX 24 24 0 0
BITMAP
000000
000000
000000
000000
000000
000000
000000
000000
000000
000000
000000
fff000
fff000
001000
001000
001000
001000
001000
001000
001000
001000
001000
001000
001000
ENDCHAR
STARTCHAR 9490
ENCODING 9490
SWIDTH 520 0
DWIDTH 24 0
BBX 24 24 0 0
BITMAP
000000
000000
000000
000000
000000
000000
000000
000000
000000
000000
000000
fff800
001800
001800
001800
001800
001800
001800
001800
001800
001800
001800
001800
001800
ENDCHAR
STARTCHAR 9491
ENCODING 9491
SWIDTH 520 0
DWIDTH 24 0
BBX 24 24 0 0
BITMAP
000000
000000
000000
000000
000000
000000
000000
000000
000000
000000
000000
fff800
fff800
001800
001800
001800
001800
001800
001800
001800
001800
001800
001800
001800
ENDCHAR
STARTCHAR 9492
ENCODING 9492
SWIDTH 520 0
DWIDTH 24 0
BBX 24 24 0 0
BITMAP
001000
001000
001000
001000
001000
001000
001000
001000
001000
001000
001000
001fff
000000
000000
000000
000000
000000
000000
000000
000000
000000
000000
000000
000000
ENDCHAR
STARTCHAR 9493
ENCODING 9493
SWIDTH 520 0
DWIDTH 24 0
BBX 24 24 0 0
BITMAP
001000
001000
001000
001000
001000
001000
001000
001000
001000
001000
001000
001fff
001fff
000000
000000
000000
000000
000000
000000
000000
000000
000000
000000
000000
ENDCHAR
STARTCHAR 9494
ENCODING 9494
SWIDTH 520 0
DWIDTH 24 0
BBX 24 24 0 0
BITMAP
001800
001800
001800
001800
001800
001800
001800
001800
001800
001800
001800
001fff
000000
000000
000000
000000
000000
000000
000000
000000
000000
000000
000000
000000
ENDCHAR
STARTCHAR 9495
ENCODING 9495
SWIDTH 520 0
DWIDTH 24 0
BBX 24 24 0 0
BITMAP
001800
001800
001800
001800
001800
001800
001800
001800
001800
001800
001800
001fff
001fff
000000
000000
000000
000000
000000
000000
000000
000000
000000
000000
000000
ENDCHAR
STARTCHAR 9496
ENCODING 9496
SWIDTH 520 0
DWIDTH 24 0
BBX 24 24 0 0
BITMAP
001000
001000
001000
001000
001000
001000
001000
001000
001000
001000
001000
fff000
000000
000000
000000
000000
000000
000000
000000
000000
000000
000000
000000
000000
ENDCHAR
STARTCHAR 9497
ENCODING 9497
SWIDTH 520 0
DWIDTH 24 0
BBX 24 24 0 0
BITMAP
001000
001000
001000
001000
001000
001000
001000
001000
001000
001000
001000
fff000
fff000
000000
000000
000000
000000
000000
000000
000000
000000
000000
000000
000000
ENDCHAR
STARTCHAR 9498
ENCODING 9498
SWIDTH 520 0
DWIDTH 24 0
BBX 24 24 0 0
BITMAP
001800
001800
001800
001800
001800
001800
001800
001800
001800
001800
001800
fff800
000000
000000
000000
000000
000000
000000
000000
000000
000000
000000
000000
000000
ENDCHAR
STARTCHAR 9499
ENCODING 9499
SWIDTH 520 0
DWIDTH 24 0
BBX 24 24 0 0
BITMAP
001800
001800
001800
001800
001800
001800
001800
001800
001800
001800
001800
fff800
fff800
000000
000000
000000
000000
000000
000000
000000
000000
000000
000000
000000
ENDCHAR
STARTCHAR 9500
ENCODING 9500
SWIDTH 520 0
DWIDTH 24 0
BBX 24 24 0 0
BITMAP
001000
001000
001000
001000
001000
001000
001000
001000
001000
001000
001000
001fff
001000
001000
001000
001000
001000
001000
001000
001000
001000
001000
001000
001000
ENDCHAR
STARTCHAR 9501
ENCODING 9501
SWIDTH 520 0
DWIDTH 24 0
BBX 24 24 0 0
BITMAP
001000
001000
001000
001000
001000
001000
001000
001000
001000
001000
001000
001fff
001fff
001000
001000
001000
001000
001000
001000
001000
001000
001000
001000
001000
ENDCHAR
STARTCHAR 9502
ENCODING 9502
SWIDTH 520 0
DWIDTH 24 0
BBX 24 24 0 0
BITMAP
001800
001800
001800
001800
001800
001800
001800
001800
001800
001800
001800
001fff
001000
001000
001000
001000
001000
001000
001000
001000
001000
001000
001000
001000
ENDCHAR
STARTCHAR 9503
ENCODING 9503
SWIDTH 520 0
DWIDTH 24 0
BBX 24 24 0 0
BITMAP
001000
001000
001000
001000
001000
001000
001000
001000
001000
001000
001000
001fff
001800
001800
001800
001800
001800
001800
001800
001800
001800
001800
001800
001800
ENDCHAR
STARTCHAR 9504
ENCODING 9504
SWIDTH 520 0
DWIDTH 24 0
BBX 24 24 0 0
BITMAP
001800
001800
001800
001800
001800
001800
001800
001800
001800
001800
001800
001fff
001800
001800
001800
001800
001800
001800
001800
001800
001800
001800
001800
001800
ENDCHAR
STARTCHAR 9505
ENCODING 9505
SWIDTH 520 0
DWIDTH 24 0
BBX 24 24 0 0
BITMAP
001800
001800
001800
001800
001800
001800
001800
001800
001800
001800
001800
001fff
001fff
001000
001000
001000
001000
001000
001000
001000
001000
001000
001000
001000
ENDCHAR
STARTCHAR 9506
ENCODING 9506
SWIDTH 520 0
DWIDTH 24 0
BBX 24 24 0 0
BITMAP
001000
001000
001000
001000
001000
001000
001000
001000
001000
001000
001000
001fff
001fff
001800
001800
001800
001800
001800
001800
001800
001800
001800
001800
001800
ENDCHAR
STARTCHAR 9507
ENCODING 9507
SWIDTH 520 0
DWIDTH 24 0
BBX 24 24 0 0
BITMAP
001800
001800
001800
001800
001800
001800
001800
001800
001800
001800
001800
001fff
001fff
001800
001800
001800
001800
001800
001800
001800
001800
001800
001800
001800
ENDCHAR
STARTCHAR 9508
ENCODING 9508
SWIDTH 520 0
DWIDTH 24 0
BBX 24 24 0 0
BITMAP
001000
001000
001000
001000
001000
001000
001000
001000
001000
001000
001000
fff000
001000
001000
001000
001000
001000
001000
001000
001000
001000
001000
001000
001000
ENDCHAR
STARTCHAR 9509
ENCODING 9509
SWIDTH 520 0
DWIDTH 24 0
BBX 24 24 0 0
BITMAP
001000
001000
001000
001000
001000
001000
001000
001000
001000
001000
001000
fff000
fff000
001000
001000
001000
001000
001000
001000
001000
001000
001000
001000
001000
ENDCHAR
STARTCHAR 9510
ENCODING 9510
SWIDTH 520 0
DWIDTH 24 0
BBX 24 24 0 0
BITMAP
001800
001800
001800
001800
001800
001800
001800
001800
001800
001800
001800
fff800
001000
001000
001000
001000
001000
001000
001000
001000
001000
001000
001000
001000
ENDCHAR
STARTCHAR 9511
ENCODING 9511
SWIDTH 520 0
DWIDTH 24 0
BBX 24 24 0 0
BITMAP
001000
001000
001000
001000
001000
001000
001000
001000
001000
001000
001000
fff800
001800
001800
001800
001800
001800
001800
001800
001800
001800
001800
001800
001800
ENDCHAR
STARTCHAR 9512
ENCODING 9512
SWIDTH 520 0
DWIDTH 24 0
BBX 24 24 0 0
BITMAP
001800
001800
001800
001800
001800
001800
001800
001800
001800
001800
001800
fff800
001800
001800
001800
001800
001800
001800
001800
001800
001800
001800
001800
001800
ENDCHAR
STARTCHAR 9513
ENCODING 9513
SWIDTH 520 0
DWIDTH 24 0
BBX 24 24 0 0
BITMAP
001800
001800
001800
001800
001800
001800
001800
001800
001800
001800
001800
fff800
fff800
001000
001000
001000
001000
001000
001000
001000
001000
001000
001000
001000
ENDCHAR
STARTCHAR 9514
ENCODING 9514
SWIDTH 520 0
DWIDTH 24 0
BBX 24 24 0 0
BITMAP
001000
001000
001000
001000
001000
001000
001000
001000
001000
001000
001000
fff800
fff800
001800
001800
001800
001800
001800
001800
001800
001800
001800
001800
001800
ENDCHAR
STARTCHAR 9515
ENCODING 9515
SWIDTH 520 0
DWIDTH 24 0
BBX 24 24 0 0
BITMAP
001800
001800
001800
001800
001800
001800
001800
001800
001800
001800
001800
fff800
fff800
001800
001800
001800
001800
001800
001800
001800
001800
001800
001800
001800
ENDCHAR
STARTCHAR 9516
ENCODING 9516
SWIDTH 520 0
DWIDTH 24 0
BBX 24 24 0 0
BITMAP
000000
000000
000000
000000
000000
000000
000000
000000
000000
000000
000000
ffffff
001000
001000
001000
001000
001000
001000
001000
001000
001000
001000
001000
001000
ENDCHAR
STARTCHAR 9517
ENCODING 9517
SWIDTH 520 0
DWIDTH 24 0
BBX 24 24 0 0
BITMAP
000000
000000
000000
000000
000000
000000
000000
000000
000000
000000
000000
ffffff
fff000
001000
001000
001000
001000
001000
001000
001000
001000
001000
001000
001000
ENDCHAR
STARTCHAR 9518
ENCODING 9518
SWIDTH 520 0
DWIDTH 24 0
BBX 24 24 0 0
BITMAP
000000
000000
000000
000000
000000
000000
000000
000000
000000
000000
000000
ffffff
001fff
001000
001000
001000
001000
001000
001000
001000
001000
001000
001000
001000
ENDCHAR
STARTCHAR 9519
ENCODING 9519
SWIDTH 520 0
DWIDTH 24 0
BBX 24 24 0 0
BITMAP
000000
000000
000000
000000
000000
000000
000000
000000
000000
000000
000000
ffffff
ffffff
001000
001000
001000
001000
001000
001000
001000
001000
001000
001000
001000
ENDCHAR
STARTCHAR 9520
ENCODING 9520
SWIDTH 520 0
DWIDTH 24 0
BBX 24 24 0 0
BITMAP
000000
000000
000000
000000
000000
000000
000000
000000
000000
000000
000000
ffffff
001800
001800
001800
001800
001800
001800
001800
001800
001800
001800
001800
001800
ENDCHAR
STARTCHAR 9521
ENCODING 9521
SWIDTH 520 0
DWIDTH 24 0
BBX 24 24 0 0
BITMAP
000000
000000
000000
000000
000000
000000
000000
000000
000000
000000
000000
ffffff
fff800
001800
001800
001800
001800
001800
001800
001800
001800
001800
001800
001800
ENDCHAR
STARTCHAR 9522
ENCODING 9522
SWIDTH 520 0
DWIDTH 24 0
BBX 24 24 0 0
BITMAP
000000
000000
000000
000000
000000
000000
000000
000000
000000
000000
000000
ffffff
001fff
001800
001800
001800
001800
001800
001800
001800
001800
001800
001800
001800
ENDCHAR
STARTCHAR 9523
ENCODING 9523
SWIDTH 520 0
DWIDTH 24 0
BBX 24 24 0 0
BITMAP
000000
000000
000000
000000
000000
000000
000000
000000
000000
000000
000000
ffffff
ffffff
001800
001800
001800
001800
001800
001800
001800
001800
001800
001800
001800
ENDCHAR
STARTCHAR 9524
ENCODING 9524
SWIDTH 520 0
DWIDTH 24 0
BBX 24 24 0 0
BITMAP
001000
001000
001000
001000
001000
001000
001000
001000
001000
001000
001000
ffffff
000000
000000
000000
000000
000000
000000
000000
000000
000000
000000
000000
000000
ENDCHAR
STARTCHAR 9525
ENCODING 9525
SWIDTH 520 0
DWIDTH 24 0
BBX 24 24 0 0
BITMAP
001000
001000
001000
001000
001000
001000
001000
001000
001000
001000
001000
ffffff
fff000
000000
000000
000000
000000
000000
000000
000000
000000
000000
000000
000000
ENDCHAR
STARTCHAR 9526
ENCODING 9526
SWIDTH 520 0
DWIDTH 24 0
BBX 24 24 0 0
BITMAP
001000
001000
001000
001000
001000
001000
001000
001000
001000
001000
001000
ffffff
001fff
000000
000000
000000
000000
000000
000000
000000
000000
000000
000000
000000
ENDCHAR
STARTCHAR 9527
ENCODING 9527
SWIDTH 520 0
DWIDTH 24 0
BBX 24 24 0 0
BITMAP
001000
001000
001000
001000
001000
001000
001000
001000
001000
001000
001000
ffffff
ffffff
000000
000000
000000
000000
000000
000000
000000
000000
000000
000000
000000
ENDCHAR
STARTCHAR 9528
ENCODING 9528
SWIDTH 520 0
DWIDTH 24 0
BBX 24 24 0 0
BITMAP
001800
001800
001800
001800
001800
001800
001800
001800
001800
001800
001800
ffffff
000000
000000
000000
000000
000000
000000
000000
000000
000000
000000
000000
000000
ENDCHAR
STARTCHAR 9529
ENCODING 9529
SWIDTH 520 0
DWIDTH 24 0
BBX 24 24 0 0
BITMAP
001800
001800
001800
001800
001800
001800
001800
001800
001800
001800
001800
ffffff
fff800
000000
000000
000000
000000
000000
000000
000000
000000
000000
000000
000000
ENDCHAR
STARTCHAR 9530
ENCODING 9530
SWIDTH 520 0
DWIDTH 24 0
BBX 24 24 0 0
BITMAP
001800
001800
001800
001800
001800
001800
001800
001800
001800
001800
001800
ffffff
001fff
000000
000000
000000
000000
000000
000000
000000
000000
000000
000000
000000
ENDCHAR
STARTCHAR 9531
ENCODING 9531
SWIDTH 520 0
DWIDTH 24 0
BBX 24 24 0 0
BITMAP
001800
001800
001800
001800
001800
001800
001800
001800
001800
001800
001800
ffffff
ffffff
000000
000000
000000
000000
000000
000000
000000
000000
000000
000000
000000
ENDCHAR
STARTCHAR 9532
ENCODING 9532
SWIDTH 520 0
DWIDTH 24 0
BBX 24 24 0 0
BITMAP
001000
001000
001000
001000
001000
001000
001000
001000
001000
001000
001000
ffffff
001000
001000
001000
001000
001000
001000
001000
001000
001000
001000
001000
001000
ENDCHAR
STARTCHAR 9533
ENCODING 9533
SWIDTH 520 0
DWIDTH 24 0
BBX 24 24 0 0
BITMAP
001000
001000
001000
001000
001000
001000
001000
001000
001000
001000
001000
ffffff
fff000
001000
001000
001000
001000
001000
001000
001000
001000
001000
001000
001000
ENDCHAR
STARTCHAR 9534
ENCODING 9534
SWIDTH 520 0
DWIDTH 24 0
BBX 24 24 0 0
BITMAP
001000
001000
001000
001000
001000
001000
001000
001000
001000
001000
001000
ffffff
001fff
001000
001000
001000
001000
001000
001000
001000
001000
001000
001000
001000
ENDCHAR
STARTCHAR 9535
ENCODING 9535
SWIDTH 520 0
DWIDTH 24 0
BBX 24 24 0 0
BITMAP
001000
001000
001000
001000
001000
001000
001000
001000
001000
001000
001000
ffffff
ffffff
001000
001000
001000
001000
001000
001000
001000
001000
001000
001000
001000
ENDCHAR
STARTCHAR 9536
ENCODING 9536
SWIDTH 520 0
DWIDTH 24 0
BBX 24 24 0 0
BITMAP
001800
001800
001800
001800
001800
001800
001800
001800
001800
001800
001800
ffffff
001000
001000
001000
001000
001000
001000
001000
001000
001000
001000
001000
001000
ENDCHAR
STARTCHAR 9537
ENCODING 9537
SWIDTH 520 0
DWIDTH 24 0
BBX 24 24 0 0
BITMAP
001000
001000
001000
001000
001000
001000
001000
001000
001000
001000
001000
ffffff
001800
001800
001800
001800
001800
001800
001800
001800
001800
001800
001800
001800
ENDCHAR
STARTCHAR 9538
ENCODING 9538
SWIDTH 520 0
DWIDTH 24 0
BBX 24 24 0 0
BITMAP
001800
001800
001800
001800
001800
001800
001800
001800
001800
001800
001800
ffffff
001800
001800
001800
001800
001800
001800
001800
001800
001800
001800
001800
001800
ENDCHAR
STARTCHAR 9539
ENCODING 9539
SWIDTH 520 0
DWIDTH 24 0
BBX 24 24 0 0
BITMAP
001800
001800
001800
001800
001800
001800
001800
001800
001800
001800
001800
ffffff
fff000
001000
001000
001000
001000
001000
001000
001000
001000
001000
001000
001000
ENDCHAR
STARTCHAR 9540
ENCODING 9540
SWIDTH 520 0
DWIDTH 24 0
BBX 24 24 0 0
BITMAP
001800
001800
001800
001800
001800
001800
001800
001800
001800
001800
001800
ffffff
001fff
001000
001000
001000
001000
001000
001000
001000
001000
001000
001000
001000
ENDCHAR
STARTCHAR 9541
ENCODING 9541
SWIDTH 520 0
DWIDTH 24 0
BBX 24 24 0 0
BITMAP
001000
001000
001000
001000
001000
001000
001000
001000
001000
001000
001000
ffffff
fff800
001800
001800
001800
001800
001800
001800
001800
001800
001800
001800
001800
ENDCHAR
STARTCHAR 9542
ENCODING 9542
SWIDTH 520 0
DWIDTH 24 0
BBX 24 24 0 0
BITMAP
001000
001000
001000
001000
001000
001000
001000
001000
001000
001000
001000
ffffff
001fff
001800
001800
001800
001800
001800
001800
001800
001800
001800
001800
001800
ENDCHAR
STARTCHAR 9543
ENCODING 9543
SWIDTH 520 0
DWIDTH 24 0
BBX 24 24 0 0
BITMAP
001800
001800
001800
001800
001800
001800
001800
001800
001800
001800
001800
ffffff
ffffff
001000
001000
001000
001000
001000
001000
001000
001000
001000
001000
001000
ENDCHAR
STARTCHAR 9544
ENCODING 9544
SWIDTH 520 0
DWIDTH 24 0
BBX 24 24 0 0
BITMAP
001000
001000
001000
001000
001000
001000
001000
001000
001000
001000
001000
ffffff
ffffff
001800
001800
001800
001800
001800
001800
001800
001800
001800
001800
001800
ENDCHAR
STARTCHAR 9545
ENCODING 9545
SWIDTH 520 0
DWIDTH 24 0
BBX 24 24 0 0
BITMAP
001800
001800
001800
001800
001800
001800
001800
001800
001800
001800
001800
ffffff
fff800
001800
001800
001800
001800
001800
001800
001800
001800
001800
001800
001800
ENDCHAR
STARTCHAR 9546
ENCODING 9546
SWIDTH 520 0
DWIDTH 24 0
BBX 24 24 0 0
BITMAP
001800
001800
001800
001800
001800
001800
001800
001800
001800
001800
001800
ffffff
001fff
001800
001800
001800
001800
001800
001800
001800
001800
001800
001800
001800
ENDCHAR
STARTCHAR 9547
ENCODING 9547
SWIDTH 520 0
DWIDTH 24 0
BBX 24 24 0 0
BITMAP
001800
001800
001800
001800
001800
001800
001800
001800
001800
001800
001800
ffffff
ffffff
001800
001800
001800
001800
001800
001800
001800
001800
001800
001800
001800
ENDCHAR
STARTCHAR 9632
ENCODING 9632
SWIDTH 520 0
DWIDTH 24 0
BBX 24 24 0 0
BITMAP
000000
000000
3ffffc
3ffffc
3ffffc
3ffffc
3ffffc
3ffffc
3ffffc
3ffffc
3ffffc
3ffffc
3ffffc
3ffffc
3ffffc
3ffffc
3ffffc
3ffffc
3ffffc
3ffffc
3ffffc
3ffffc
000000
000000
ENDCHAR
STARTCHAR 9633
ENCODING 9633
SWIDTH 520 0
DWIDTH 24 0
BBX 24 24 0 0
BITMAP
000000
000000
3ffffc
200004
200004
200004
200004
200004
200004
200004
200004
200004
200004
200004
200004
200004
200004
200004
200004
200004
200004
3ffffc
000000
000000
ENDCHAR
STARTCHAR 9650
ENCODING 9650
SWIDTH 520 0
DWIDTH 24 0
BBX 24 24 0 0
BITMAP
000000
000000
001800
003c00
003c00
007e00
007e00
00ff00
00ff00
01ff80
01ff80
03ffc0
03ffc0
07ffe0
07ffe0
0ffff0
0ffff0
1ffff8
1ffff8
3ffffc
3ffffc
000000
000000
000000
ENDCHAR
STARTCHAR 9651
ENCODING 9651
SWIDTH 520 0
DWIDTH 24 0
BBX 24 24 0 0
BITMAP
000000
000000
001800
002400
002400
004200
004200
008100
008100
010080
010080
020040
020040
040020
040020
080010
080010
100008
100008
200004
3ffffc
000000
000000
000000
ENDCHAR
STARTCHAR 9670
ENCODING 9670
SWIDTH 520 0
DWIDTH 24 0
BBX 24 24 0 0
BITMAP
001000
003800
007c00
00fe00
01ff00
03ff80
07ffc0
0fffe0
1ffff0
3ffff8
7ffffc
fffffe
7ffffc
3ffff8
1ffff0
0fffe0
07ffc0
03ff80
01ff00
00fe00
007c00
003800
001000
000000
ENDCHAR
STARTCHAR 9671
ENCODING 9671
SWIDTH 520 0
DWIDTH 24 0
BBX 24 24 0 0
BITMAP
001000
002800
004400
008200
010100
020080
040040
080020
100010
200008
400004
800002
400004
200008
100010
080020
040040
020080
010100
008200
004400
002800
001000
000000
ENDCHAR
STARTCHAR 9675
ENCODING 9675
SWIDTH 520 0
DWIDTH 24 0
BBX 24 24 0 0
BITMAP
000000
007e00
018180
060060
080010
100008
100008
200004
200004
400002
400002
400002
400002
400002
400002
200004
200004
100008
100008
080010
060060
018180
007e00
000000
ENDCHAR
STARTCHAR 9678
ENCODING 9678
SWIDTH 520 0
DWIDTH 24 0
BBX 24 24 0 0
BITMAP
000000
000000
007e00
018180
060060
087e10
098190
120048
120048
240024
240024
240024
240024
240024
240024
120048
120048
098190
087e10
060060
018180
007e00
000000
000000
ENDCHAR
STARTCHAR 9679
ENCODING 9679
SWIDTH 520 0
DWIDTH 24 0
BBX 24 24 0 0
BITMAP
000000
000000
007e00
01ff80
07ffe0
0ffff0
0ffff0
1ffff8
1ffff8
3ffffc
3ffffc
3ffffc
3ffffc
3ffffc
3ffffc
1ffff8
1ffff8
0ffff0
0ffff0
07ffe0
01ff80
007e00
000000
000000
ENDCHAR
STARTCHAR 9733
ENCODING 9733
SWIDTH 520 0
DWIDTH 24 0
BBX 24 24 0 0
BITMAP
000000
001000
001000
003800
003800
003800
007c00
007c00
007c00
fffffe
7ffffc
1ffff0
0fffe0
03ff80
01ff00
03ff80
03ff80
03ff80
07efc0
0783c0
0701c0
0c0060
080020
000000
ENDCHAR
STARTCHAR 9734
ENCODING 9734
SWIDTH 520 0
DWIDTH 24 0
BBX 24 24 0 0
BITMAP
000000
001000
001000
002800
002800
002800
004400
004400
004400
ff83fe
60000c
100010
0c0060
020080
010100
020080
020080
021080
046c40
048240
0701c0
0c0060
080020
000000
ENDCHAR
STARTCHAR 9792
ENCODING 9792
SWIDTH 520 0
DWIDTH 24 0
BBX 24 24 0 0
BITMAP
000000
000000
007c00
008200
010100
010100
010100
010100
010100
008200
007c00
001000
001000
001000
001000
0fffe0
001000
001000
001000
001000
001000
001000
001000
000000
ENDCHAR
STARTCHAR 9794
ENCODING 9794
SWIDTH 520 0
DWIDTH 24 0
BBX 24 24 0 0
BITMAP
000000
001000
003800
005400
009200
011100
021080
001000
001000
001000
001000
001000
001000
007c00
008200
010100
010100
010100
010100
010100
008200
007c00
000000
000000
ENDCHAR
STARTCHAR 12288
ENCODING 12288
SWIDTH 520 0
DWIDTH 24 0
BBX 24 24 0 0
BITMAP
000000
000000
000000
000000
000000
000000
000000
000000
000000
000000
000000
000000
000000
000000
000000
000000
000000
000000
000000
000000
000000
000000
000000
000000
ENDCHAR
STARTCHAR 12289
ENCODING 12289
SWIDTH 520 0
DWIDTH 24 0
BBX 24 24 0 0
BITMAP
000000
000000
000000
000000
000000
000000
000000
000000
000000
000000
000000
000000
000000
000000
000000
100000
0c0000
070000
038000
018000
018000
000000
000000
000000
ENDCHAR
STARTCHAR 12290
ENCODING 12290
SWIDTH 520 0
DWIDTH 24 0
BBX 24 24 0 0
BITMAP
000000
000000
000000
000000
000000
000000
000000
000000
000000
000000
000000
000000
000000
000000
070000
088000
104000
104000
104000
088000
070000
000000
000000
000000
ENDCHAR
STARTCHAR 12291
ENCODING 12291
SWIDTH 520 0
DWIDTH 24 0
BBX 24 24 0 0
BITMAP
000000
000000
000000
000000
000000
000000
000000
000000
004100
00e380
00c300
018600
018600
030c00
030c00
061800
041000
000000
000000
000000
000000
000000
000000
000000
ENDCHAR
STARTCHAR 12293
ENCODING 12293
SWIDTH 520 0
DWIDTH 24 0
BBX 24 24 0 0
BITMAP
000000
000000
004000
007000
006000
00c000
00c060
01fff0
018060
0300c0
0600c0
040180
080180
110300
008600
006400
003800
001c00
000e00
000700
000300
000200
000000
000000
ENDCHAR
STARTCHAR 12296
ENCODING 12296
SWIDTH 520 0
DWIDTH 24 0
BBX 24 24 0 0
BITMAP
000000
000010
000010
000020
000020
000040
000040
000080
000080
000100
000100
000200
000200
000100
000100
000080
000080
000040
000040
000020
000020
000010
000010
000000
ENDCHAR
STARTCHAR 12297
ENCODING 12297
SWIDTH 520 0
DWIDTH 24 0
BBX 24 24 0 0
BITMAP
000000
080000
080000
040000
040000
020000
020000
010000
010000
008000
008000
004000
004000
008000
008000
010000
010000
020000
020000
040000
040000
080000
080000
000000
ENDCHAR
STARTCHAR 12298
ENCODING 12298
SWIDTH 520 0
DWIDTH 24 0
BBX 24 24 0 0
BITMAP
000000
000012
000012
000024
000024
000048
000048
000090
000090
000120
000120
000240
000240
000120
000120
000090
000090
000048
000048
000024
000024
000012
000012
000000
ENDCHAR
STARTCHAR 12299
ENCODING 12299
SWIDTH 520 0
DWIDTH 24 0
BBX 24 24 0 0
BITMAP
000000
480000
480000
240000
240000
120000
120000
090000
090000
048000
048000
024000
024000
048000
048000
090000
090000
120000
120000
240000
240000
480000
480000
000000
ENDCHAR
STARTCHAR 12300
ENCODING 12300
SWIDTH 520 0
DWIDTH 24 0
BBX 24 24 0 0
BITMAP
000000
0001fc
000100
000100
000100
000100
000100
000100
000100
000100
000100
000100
000100
000100
000100
000100
000100
000100
000100
000100
000000
000000
000000
000000
ENDCHAR
STARTCHAR 12301
ENCODING 12301
SWIDTH 520 0
DWIDTH 24 0
BBX 24 24 0 0
BITMAP
000000
000000
000000
000000
008000
008000
008000
008000
008000
008000
008000
008000
008000
008000
008000
008000
008000
008000
008000
008000
008000
008000
3f8000
000000
ENDCHAR
STARTCHAR 12302
ENCODING 12302
SWIDTH 520 0
DWIDTH 24 0
BBX 24 24 0 0
BITMAP
000000
0003fc
000204
000204
00027c
000240
000240
000240
000240
000240
000240
000240
000240
000240
000240
000240
000240
000240
000240
0003c0
000000
000000
000000
000000
ENDCHAR
STARTCHAR 12303
ENCODING 12303
SWIDTH 520 0
DWIDTH 24 0
BBX 24 24 0 0
BITMAP
000000
000000
000000
000000
03c000
024000
024000
024000
024000
024000
024000
024000
024000
024000
024000
024000
024000
024000
024000
3e4000
204000
204000
3fc000
000000
ENDCHAR
STARTCHAR 12304
ENCODING 12304
SWIDTH 520 0
DWIDTH 24 0
BBX 24 24 0 0
BITMAP
000000
0003fc
0003f8
0003f0
0003f0
0003f0
0003e0
0003e0
0003e0
0003c0
0003c0
0003c0
0003c0
0003c0
0003c0
0003e0
0003e0
0003e0
0003f0
0003f0
0003f0
0003f8
0003fc
000000
ENDCHAR
STARTCHAR 12305
ENCODING 12305
SWIDTH 520 0
DWIDTH 24 0
BBX 24 24 0 0
BITMAP
000000
3fc000
1fc000
0fc000
0fc000
0fc000
07c000
07c000
07c000
03c000
03c000
03c000
03c000
03c000
03c000
07c000
07c000
07c000
0fc000
0fc000
0fc000
1fc000
3fc000
000000
ENDCHAR
STARTCHAR 12307
ENCODING 12307
SWIDTH 520 0
DWIDTH 24 0
BBX 24 24 0 0
BITMAP
000000
000000
3ffffc
3ffffc
3ffffc
3ffffc
3ffffc
3ffffc
3ffffc
000000
000000
000000
000000
000000
000000
3ffffc
3ffffc
3ffffc
3ffffc
3ffffc
3ffffc
3ffffc
000000
000000
ENDCHAR
STARTCHAR 12308
ENCODING 12308
SWIDTH 520 0
DWIDTH 24 0
BBX 24 24 0 0
BITMAP
000000
000010
000020
000040
000080
000080
000080
000080
000080
000080
000080
000080
000080
000080
000080
000080
000080
000080
000080
000080
000040
000020
000010
000000
ENDCHAR
STARTCHAR 12309
ENCODING 12309
SWIDTH 520 0
DWIDTH 24 0
BBX 24 24 0 0
BITMAP
000000
080000
040000
020000
010000
010000
010000
010000
010000
010000
010000
010000
010000
010000
010000
010000
010000
010000
010000
010000
020000
040000
080000
000000
ENDCHAR
STARTCHAR 12310
ENCODING 12310
SWIDTH 520 0
DWIDTH 24 0
BBX 24 24 0 0
BITMAP
000000
0003fc
000208
000210
000210
000210
000220
000220
000220
000240
000240
000240
000240
000240
000240
000220
000220
000220
000210
000210
000210
000208
0003fc
000000
ENDCHAR
STARTCHAR 12311
ENCODING 12311
SWIDTH 520 0
DWIDTH 24 0
BBX 24 24 0 0
BITMAP
000000
3fc000
104000
084000
084000
084000
044000
044000
044000
024000
024000
024000
024000
024000
024000
044000
044000
044000
084000
084000
084000
104000
3fc000
000000
ENDCHAR
STARTCHAR 12353
ENCODING 12353
SWIDTH 520 0
DWIDTH 24 0
BBX 24 24 0 0
BITMAP
000000
000000
000000
00c000
006000
006000
006600
007f00
07e000
036400
006200
007e00
01e300
036580
0264c0
0468c0
0470c0
07e080
036080
002100
000200
000000
000000
000000
ENDCHAR
STARTCHAR 12354
ENCODING 12354
SWIDTH 520 0
DWIDTH 24 0
BBX 24 24 0 0
BITMAP
000000
000000
006000
007000
003000
003080
006780
07ff00
036000
006400
006600
006200
00ff80
01e6e0
066460
0c6c30
0c7830
083030
086030
0fb060
0730c0
000380
000000
000000
ENDCHAR
STARTCHAR 12355
ENCODING 12355
SWIDTH 520 0
DWIDTH 24 0
BBX 24 24 0 0
BITMAP
000000
000000
000000
000000
000000
000000
018000
00c100
00c080
018040
010160
0300e0
021040
021000
032000
016000
01c000
00c000
000000
000000
000000
000000
000000
000000
ENDCHAR
STARTCHAR 12356
ENCODING 12356
SWIDTH 520 0
DWIDTH 24 0
BBX 24 24 0 0
BITMAP
000000
000000
000000
000000
000000
060000
030000
030100
0300c0
030060
020030
060030
0400f0
040830
041000
063000
026000
036000
01c000
00c000
000000
000000
000000
000000
ENDCHAR
STARTCHAR 12357
ENCODING 12357
SWIDTH 520 0
DWIDTH 24 0
BBX 24 24 0 0
BITMAP
000000
000000
000000
000000
006000
001000
001800
002000
000000
003c00
03e600
018300
000300
000300
000300
000600
000600
000c00
003000
00c000
000000
000000
000000
000000
ENDCHAR
STARTCHAR 12358
ENCODING 12358
SWIDTH 520 0
DWIDTH 24 0
BBX 24 24 0 0
BITMAP
000000
000000
000000
00c000
003c00
001c00
003000
004000
000000
041e00
03f300
018180
000180
000180
000180
000180
000300
000300
000600
000c00
003000
00c000
000000
000000
ENDCHAR
STARTCHAR 12359
ENCODING 12359
SWIDTH 520 0
DWIDTH 24 0
BBX 24 24 0 0
BITMAP
000000
000000
000000
004000
003c00
001c00
001000
002000
000e00
003e00
01ec00
00c800
001000
002000
004000
00f000
00c800
018800
030fe0
0207e0
000000
000000
000000
000000
ENDCHAR
STARTCHAR 12360
ENCODING 12360
SWIDTH 520 0
DWIDTH 24 0
BBX 24 24 0 0
BITMAP
000000
000000
004000
003800
001800
001000
002000
000600
003f00
03e600
01cc00
001000
002000
004000
008000
01f000
018800
030800
060800
060ff0
0c07f0
000000
000000
000000
ENDCHAR
STARTCHAR 12361
ENCODING 12361
SWIDTH 520 0
DWIDTH 24 0
BBX 24 24 0 0
BITMAP
000000
000000
000000
000000
00c000
006180
006060
007830
00fc30
07e040
036600
007980
0060c0
01e060
026060
066060
0768c0
02e700
006000
000000
000000
000000
000000
000000
ENDCHAR
STARTCHAR 12362
ENCODING 12362
SWIDTH 520 0
DWIDTH 24 0
BBX 24 24 0 0
BITMAP
000000
000000
000000
010000
00c000
00c0c0
00c030
00f018
0ff818
07c020
00c700
00f8c0
00c060
00c030
03c030
06c030
0cd060
0ed0c0
05cf80
00c000
000000
000000
000000
000000
ENDCHAR
STARTCHAR 12363
ENCODING 12363
SWIDTH 520 0
DWIDTH 24 0
BBX 24 24 0 0
BITMAP
000000
000000
000000
000000
007000
003000
003000
003000
0060c0
007c30
1fc618
0f8618
018678
010418
030c00
020c00
069800
0c7800
1c7000
182000
000000
000000
000000
000000
ENDCHAR
STARTCHAR 12364
ENCODING 12364
SWIDTH 520 0
DWIDTH 24 0
BBX 24 24 0 0
BITMAP
000000
000000
000000
000038
00700c
0038e4
003030
003010
0060c0
007c30
1fc618
0f8618
018678
010418
030c00
020c00
069800
0c7800
1c7000
182000
000000
000000
000000
000000
ENDCHAR
STARTCHAR 12365
ENCODING 12365
SWIDTH 520 0
DWIDTH 24 0
BBX 24 24 0 0
BITMAP
000000
000000
00c000
01e000
006000
003300
03ff80
01d800
000c00
000660
001ff0
07f300
03c180
000180
003fc0
00c080
010000
010000
010000
00ff00
003f00
000000
000000
000000
ENDCHAR
STARTCHAR 12366
ENCODING 12366
SWIDTH 520 0
DWIDTH 24 0
BBX 24 24 0 0
BITMAP
000000
000000
018038
03c00c
00c0e4
006630
07ff10
03b000
001800
000cc0
003fe0
0fe600
078300
000300
007f80
018100
020000
020000
020000
01fe00
007e00
000000
000000
000000
ENDCHAR
STARTCHAR 12367
ENCODING 12367
SWIDTH 520 0
DWIDTH 24 0
BBX 24 24 0 0
BITMAP
000000
000000
000c00
000600
000700
000e00
001c00
001800
003000
006000
004000
00c000
008000
00c000
006000
003000
001800
001c00
000e00
000700
000300
000000
000000
000000
ENDCHAR
STARTCHAR 12368
ENCODING 12368
SWIDTH 520 0
DWIDTH 24 0
BBX 24 24 0 0
BITMAP
000000
000000
001800
000c70
000e18
001c08
0038e0
003030
006010
00c000
008000
018000
010000
018000
00c000
006000
003000
003800
001c00
000e00
000600
000000
000000
000000
ENDCHAR
STARTCHAR 12369
ENCODING 12369
SWIDTH 520 0
DWIDTH 24 0
BBX 24 24 0 0
BITMAP
000000
000000
000300
0601c0
030180
030180
030180
0201f8
061ffc
040f80
040180
040180
048180
048180
050180
050180
070180
030300
030300
000600
000c00
001000
000000
000000
ENDCHAR
STARTCHAR 12370
ENCODING 12370
SWIDTH 520 0
DWIDTH 24 0
BBX 24 24 0 0
BITMAP
000000
000038
00060c
0c0364
060330
070310
060300
0603f0
043ff8
041f00
080300
080300
090300
090300
0a0300
0a0300
0e0300
060600
060600
000c00
001800
002000
000000
000000
ENDCHAR
STARTCHAR 12371
ENCODING 12371
SWIDTH 520 0
DWIDTH 24 0
BBX 24 24 0 0
BITMAP
000000
000000
000000
000000
004000
003f80
000780
000e00
001000
000000
000000
000000
010000
020000
020000
020000
020000
01c3c0
00ffc0
003f00
000000
000000
000000
000000
ENDCHAR
STARTCHAR 12372
ENCODING 12372
SWIDTH 520 0
DWIDTH 24 0
BBX 24 24 0 0
BITMAP
000000
000000
000000
00000c
008066
007f32
000f10
001c00
002000
000000
000000
000000
020000
040000
040000
040000
040000
038780
01ff80
007e00
000000
000000
000000
000000
ENDCHAR
STARTCHAR 12373
ENCODING 12373
SWIDTH 520 0
DWIDTH 24 0
BBX 24 24 0 0
BITMAP
000000
000000
000000
007000
00cc00
006300
003300
001f00
01fc00
00f600
000300
000180
000fc0
0071c0
008000
010000
010000
010000
018000
00ff00
007f00
000000
000000
000000
ENDCHAR
STARTCHAR 12374
ENCODING 12374
SWIDTH 520 0
DWIDTH 24 0
BBX 24 24 0 0
BITMAP
000000
000000
000000
000070
00e018
0198c8
008660
00c620
007c00
07f000
03dc00
000600
000300
01ff80
020380
040000
040000
040000
040000
03fe00
01fe00
000000
000000
000000
ENDCHAR
STARTCHAR 12375
ENCODING 12375
SWIDTH 520 0
DWIDTH 24 0
BBX 24 24 0 0
BITMAP
000000
000000
000000
000000
018000
00e000
00c000
00c000
00c000
00c000
00c000
00c000
00c000
008000
008020
008060
0081c0
008380
00fe00
007c00
000000
000000
000000
000000
ENDCHAR
STARTCHAR 12376
ENCODING 12376
SWIDTH 520 0
DWIDTH 24 0
BBX 24 24 0 0
BITMAP
000000
000000
000000
000000
030700
018180
01dc80
018600
018200
018000
010000
010000
010000
010000
010020
0100c0
010380
010700
00fc00
003800
000000
000000
000000
000000
ENDCHAR
STARTCHAR 12377
ENCODING 12377
SWIDTH 520 0
DWIDTH 24 0
BBX 24 24 0 0
BITMAP
000000
000000
001800
000e00
000c00
000c00
000de0
18fff0
0fcc00
060c00
000c00
003c00
004c00
008600
008600
007e00
003c00
000800
001800
003000
006000
008000
000000
000000
ENDCHAR
STARTCHAR 12378
ENCODING 12378
SWIDTH 520 0
DWIDTH 24 0
BBX 24 24 0 0
BITMAP
000000
00001c
003006
001c72
001818
001808
001bc0
18ffe0
0fd800
061800
001800
007800
009800
010c00
010c00
00fc00
006800
001000
003000
006000
00c000
010000
000000
000000
ENDCHAR
STARTCHAR 12379
ENCODING 12379
SWIDTH 520 0
DWIDTH 24 0
BBX 24 24 0 0
BITMAP
000000
000000
000000
000000
000380
0181c0
03c180
00c180
00c3f0
00fff8
1fc180
0ec180
00cd80
00c700
004200
004000
006000
003fc0
000fc0
000000
000000
000000
000000
000000
ENDCHAR
STARTCHAR 12380
ENCODING 12380
SWIDTH 520 0
DWIDTH 24 0
BBX 24 24 0 0
BITMAP
000000
000000
000038
00000c
000264
000330
018190
03c180
00c180
00c7e0
00fff0
1fc180
0ec180
00cd80
00c700
00c200
004000
004000
006000
003fc0
000fc0
000000
000000
000000
ENDCHAR
STARTCHAR 12381
ENCODING 12381
SWIDTH 520 0
DWIDTH 24 0
BBX 24 24 0 0
BITMAP
000000
000000
000e00
021300
03e300
01c700
000c00
001800
002000
00c000
0101c0
023fe0
07fe00
070800
001000
002000
002000
002000
001800
001f80
000f80
000000
000000
000000
ENDCHAR
STARTCHAR 12382
ENCODING 12382
SWIDTH 520 0
DWIDTH 24 0
BBX 24 24 0 0
BITMAP
000000
000000
000000
001c38
04260c
07c6e4
038e30
001810
003000
004000
018000
020380
047fc0
0ffc00
0e1000
002000
004000
004000
004000
003000
003f00
001f00
000000
000000
ENDCHAR
STARTCHAR 12383
ENCODING 12383
SWIDTH 520 0
DWIDTH 24 0
BBX 24 24 0 0
BITMAP
000000
000000
000000
00e000
007000
006000
006000
007c00
07f1e0
03c070
00c030
0180c0
018000
010000
030000
021000
062000
063000
0c1fe0
0c0fe0
000000
000000
000000
000000
ENDCHAR
STARTCHAR 12384
ENCODING 12384
SWIDTH 520 0
DWIDTH 24 0
BBX 24 24 0 0
BITMAP
000000
000000
000038
00e00c
007004
0060e0
006030
007c10
07f000
03c3c0
00c0e0
018060
018180
010000
030000
021000
062000
063000
0c1fe0
0c0fe0
000000
000000
000000
000000
ENDCHAR
STARTCHAR 12385
ENCODING 12385
SWIDTH 520 0
DWIDTH 24 0
BBX 24 24 0 0
BITMAP
000000
000000
018000
00e000
00c000
00dc00
00fe00
1fc000
0ec000
00c000
018000
018000
018f80
01b8c0
01e060
01c060
018060
008060
0000c0
000180
000700
001800
000000
000000
ENDCHAR
STARTCHAR 12386
ENCODING 12386
SWIDTH 520 0
DWIDTH 24 0
BBX 24 24 0 0
BITMAP
000000
000000
018038
00e00c
00c0e4
00dc30
00fe10
1fc000
0ec000
00c000
018000
018000
018f80
01b8c0
01e060
01c060
018060
008060
0000c0
000180
000700
001800
000000
000000
ENDCHAR
STARTCHAR 12387
ENCODING 12387
SWIDTH 520 0
DWIDTH 24 0
BBX 24 24 0 0
BITMAP
000000
000000
000000
000000
000000
000000
000000
000f00
007980
07c0c0
030060
000060
000060
000060
0000c0
000180
000600
001800
000000
000000
000000
000000
000000
000000
ENDCHAR
STARTCHAR 12388
ENCODING 12388
SWIDTH 520 0
DWIDTH 24 0
BBX 24 24 0 0
BITMAP
000000
000000
000000
000000
000000
000000
001f80
00f0c0
138060
1e0030
0c0030
000030
000030
000030
000060
0000c0
000180
000600
001800
000000
000000
000000
000000
000000
ENDCHAR
STARTCHAR 12389
ENCODING 12389
SWIDTH 520 0
DWIDTH 24 0
BBX 24 24 0 0
BITMAP
000000
000000
000038
00000c
000004
000070
000018
001f88
00f0c0
138060
1e0030
0c0030
000030
000030
000030
000060
0000c0
000180
000600
001800
000000
000000
000000
000000
ENDCHAR
STARTCHAR 12390
ENCODING 12390
SWIDTH 520 0
DWIDTH 24 0
BBX 24 24 0 0
BITMAP
000000
000000
000000
000000
000070
0007f8
107f00
0fc800
061000
001000
002000
002000
002000
002000
003000
001000
001800
000fe0
0007e0
000000
000000
000000
000000
000000
ENDCHAR
STARTCHAR 12391
ENCODING 12391
SWIDTH 520 0
DWIDTH 24 0
BBX 24 24 0 0
BITMAP
000000
00000c
000066
000032
000010
0000c0
000fe0
00fe00
1f9000
0c2000
002000
004000
004000
004000
004000
006000
002000
003000
001fc0
000fc0
000000
000000
000000
000000
ENDCHAR
STARTCHAR 12392
ENCODING 12392
SWIDTH 520 0
DWIDTH 24 0
BBX 24 24 0 0
BITMAP
000000
000000
000000
003000
001c00
001800
001800
001800
001800
001860
001be0
001f80
006000
00c000
008000
010000
010000
010000
00ffe0
007fe0
000000
000000
000000
000000
ENDCHAR
STARTCHAR 12393
ENCODING 12393
SWIDTH 520 0
DWIDTH 24 0
BBX 24 24 0 0
BITMAP
000000
000000
000000
006070
003818
0031c8
003060
003020
003000
0030c0
0037c0
003f00
00c000
018000
010000
020000
020000
020000
01ffc0
00ffc0
000000
000000
000000
000000
ENDCHAR
STARTCHAR 12394
ENCODING 12394
SWIDTH 520 0
DWIDTH 24 0
BBX 24 24 0 0
BITMAP
000000
000000
000000
01c000
00c000
00c000
00d800
00fc80
0fe060
078070
0181e0
010600
030800
020c00
060c00
0c0c00
0c0c00
007e00
008f80
0089c0
007000
000000
000000
000000
ENDCHAR
STARTCHAR 12395
ENCODING 12395
SWIDTH 520 0
DWIDTH 24 0
BBX 24 24 0 0
BITMAP
000000
000000
000000
000000
060000
038000
0307e0
031870
0300e0
060100
060000
040000
044000
044000
048800
049000
069800
068ff8
0387f8
018000
000000
000000
000000
000000
ENDCHAR
STARTCHAR 12396
ENCODING 12396
SWIDTH 520 0
DWIDTH 24 0
BBX 24 24 0 0
BITMAP
000000
000000
000000
000000
00c000
006000
106700
0c78c0
0c6040
0ce060
056060
066060
046060
0ec060
0ac060
0b83e0
118de0
19c8f0
1e0998
0c0618
000000
000000
000000
000000
ENDCHAR
STARTCHAR 12397
ENCODING 12397
SWIDTH 520 0
DWIDTH 24 0
BBX 24 24 0 0
BITMAP
000000
000000
000000
030000
01c000
018000
018000
019f00
1fe180
0dc080
0180c0
0180c0
0180c0
0300c0
0700c0
0d00c0
0d0080
191fe0
1f21b8
0b2118
011e00
000000
000000
000000
ENDCHAR
STARTCHAR 12398
ENCODING 12398
SWIDTH 520 0
DWIDTH 24 0
BBX 24 24 0 0
BITMAP
000000
000000
000000
000000
000000
003e00
00c980
0388e0
060860
061830
0c1818
0c1018
0c3018
0c2018
0c6030
0cc030
078060
0300c0
000380
000e00
000000
000000
000000
000000
ENDCHAR
STARTCHAR 12399
ENCODING 12399
SWIDTH 520 0
DWIDTH 24 0
BBX 24 24 0 0
BITMAP
000000
000000
000000
000600
060380
030300
030310
0643e0
063fc0
061b00
040300
040300
040300
048300
050300
050300
071fc0
0723e0
032330
031e00
000000
000000
000000
000000
ENDCHAR
STARTCHAR 12400
ENCODING 12400
SWIDTH 520 0
DWIDTH 24 0
BBX 24 24 0 0
BITMAP
000000
000000
00001c
000c06
0c0732
060618
070608
0607c0
047f80
043600
0c0600
080600
080600
090600
0a0600
0a0600
0e3f80
0e47c0
064660
063c00
000000
000000
000000
000000
ENDCHAR
STARTCHAR 12401
ENCODING 12401
SWIDTH 520 0
DWIDTH 24 0
BBX 24 24 0 0
BITMAP
000000
000000
000000
000c18
0c0624
060624
060618
0687c0
047f80
043600
040600
080600
080600
090600
0a0600
0a0600
0e3f80
0e47c0
064660
063c00
000000
000000
000000
000000
ENDCHAR
STARTCHAR 12402
ENCODING 12402
SWIDTH 520 0
DWIDTH 24 0
BBX 24 24 0 0
BITMAP
000000
000000
000000
000000
00c0c0
01e0c0
0fc0c0
0680e0
0100b0
010098
02009c
02018c
060100
060100
060300
060300
060200
030e00
039c00
01f000
000000
800000
000000
000000
ENDCHAR
STARTCHAR 12403
ENCODING 12403
SWIDTH 520 0
DWIDTH 24 0
BBX 24 24 0 0
BITMAP
000000
000038
00000c
000004
0181b0
03c198
1f8188
0d01c0
020160
020130
040138
040318
0c0200
0c0200
0c0600
0c0600
0c0400
061c00
073800
03e000
000000
000000
000000
000000
ENDCHAR
STARTCHAR 12404
ENCODING 12404
SWIDTH 520 0
DWIDTH 24 0
BBX 24 24 0 0
BITMAP
000000
000018
000024
000024
018198
03c180
1f8180
0d01c0
020160
020130
040138
040318
0c0200
0c0200
0c0600
0c0600
0c0400
061c00
073800
03e000
000000
000000
000000
000000
ENDCHAR
STARTCHAR 12405
ENCODING 12405
SWIDTH 520 0
DWIDTH 24 0
BBX 24 24 0 0
BITMAP
000000
000000
000000
000000
003800
000c00
000c00
001800
002000
004000
006000
003000
001f00
0038e0
00cc30
210618
360678
3f0618
1cfc00
003800
000000
000000
000000
000000
ENDCHAR
STARTCHAR 12406
ENCODING 12406
SWIDTH 520 0
DWIDTH 24 0
BBX 24 24 0 0
BITMAP
000000
000000
0000e0
000030
007010
0019c0
001860
002020
004000
008000
00c000
006000
003e00
0071c0
009860
010c30
360cf0
3f0c30
1cf800
007000
000000
000000
000000
000000
ENDCHAR
STARTCHAR 12407
ENCODING 12407
SWIDTH 520 0
DWIDTH 24 0
BBX 24 24 0 0
BITMAP
000000
000000
000000
000060
007090
001890
001860
002000
004000
008000
00c000
006000
003e00
0071c0
009860
010c30
360cf0
3f0c30
1cf800
007000
000000
000000
000000
000000
ENDCHAR
STARTCHAR 12408
ENCODING 12408
SWIDTH 520 0
DWIDTH 24 0
BBX 24 24 0 0
BITMAP
000000
000000
000000
000000
000000
000000
000000
018000
03c000
067000
0c1c00
3c0f00
1803f0
0000fc
00001c
000000
000000
000000
000000
000000
000000
000000
000000
000000
ENDCHAR
STARTCHAR 12409
ENCODING 12409
SWIDTH 520 0
DWIDTH 24 0
BBX 24 24 0 0
BITMAP
000000
000000
000000
000000
0000e0
000030
000390
0000c0
018040
03c000
067000
0c1c00
3c0f00
1803f0
0000fc
00001c
000000
000000
000000
000000
000000
000000
000000
000000
ENDCHAR
STARTCHAR 12410
ENCODING 12410
SWIDTH 520 0
DWIDTH 24 0
BBX 24 24 0 0
BITMAP
000000
000000
000000
000000
000030
000048
000048
000030
018000
03c000
067000
0c1c00
3c0f00
1803f0
0000fc
00001c
000000
000000
000000
000000
000000
000000
000000
000000
ENDCHAR
STARTCHAR 12411
ENCODING 12411
SWIDTH 520 0
DWIDTH 24 0
BBX 24 24 0 0
BITMAP
000000
000000
000000
0000c0
023fe0
031f00
030200
060300
0603e0
047ff0
043b00
040300
040300
048300
050300
050300
071fe0
032170
032330
031e00
010000
000000
000000
000000
ENDCHAR
STARTCHAR 12412
ENCODING 12412
SWIDTH 520 0
DWIDTH 24 0
BBX 24 24 0 0
BITMAP
000000
00001c
000006
000032
000198
047fc8
063e00
060400
0c0600
0c07c0
08ff80
083600
080600
080600
090600
0a0600
0a0600
0e3fc0
0642e0
064660
063c00
020000
000000
000000
ENDCHAR
STARTCHAR 12413
ENCODING 12413
SWIDTH 520 0
DWIDTH 24 0
BBX 24 24 0 0
BITMAP
000000
000000
000018
000024
000324
047f98
063e00
060400
0c0600
0c07c0
08ff80
083600
080600
080200
090200
0a0200
0a0200
0e3fc0
0642e0
064660
063c00
020000
000000
000000
ENDCHAR
STARTCHAR 12414
ENCODING 12414
SWIDTH 520 0
DWIDTH 24 0
BBX 24 24 0 0
BITMAP
000000
000000
001800
000c00
000c00
000c00
020fc0
01ff80
00e800
000800
000fe0
07ffc0
03e800
000800
000800
000800
000c00
01fc00
020f00
021f80
023180
01c000
000000
000000
ENDCHAR
STARTCHAR 12415
ENCODING 12415
SWIDTH 520 0
DWIDTH 24 0
BBX 24 24 0 0
BITMAP
000000
000000
000000
000000
021000
03fc00
019800
001000
003300
0021c0
002180
00fd80
034380
0c83e0
088330
090618
0e0c00
0c1800
003000
004000
000000
000000
000000
000000
ENDCHAR
STARTCHAR 12416
ENCODING 12416
SWIDTH 520 0
DWIDTH 24 0
BBX 24 24 0 0
BITMAP
000000
000000
000000
018000
00c000
00cc00
10fc00
1ff800
0f80e0
008130
008118
03c178
04c110
0cc180
0cc180
0780c0
0100c0
0100c0
0301c0
01ffc0
00ff80
000000
000000
000000
ENDCHAR
STARTCHAR 12417
ENCODING 12417
SWIDTH 520 0
DWIDTH 24 0
BBX 24 24 0 0
BITMAP
000000
000000
000000
000c00
000600
030600
018600
019f00
01edc0
018c60
028830
04d818
04d018
087018
087018
08d818
0d8030
070030
060060
0000c0
000300
000000
000000
000000
ENDCHAR
STARTCHAR 12418
ENCODING 12418
SWIDTH 520 0
DWIDTH 24 0
BBX 24 24 0 0
BITMAP
000000
000000
003000
001800
001c00
001800
011000
00f000
007800
007800
01c000
024000
024100
03c080
01f8c0
007c40
004040
0040c0
0060c0
007180
003f00
001e00
000000
000000
ENDCHAR
STARTCHAR 12419
ENCODING 12419
SWIDTH 520 0
DWIDTH 24 0
BBX 24 24 0 0
BITMAP
000000
000000
000000
000000
000000
001c00
00c600
013600
018800
00c780
005c60
00f030
0fa230
0631e0
0018c0
000c00
000600
000600
000300
000300
000000
000000
000000
000000
ENDCHAR
STARTCHAR 12420
ENCODING 12420
SWIDTH 520 0
DWIDTH 24 0
BBX 24 24 0 0
BITMAP
000000
000000
000000
000000
001800
000c00
00c600
013c00
0107e0
009c10
00f018
1bc018
0f4418
0063f0
0031e0
001800
001800
000c00
000c00
000600
000600
000000
000000
000000
ENDCHAR
STARTCHAR 12421
ENCODING 12421
SWIDTH 520 0
DWIDTH 24 0
BBX 24 24 0 0
BITMAP
000000
000000
000000
000000
000000
001c00
062600
032f80
0336c0
062660
064660
04c660
054660
052660
0626c0
021c80
000f00
001800
003000
00c000
000000
000000
000000
000000
ENDCHAR
STARTCHAR 12422
ENCODING 12422
SWIDTH 520 0
DWIDTH 24 0
BBX 24 24 0 0
BITMAP
000000
000000
000000
000c00
0c1600
062780
072ee0
063620
044630
0cc630
08c630
094630
092630
0a2660
062460
061fc0
020f00
001800
003000
006000
018000
000000
000000
000000
ENDCHAR
STARTCHAR 12423
ENCODING 12423
SWIDTH 520 0
DWIDTH 24 0
BBX 24 24 0 0
BITMAP
000000
000000
000000
000000
000000
003000
001c00
001800
0019c0
001fe0
001800
001800
001800
001800
001800
00fc00
011b00
021180
0320c0
01c080
000000
000000
000000
000000
ENDCHAR
STARTCHAR 12424
ENCODING 12424
SWIDTH 520 0
DWIDTH 24 0
BBX 24 24 0 0
BITMAP
000000
000000
000000
003000
001c00
001c00
001800
001ce0
001ff0
001800
001800
001800
001800
001800
001800
001800
03ff00
041f80
0419c0
0630c0
03e000
000000
000000
000000
ENDCHAR
STARTCHAR 12425
ENCODING 12425
SWIDTH 520 0
DWIDTH 24 0
BBX 24 24 0 0
BITMAP
000000
000000
008000
006000
007000
006000
008000
030000
030000
030000
030000
030000
021f00
027180
0240c0
0380c0
0300c0
0100c0
000180
000700
001800
000000
000000
000000
ENDCHAR
STARTCHAR 12426
ENCODING 12426
SWIDTH 520 0
DWIDTH 24 0
BBX 24 24 0 0
BITMAP
000000
000000
018000
00e000
00ce00
00d100
00a180
00a180
00c180
00c180
00c180
00c180
00c180
004300
000300
000600
000600
000c00
000c00
001800
003000
00c000
000000
000000
ENDCHAR
STARTCHAR 12427
ENCODING 12427
SWIDTH 520 0
DWIDTH 24 0
BBX 24 24 0 0
BITMAP
000000
000000
000000
000600
001f00
01e600
00cc00
001800
001000
002000
004700
00d9c0
01e0e0
018060
030060
070060
061c60
0022c0
0023c0
002700
001c00
000000
000000
000000
ENDCHAR
STARTCHAR 12428
ENCODING 12428
SWIDTH 520 0
DWIDTH 24 0
BBX 24 24 0 0
BITMAP
000000
000000
000000
030000
01c000
018000
018700
01d980
1fa180
0fc180
018180
038180
038300
030300
070300
0d0300
0d0304
1d0188
1b01f8
0300e0
030000
000000
000000
000000
ENDCHAR
STARTCHAR 12429
ENCODING 12429
SWIDTH 520 0
DWIDTH 24 0
BBX 24 24 0 0
BITMAP
000000
000000
000000
000300
011f80
01f700
00c400
000800
001800
003700
007f80
0060c0
00c060
018060
030060
070060
060060
0000c0
000180
000f00
003800
000000
000000
000000
ENDCHAR
STARTCHAR 12430
ENCODING 12430
SWIDTH 520 0
DWIDTH 24 0
BBX 24 24 0 0
BITMAP
000000
000000
000000
000000
000000
00c000
006000
006000
007800
00f300
07ecc0
037060
006060
00e060
016060
0360c0
066080
0ce100
006600
004000
000000
000000
000000
000000
ENDCHAR
STARTCHAR 12431
ENCODING 12431
SWIDTH 520 0
DWIDTH 24 0
BBX 24 24 0 0
BITMAP
000000
000000
000000
000000
01c000
00e000
00c000
00f000
01e380
0fdc60
06e030
00c030
01c018
01c018
03c018
02c030
06c030
0cc060
19c0c0
08c300
008000
000000
000000
000000
ENDCHAR
STARTCHAR 12432
ENCODING 12432
SWIDTH 520 0
DWIDTH 24 0
BBX 24 24 0 0
BITMAP
000000
000000
000000
000000
007000
03f800
01d800
001000
001000
003f80
0060c0
01a060
034030
044030
0c4030
0c8630
0c8f30
0791e0
0711c0
030f80
000000
000000
000000
000000
ENDCHAR
STARTCHAR 12433
ENCODING 12433
SWIDTH 520 0
DWIDTH 24 0
BBX 24 24 0 0
BITMAP
000000
000000
000000
000000
013c00
01fc00
00d800
001000
007e00
00c300
018300
036300
06a600
007c00
008000
010180
0787e0
0ee830
1c7830
0830f0
000030
000000
000000
000000
ENDCHAR
STARTCHAR 12434
ENCODING 12434
SWIDTH 520 0
DWIDTH 24 0
BBX 24 24 0 0
BITMAP
000000
000000
002000
003000
003600
003e00
03f800
01e000
00c0c0
0083e0
01f260
031c60
0719c0
061b00
001c00
003800
00d800
011800
010000
00ff80
007f80
000000
000000
000000
ENDCHAR
STARTCHAR 12435
ENCODING 12435
SWIDTH 520 0
DWIDTH 24 0
BBX 24 24 0 0
BITMAP
000000
000000
000000
00e000
007000
007000
006000
006000
00c000
008000
008000
013800
01cc00
038c00
030c08
060c10
060c20
0c0ce0
0c0fc0
180700
000000
000000
000000
000000
ENDCHAR
STARTCHAR 12449
ENCODING 12449
SWIDTH 520 0
DWIDTH 24 0
BBX 24 24 0 0
BITMAP
000000
000000
000000
000000
000000
000e00
007b00
03e180
018300
000600
003800
001800
001800
001000
003000
002000
006000
004000
008000
010000
000000
000000
000000
000000
ENDCHAR
STARTCHAR 12450
ENCODING 12450
SWIDTH 520 0
DWIDTH 24 0
BBX 24 24 0 0
BITMAP
000000
000000
000000
000700
107fc0
0ff0e0
0700e0
0001c0
002300
001c00
001800
001800
001000
003000
003000
006000
004000
00c000
018000
010000
020000
000000
000000
000000
ENDCHAR
STARTCHAR 12451
ENCODING 12451
SWIDTH 520 0
DWIDTH 24 0
BBX 24 24 0 0
BITMAP
000000
000000
000000
000600
000700
000600
000c00
000c00
001800
003000
007800
00d800
011800
021800
001800
001800
001800
001800
001800
001800
000800
000000
000000
000000
ENDCHAR
STARTCHAR 12452
ENCODING 12452
SWIDTH 520 0
DWIDTH 24 0
BBX 24 24 0 0
BITMAP
000000
000000
000600
000700
000700
000e00
000c00
001800
003000
007000
00d800
019800
031800
061800
081800
001800
001800
001800
001800
001800
001800
000800
000000
000000
ENDCHAR
STARTCHAR 12453
ENCODING 12453
SWIDTH 520 0
DWIDTH 24 0
BBX 24 24 0 0
BITMAP
000000
000000
000000
001000
003c00
001800
001980
011fc0
01f980
01c180
018180
018180
000300
000300
000600
000600
000c00
001800
006000
018000
000000
000000
000000
000000
ENDCHAR
STARTCHAR 12454
ENCODING 12454
SWIDTH 520 0
DWIDTH 24 0
BBX 24 24 0 0
BITMAP
000000
001000
003800
001c00
001800
001880
021be0
03fec0
03e0c0
0300c0
0300c0
0300c0
0300c0
000180
000180
000300
000300
000600
000c00
001800
006000
018000
000000
000000
ENDCHAR
STARTCHAR 12455
ENCODING 12455
SWIDTH 520 0
DWIDTH 24 0
BBX 24 24 0 0
BITMAP
000000
000000
000000
000000
000000
000000
000000
020700
01ff80
00d800
001800
001800
001800
2019e0
1ffff0
0f8010
000000
000000
000000
000000
000000
000000
000000
000000
ENDCHAR
STARTCHAR 12456
ENCODING 12456
SWIDTH 520 0
DWIDTH 24 0
BBX 24 24 0 0
BITMAP
000000
000000
000000
000000
000000
000000
040380
03ffc0
01f800
001c00
001c00
001800
001800
001800
203bf8
1ffffc
0f800c
000000
000000
000000
000000
000000
000000
000000
ENDCHAR
STARTCHAR 12457
ENCODING 12457
SWIDTH 520 0
DWIDTH 24 0
BBX 24 24 0 0
BITMAP
000000
000000
000000
000000
001800
000e00
000c00
000c00
000dc0
083fe0
07fc00
033c00
006c00
00cc00
018c00
020c00
0c0c00
007c00
001c00
000800
000000
000000
000000
000000
ENDCHAR
STARTCHAR 12458
ENCODING 12458
SWIDTH 520 0
DWIDTH 24 0
BBX 24 24 0 0
BITMAP
000000
000000
000800
001c00
000e00
000c00
000c00
000ce0
103ff0
0ffc00
063c00
006c00
006c00
00cc00
018c00
030c00
060c00
180c00
007c00
001c00
000800
000000
000000
000000
ENDCHAR
STARTCHAR 12459
ENCODING 12459
SWIDTH 520 0
DWIDTH 24 0
BBX 24 24 0 0
BITMAP
000000
000000
000000
000000
001800
000e00
000c00
000c80
040fc0
03fce0
0198c0
0018c0
0030c0
003180
006180
006180
00c300
019300
030e00
0c0400
000000
000000
000000
000000
ENDCHAR
STARTCHAR 12460
ENCODING 12460
SWIDTH 520 0
DWIDTH 24 0
BBX 24 24 0 0
BITMAP
000000
000000
000038
00000c
003004
001c70
001818
001908
081f80
07f9c0
033180
003180
006180
006300
00c300
00c300
018600
032600
061c00
080800
000000
000000
000000
000000
ENDCHAR
STARTCHAR 12461
ENCODING 12461
SWIDTH 520 0
DWIDTH 24 0
BBX 24 24 0 0
BITMAP
000000
000000
000000
01c000
00c000
006000
006700
002f80
087c00
07f000
039800
0018f0
000de0
000f00
10fe00
0fe600
070300
000300
000180
000180
0000c0
0000c0
000000
000000
ENDCHAR
STARTCHAR 12462
ENCODING 12462
SWIDTH 520 0
DWIDTH 24 0
BBX 24 24 0 0
BITMAP
000000
000000
0000e0
000030
038390
0180c0
00c040
00c700
005f00
10f800
0fe000
0733c0
003780
003c00
10f800
0f8c00
060c00
000600
000600
000300
000300
000000
000000
000000
ENDCHAR
STARTCHAR 12463
ENCODING 12463
SWIDTH 520 0
DWIDTH 24 0
BBX 24 24 0 0
BITMAP
000000
000000
000000
007000
003800
003000
0030c0
007fe0
006ec0
00c0c0
00c0c0
018180
030180
040300
000300
000600
000c00
001800
003000
006000
018000
060000
000000
000000
ENDCHAR
STARTCHAR 12464
ENCODING 12464
SWIDTH 520 0
DWIDTH 24 0
BBX 24 24 0 0
BITMAP
000000
000000
000070
000018
000008
00e0e0
007030
006310
00ff80
00db00
018300
018300
030600
060600
080c00
000c00
001800
003000
006000
00c000
030000
0c0000
000000
000000
ENDCHAR
STARTCHAR 12465
ENCODING 12465
SWIDTH 520 0
DWIDTH 24 0
BBX 24 24 0 0
BITMAP
000000
000000
000000
003000
003800
003000
006070
0067f8
00ff80
00c180
018300
030300
040300
000600
000600
000c00
000c00
001800
003000
00c000
030000
040000
000000
000000
ENDCHAR
STARTCHAR 12466
ENCODING 12466
SWIDTH 520 0
DWIDTH 24 0
BBX 24 24 0 0
BITMAP
000000
000000
000038
00000c
00c064
006030
006010
00c0c0
00cfe0
01ff00
018300
030600
060600
080600
000c00
000c00
001800
001800
003000
006000
018000
060000
000000
000000
ENDCHAR
STARTCHAR 12467
ENCODING 12467
SWIDTH 520 0
DWIDTH 24 0
BBX 24 24 0 0
BITMAP
000000
000000
000000
000000
000000
000000
0403c0
03ffe0
01f0c0
0000c0
000180
000180
000180
000300
000300
080780
07ffc0
03f000
000000
000000
000000
000000
000000
000000
ENDCHAR
STARTCHAR 12468
ENCODING 12468
SWIDTH 520 0
DWIDTH 24 0
BBX 24 24 0 0
BITMAP
000000
000000
000038
00000c
000064
000030
000010
0207c0
01ffe0
00f8c0
0000c0
0000c0
000180
000180
000300
000300
040780
03ffc0
01f000
000000
000000
000000
000000
000000
ENDCHAR
STARTCHAR 12469
ENCODING 12469
SWIDTH 520 0
DWIDTH 24 0
BBX 24 24 0 0
BITMAP
000000
000000
000000
000600
018300
00c300
00c300
00c300
00c370
20fff8
1ff300
0ec300
00c600
00c600
00c600
000c00
000c00
001800
003000
006000
018000
000000
000000
000000
ENDCHAR
STARTCHAR 12470
ENCODING 12470
SWIDTH 520 0
DWIDTH 24 0
BBX 24 24 0 0
BITMAP
000000
000000
000038
00000c
000ce4
030630
018610
018600
018600
0186e0
41fff0
3fe600
1d8600
018c00
018c00
018c00
001800
001800
003000
006000
00c000
010000
000000
000000
ENDCHAR
STARTCHAR 12471
ENCODING 12471
SWIDTH 520 0
DWIDTH 24 0
BBX 24 24 0 0
BITMAP
000000
000000
000000
00c000
007000
003800
001800
001000
000000
000000
006000
003808
001810
001060
0000c0
000180
000300
008e00
00fc00
007800
002000
000000
000000
000000
ENDCHAR
STARTCHAR 12472
ENCODING 12472
SWIDTH 520 0
DWIDTH 24 0
BBX 24 24 0 0
BITMAP
000000
000000
000038
00000c
0060e4
003830
001c10
000c00
000800
018000
00e010
006020
0060c0
000180
000300
000600
011c00
01f800
00f000
004000
000000
000000
000000
000000
ENDCHAR
STARTCHAR 12473
ENCODING 12473
SWIDTH 520 0
DWIDTH 24 0
BBX 24 24 0 0
BITMAP
000000
000000
000000
000000
000000
000180
080fc0
07fb80
03e300
000300
000600
000600
000c00
000c00
001b80
0030e0
006070
00c030
018020
060000
000000
000000
000000
000000
ENDCHAR
STARTCHAR 12474
ENCODING 12474
SWIDTH 520 0
DWIDTH 24 0
BBX 24 24 0 0
BITMAP
000000
000000
000038
00000c
0000e4
000630
083f10
07ee00
03cc00
000c00
001800
003000
003000
006e00
00c380
0181c0
0300c0
060080
180000
000000
000000
000000
000000
000000
ENDCHAR
STARTCHAR 12475
ENCODING 12475
SWIDTH 520 0
DWIDTH 24 0
BBX 24 24 0 0
BITMAP
000000
000000
000000
007000
003800
003000
003000
003000
003030
0037f8
0fff38
07b060
0030c0
003180
003200
003000
003000
003800
001ff0
000ff0
000000
000000
000000
000000
ENDCHAR
STARTCHAR 12476
ENCODING 12476
SWIDTH 520 0
DWIDTH 24 0
BBX 24 24 0 0
BITMAP
000000
000000
000000
000038
00000c
00e0e4
007030
006010
006000
0060c0
106ff0
0ffcf0
066180
006300
006400
006000
006000
007000
003fe0
001fe0
000000
000000
000000
000000
ENDCHAR
STARTCHAR 12477
ENCODING 12477
SWIDTH 520 0
DWIDTH 24 0
BBX 24 24 0 0
BITMAP
000000
000000
000000
000000
000000
000380
0001c0
0801c0
060180
030180
038300
018300
010600
000600
000c00
001800
003000
006000
018000
060000
180000
000000
000000
000000
ENDCHAR
STARTCHAR 12478
ENCODING 12478
SWIDTH 520 0
DWIDTH 24 0
BBX 24 24 0 0
BITMAP
000000
000000
000038
00000c
0000e4
000030
000010
000380
0001c0
080180
060180
030300
038300
018600
010600
000c00
001800
003000
006000
018000
060000
000000
000000
000000
ENDCHAR
STARTCHAR 12479
ENCODING 12479
SWIDTH 520 0
DWIDTH 24 0
BBX 24 24 0 0
BITMAP
000000
000000
000000
007000
003800
003800
003180
007fc0
006d80
00c180
008180
01b300
031b00
040700
000780
000d80
001900
003000
006000
018000
060000
000000
000000
000000
ENDCHAR
STARTCHAR 12480
ENCODING 12480
SWIDTH 520 0
DWIDTH 24 0
BBX 24 24 0 0
BITMAP
000000
000000
000070
000018
000008
00e0e0
007030
006310
00ff80
00db00
018300
010300
036600
063600
080e00
000f00
001b00
003200
006000
00c000
030000
0c0000
000000
000000
ENDCHAR
STARTCHAR 12481
ENCODING 12481
SWIDTH 520 0
DWIDTH 24 0
BBX 24 24 0 0
BITMAP
000000
000000
000000
001c00
000e00
001c00
007000
01d800
001800
0019f0
007ff8
1ff800
0f1800
001800
001800
003000
003000
006000
00c000
030000
0c0000
000000
000000
000000
ENDCHAR
STARTCHAR 12482
ENCODING 12482
SWIDTH 520 0
DWIDTH 24 0
BBX 24 24 0 0
BITMAP
000000
000000
000038
001c0c
000e04
001c70
007018
01d808
001800
0019e0
007ff0
1ff800
0e1800
001800
001800
003000
003000
006000
00c000
030000
0c0000
000000
000000
000000
ENDCHAR
STARTCHAR 12483
ENCODING 12483
SWIDTH 520 0
DWIDTH 24 0
BBX 24 24 0 0
BITMAP
000000
000000
000000
000000
000000
000000
003000
001980
0318e0
0190c0
0180c0
010180
000300
000600
000c00
001800
003000
00c000
030000
000000
000000
000000
000000
000000
ENDCHAR
STARTCHAR 12484
ENCODING 12484
SWIDTH 520 0
DWIDTH 24 0
BBX 24 24 0 0
BITMAP
000000
000000
000000
000000
000000
0060e0
003870
0c1870
071860
0310c0
0200c0
000180
000180
000300
000600
000c00
001800
006000
018000
060000
000000
000000
000000
000000
ENDCHAR
STARTCHAR 12485
ENCODING 12485
SWIDTH 520 0
DWIDTH 24 0
BBX 24 24 0 0
BITMAP
000000
00001c
000006
000002
000038
00000c
006004
0038c0
0c1870
071860
0310c0
0200c0
000180
000180
000300
000600
000c00
001800
006000
018000
000000
000000
000000
000000
ENDCHAR
STARTCHAR 12486
ENCODING 12486
SWIDTH 520 0
DWIDTH 24 0
BBX 24 24 0 0
BITMAP
000000
000000
000000
000000
001f80
07ffc0
03e000
000000
0003f0
00fff8
1ffc00
0f0c00
000c00
001800
001800
003000
003000
006000
00c000
018000
030000
0c0000
000000
000000
ENDCHAR
STARTCHAR 12487
ENCODING 12487
SWIDTH 520 0
DWIDTH 24 0
BBX 24 24 0 0
BITMAP
000000
000000
000070
000018
000008
003e70
07ff18
03c008
000000
0007e0
01fff0
1ff800
0e1800
001800
003000
003000
006000
006000
00c000
018000
030000
0c0000
000000
000000
ENDCHAR
STARTCHAR 12488
ENCODING 12488
SWIDTH 520 0
DWIDTH 24 0
BBX 24 24 0 0
BITMAP
000000
000000
000000
007000
003800
003000
003000
003000
003000
003c00
003700
003380
003180
003180
003000
003000
003000
003000
003000
003000
003000
001000
000000
000000
ENDCHAR
STARTCHAR 12489
ENCODING 12489
SWIDTH 520 0
DWIDTH 24 0
BBX 24 24 0 0
BITMAP
000000
000000
000000
00c1c0
007060
006720
006180
006080
006000
006000
007800
006e00
006700
006300
006300
006000
006000
006000
006000
006000
006000
002000
000000
000000
ENDCHAR
STARTCHAR 12490
ENCODING 12490
SWIDTH 520 0
DWIDTH 24 0
BBX 24 24 0 0
BITMAP
000000
000000
000000
003800
001c00
001800
001800
001800
001bf0
1ffff8
0fd800
001800
003000
003000
006000
006000
00c000
018000
030000
060000
0c0000
100000
000000
000000
ENDCHAR
STARTCHAR 12491
ENCODING 12491
SWIDTH 520 0
DWIDTH 24 0
BBX 24 24 0 0
BITMAP
000000
000000
000000
000000
000000
000000
000000
040780
03ffc0
01f800
000000
000000
000000
4007f8
3ffffc
1ff000
000000
000000
000000
000000
000000
000000
000000
000000
ENDCHAR
STARTCHAR 12492
ENCODING 12492
SWIDTH 520 0
DWIDTH 24 0
BBX 24 24 0 0
BITMAP
000000
000000
000000
000000
000000
000300
003f80
07e380
038300
000300
000700
00e600
003e00
000f00
001b80
0031c0
00e0c0
0180c0
060000
180000
000000
000000
000000
000000
ENDCHAR
STARTCHAR 12493
ENCODING 12493
SWIDTH 520 0
DWIDTH 24 0
BBX 24 24 0 0
BITMAP
000000
000000
003000
001800
000c00
000c00
000000
001e00
04f700
03cc00
010c00
001e00
003b80
0079c0
00d880
019800
031800
0c1800
301800
001800
003800
001000
000000
000000
ENDCHAR
STARTCHAR 12494
ENCODING 12494
SWIDTH 520 0
DWIDTH 24 0
BBX 24 24 0 0
BITMAP
000000
000000
000000
000000
000000
000700
000380
000380
000700
000600
000e00
000c00
001c00
001800
003000
006000
00c000
018000
030000
0c0000
000000
000000
000000
000000
ENDCHAR
STARTCHAR 12495
ENCODING 12495
SWIDTH 520 0
DWIDTH 24 0
BBX 24 24 0 0
BITMAP
000000
000000
000000
000000
000000
000000
000000
01c000
00e600
006180
00c0c0
00c060
018070
030030
060030
0c0020
300000
000000
000000
000000
000000
000000
000000
000000
ENDCHAR
STARTCHAR 12496
ENCODING 12496
SWIDTH 520 0
DWIDTH 24 0
BBX 24 24 0 0
BITMAP
000000
000000
000000
000038
00000c
0000e4
000030
01c010
00e600
006180
00c0c0
00c060
018070
030030
060030
0c0020
300000
000000
000000
000000
000000
000000
000000
000000
ENDCHAR
STARTCHAR 12497
ENCODING 12497
SWIDTH 520 0
DWIDTH 24 0
BBX 24 24 0 0
BITMAP
000000
000000
000000
000018
000024
000024
000018
01c000
00e600
006180
00c0c0
00c060
018070
030030
060030
0c0020
300000
000000
000000
000000
000000
000000
000000
000000
ENDCHAR
STARTCHAR 12498
ENCODING 12498
SWIDTH 520 0
DWIDTH 24 0
BBX 24 24 0 0
BITMAP
000000
000000
000000
000000
01c000
00e000
00c000
00c000
00c380
00cfc0
00fc00
00c000
00c000
00c000
00c000
00c000
00e000
007fe0
003fe0
000000
000000
000000
000000
000000
ENDCHAR
STARTCHAR 12499
ENCODING 12499
SWIDTH 520 0
DWIDTH 24 0
BBX 24 24 0 0
BITMAP
000000
000000
0000e0
000030
000390
0380c0
01c040
018000
018700
019f00
01f800
018000
018000
018000
018000
01c000
00ffc0
007fc0
000000
000000
000000
000000
000000
000000
ENDCHAR
STARTCHAR 12500
ENCODING 12500
SWIDTH 520 0
DWIDTH 24 0
BBX 24 24 0 0
BITMAP
000000
000000
000000
000060
000090
038090
01c060
018000
018700
019f00
01f800
018000
018000
018000
018000
01c000
00ffc0
007fc0
000000
000000
000000
000000
000000
000000
ENDCHAR
STARTCHAR 12501
ENCODING 12501
SWIDTH 520 0
DWIDTH 24 0
BBX 24 24 0 0
BITMAP
000000
000000
000000
000000
000000
0003e0
087f70
0ffc60
0380c0
0000c0
000180
000180
000300
000300
000600
000c00
001800
003000
00c000
030000
040000
000000
000000
000000
ENDCHAR
STARTCHAR 12502
ENCODING 12502
SWIDTH 520 0
DWIDTH 24 0
BBX 24 24 0 0
BITMAP
000000
00001c
000006
000032
000018
000008
0007c0
10fee0
0ff8c0
070180
000180
000300
000300
000600
000600
000c00
001800
003000
006000
018000
060000
000000
000000
000000
ENDCHAR
STARTCHAR 12503
ENCODING 12503
SWIDTH 520 0
DWIDTH 24 0
BBX 24 24 0 0
BITMAP
000000
000018
000024
000024
000018
000000
0007c0
08fee0
0ff8c0
070180
000180
000300
000300
000600
000600
000c00
001800
003000
006000
018000
060000
000000
000000
000000
ENDCHAR
STARTCHAR 12504
ENCODING 12504
SWIDTH 520 0
DWIDTH 24 0
BBX 24 24 0 0
BITMAP
000000
000000
000000
000000
000000
000000
000000
018000
03c000
067000
0c1c00
3c0f00
1803f0
0000fc
00001c
000000
000000
000000
000000
000000
000000
000000
000000
000000
ENDCHAR
STARTCHAR 12505
ENCODING 12505
SWIDTH 520 0
DWIDTH 24 0
BBX 24 24 0 0
BITMAP
000000
000000
000000
000000
0000e0
000030
000390
0000c0
018040
03c000
067000
0c1c00
3c0f00
1803f0
0000fc
00001c
000000
000000
000000
000000
000000
000000
000000
000000
ENDCHAR
STARTCHAR 12506
ENCODING 12506
SWIDTH 520 0
DWIDTH 24 0
BBX 24 24 0 0
BITMAP
000000
000000
000000
000000
000030
000048
000048
000030
018000
03c000
067000
0c1c00
3c0f00
1803f0
0000fc
00001c
000000
000000
000000
000000
000000
000000
000000
000000
ENDCHAR
STARTCHAR 12507
ENCODING 12507
SWIDTH 520 0
DWIDTH 24 0
BBX 24 24 0 0
BITMAP
000000
000000
000000
000000
003800
001c00
001800
001800
1019c0
0fffe0
079800
001800
001800
021980
0218e0
061870
0e1830
1c9830
187820
003000
002000
000000
000000
000000
ENDCHAR
STARTCHAR 12508
ENCODING 12508
SWIDTH 520 0
DWIDTH 24 0
BBX 24 24 0 0
BITMAP
000000
000000
000038
00000c
007004
003870
003018
003008
1033c0
0fffe0
07b000
003000
003000
043300
0431c0
0c30e0
1c3060
193060
00f000
006000
004000
000000
000000
000000
ENDCHAR
STARTCHAR 12509
ENCODING 12509
SWIDTH 520 0
DWIDTH 24 0
BBX 24 24 0 0
BITMAP
000000
000000
000000
000030
007048
003848
003030
003000
103380
0fffc0
073000
003000
003000
043300
0431c0
0c30e0
1c3060
393060
00f000
006000
004000
000000
000000
000000
ENDCHAR
STARTCHAR 12510
ENCODING 12510
SWIDTH 520 0
DWIDTH 24 0
BBX 24 24 0 0
BITMAP
000000
000000
000000
000000
000000
000000
000000
0007e0
10fe70
0ff878
0700e0
0001c0
000300
00e600
003800
001c00
000e00
000e00
000600
000400
000000
000000
000000
000000
ENDCHAR
STARTCHAR 12511
ENCODING 12511
SWIDTH 520 0
DWIDTH 24 0
BBX 24 24 0 0
BITMAP
000000
000000
000000
007000
001e00
000700
000300
000200
01c000
007800
001c00
000e00
000600
000400
000000
01c000
007800
001c00
000e00
000700
000300
000300
000000
000000
ENDCHAR
STARTCHAR 12512
ENCODING 12512
SWIDTH 520 0
DWIDTH 24 0
BBX 24 24 0 0
BITMAP
000000
000000
000000
000000
000000
003000
001800
001c00
003000
003000
006000
006100
00c0c0
00c060
018070
030ff0
0fff38
07f018
020010
000000
000000
000000
000000
000000
ENDCHAR
STARTCHAR 12513
ENCODING 12513
SWIDTH 520 0
DWIDTH 24 0
BBX 24 24 0 0
BITMAP
000000
000000
000000
000700
000380
000180
000180
000180
000300
00e300
003b00
000e00
000f00
000d80
0019c0
0030c0
006080
00c000
030000
0c0000
000000
000000
000000
000000
ENDCHAR
STARTCHAR 12514
ENCODING 12514
SWIDTH 520 0
DWIDTH 24 0
BBX 24 24 0 0
BITMAP
000000
000000
000000
000000
000000
000780
047fc0
03f000
01b000
003000
0031f0
0037f8
20fe00
1fb000
0f3000
003000
003000
003800
001ff0
000ff0
000000
000000
000000
000000
ENDCHAR
STARTCHAR 12515
ENCODING 12515
SWIDTH 520 0
DWIDTH 24 0
BBX 24 24 0 0
BITMAP
000000
000000
000000
000000
000000
038000
01c000
00c180
0067c0
007ce0
08e080
07b100
031000
001800
000800
000c00
000400
000600
000300
000200
000000
000000
000000
000000
ENDCHAR
STARTCHAR 12516
ENCODING 12516
SWIDTH 520 0
DWIDTH 24 0
BBX 24 24 0 0
BITMAP
000000
000000
000000
000000
038000
01c000
00c000
00c0e0
0067f0
007c38
10e060
0fb080
061000
001800
000800
000c00
000400
000600
000200
000300
000180
000100
000000
000000
ENDCHAR
STARTCHAR 12517
ENCODING 12517
SWIDTH 520 0
DWIDTH 24 0
BBX 24 24 0 0
BITMAP
000000
000000
000000
000000
000000
000000
000000
000000
020600
01ff00
00c300
000600
000600
000c00
100dc0
0fffe0
078020
000000
000000
000000
000000
000000
000000
000000
ENDCHAR
STARTCHAR 12518
ENCODING 12518
SWIDTH 520 0
DWIDTH 24 0
BBX 24 24 0 0
BITMAP
000000
000000
000000
000000
000000
000000
000000
020300
01ff80
00e380
000300
000300
000600
000600
000c00
20fff0
1ffff8
0f0008
040000
000000
000000
000000
000000
000000
ENDCHAR
STARTCHAR 12519
ENCODING 12519
SWIDTH 520 0
DWIDTH 24 0
BBX 24 24 0 0
BITMAP
000000
000000
000000
000000
000000
000000
000000
000780
01ffc0
00e180
000180
000f80
01ff80
00e300
000300
000f00
01f780
00e000
000000
000000
000000
000000
000000
000000
ENDCHAR
STARTCHAR 12520
ENCODING 12520
SWIDTH 520 0
DWIDTH 24 0
BBX 24 24 0 0
BITMAP
000000
000000
000000
000000
000000
000080
040fc0
03fee0
01f0c0
0000c0
040fc0
03ffc0
01f0c0
000180
000180
040fc0
03ffe0
01f000
000000
000000
000000
000000
000000
000000
ENDCHAR
STARTCHAR 12521
ENCODING 12521
SWIDTH 520 0
DWIDTH 24 0
BBX 24 24 0 0
BITMAP
000000
000000
000000
000700
01ff80
00f000
000000
0000c0
001fe0
07fee0
03e0c0
0100c0
000180
000180
000300
000300
000600
000c00
001800
003000
00c000
030000
000000
000000
ENDCHAR
STARTCHAR 12522
ENCODING 12522
SWIDTH 520 0
DWIDTH 24 0
BBX 24 24 0 0
BITMAP
000000
000000
000600
000380
018300
00e300
00c300
00c300
00c300
00c300
00c300
00c300
00c300
00c200
000600
000600
000400
000c00
001800
003000
006000
018000
000000
000000
ENDCHAR
STARTCHAR 12523
ENCODING 12523
SWIDTH 520 0
DWIDTH 24 0
BBX 24 24 0 0
BITMAP
000000
000000
000000
000000
000e00
018700
00e600
00e600
00c600
00c600
018600
018602
018604
030618
030630
0606e0
0c07c0
180f00
200600
000000
000000
000000
000000
000000
ENDCHAR
STARTCHAR 12524
ENCODING 12524
SWIDTH 520 0
DWIDTH 24 0
BBX 24 24 0 0
BITMAP
000000
000000
000000
008000
01c000
00e000
00e000
00c000
00c000
00c000
00c000
00c008
00c030
00c0e0
00c1c0
00c700
00de00
00f800
01e000
00c000
000000
000000
000000
000000
ENDCHAR
STARTCHAR 12525
ENCODING 12525
SWIDTH 520 0
DWIDTH 24 0
BBX 24 24 0 0
BITMAP
000000
000000
000000
000000
000000
000000
0003c0
067fe0
03f8e0
0300c0
0300c0
030180
030180
030180
030300
03ff80
03ffc0
010000
000000
000000
000000
000000
000000
000000
ENDCHAR
STARTCHAR 12526
ENCODING 12526
SWIDTH 520 0
DWIDTH 24 0
BBX 24 24 0 0
BITMAP
000000
000000
000000
000000
000000
000300
031f80
01f1c0
018180
018180
018180
008300
000300
000600
000600
000c00
001800
002000
00c000
000000
000000
000000
000000
000000
ENDCHAR
STARTCHAR 12527
ENCODING 12527
SWIDTH 520 0
DWIDTH 24 0
BBX 24 24 0 0
BITMAP
000000
000000
000000
000000
0007c0
067fe0
03f0e0
0300c0
0300c0
0300c0
030180
030180
030300
000300
000600
000600
000c00
001800
003000
006000
018000
000000
000000
000000
ENDCHAR
STARTCHAR 12528
ENCODING 12528
SWIDTH 520 0
DWIDTH 24 0
BBX 24 24 0 0
BITMAP
000000
000000
001c00
000e00
000c00
000c00
020d80
01ffc0
018c00
018c00
018c00
008de0
009ff0
23fc00
1f8c00
0c0c00
000c00
000c00
000c00
000c00
000c00
000400
000000
000000
ENDCHAR
STARTCHAR 12529
ENCODING 12529
SWIDTH 520 0
DWIDTH 24 0
BBX 24 24 0 0
BITMAP
000000
000000
000000
000000
000000
000000
000f80
03f9c0
01c3c0
000300
003c00
001800
001800
001800
001800
007ff8
3ff87c
1f0000
000000
000000
000000
000000
000000
000000
ENDCHAR
STARTCHAR 12530
ENCODING 12530
SWIDTH 520 0
DWIDTH 24 0
BBX 24 24 0 0
BITMAP
000000
000000
000000
000000
000040
000ff0
07ff60
03c060
000060
000060
003fc0
07ffc0
0380c0
000180
000180
000300
000300
000600
000c00
001800
003000
00c000
000000
000000
ENDCHAR
STARTCHAR 12531
ENCODING 12531
SWIDTH 520 0
DWIDTH 24 0
BBX 24 24 0 0
BITMAP
000000
000000
000000
000000
018000
00e000
007000
003008
003030
000060
0000c0
000180
000300
000e00
001c00
047000
07e000
03c000
010000
000000
000000
000000
000000
000000
ENDCHAR
STARTCHAR 12532
ENCODING 12532
SWIDTH 520 0
DWIDTH 24 0
BBX 24 24 0 0
BITMAP
000000
000000
002070
007818
0030c8
003060
003320
047f80
07e180
060180
060180
060300
060300
020300
000600
000600
000c00
001800
003000
006000
00c000
030000
000000
000000
ENDCHAR
STARTCHAR 12533
ENCODING 12533
SWIDTH 520 0
DWIDTH 24 0
BBX 24 24 0 0
BITMAP
000000
000000
000000
000000
000000
003800
001c00
001800
001980
003fc0
03f9c0
019980
003180
003180
006180
00c300
019f00
020600
040400
000000
000000
000000
000000
000000
ENDCHAR
STARTCHAR 12534
ENCODING 12534
SWIDTH 520 0
DWIDTH 24 0
BBX 24 24 0 0
BITMAP
000000
000000
000000
000000
003000
003800
003000
0060c0
0067e0
00ff00
008300
010300
020600
000600
000c00
000c00
001800
003000
00c000
018000
020000
000000
000000
000000
ENDCHAR
STARTCHAR 12539
ENCODING 12539
SWIDTH 520 0
DWIDTH 24 0
BBX 24 24 0 0
BITMAP
000000
000000
000000
000000
000000
000000
000000
000000
000000
000000
001800
003c00
003c00
001800
000000
000000
000000
000000
000000
000000
000000
000000
000000
000000
ENDCHAR
STARTCHAR 12549
ENCODING 12549
SWIDTH 520 0
DWIDTH 24 0
BBX 24 24 0 0
BITMAP
000000
000000
000000
010000
01c000
018000
030000
030040
07fff0
020060
000060
000060
000060
000060
0000c0
0000c0
0000c0
0000c0
000d80
000700
000200
000000
000000
000000
ENDCHAR
STARTCHAR 12550
ENCODING 12550
SWIDTH 520 0
DWIDTH 24 0
BBX 24 24 0 0
BITMAP
000000
000000
000000
004000
007000
006000
00c000
00c080
01ffe0
0080c0
0000c0
0000c0
001180
000d80
000700
000300
000780
000cc0
0018c0
006040
018000
000000
000000
000000
ENDCHAR
STARTCHAR 12551
ENCODING 12551
SWIDTH 520 0
DWIDTH 24 0
BBX 24 24 0 0
BITMAP
000000
000000
000000
000000
000000
040040
07fff0
060060
060060
060060
060060
060060
060060
060060
060060
060060
060060
060060
040040
000000
000000
000000
000000
000000
ENDCHAR
STARTCHAR 12552
ENCODING 12552
SWIDTH 520 0
DWIDTH 24 0
BBX 24 24 0 0
BITMAP
000000
000000
000000
000000
000000
07ffc0
030000
030000
030000
030000
030000
030000
030000
030000
030000
030000
038000
01fff0
00fff0
000000
000000
000000
000000
000000
ENDCHAR
STARTCHAR 12553
ENCODING 12553
SWIDTH 520 0
DWIDTH 24 0
BBX 24 24 0 0
BITMAP
000000
000000
000000
008000
00e000
00c000
018000
018080
03ffe0
0120c0
0038c0
0030c0
0060c0
0060c0
00c0c0
00c0c0
0180c0
0180c0
030d80
040700
080200
000000
000000
000000
ENDCHAR
STARTCHAR 12554
ENCODING 12554
SWIDTH 520 0
DWIDTH 24 0
BBX 24 24 0 0
BITMAP
000000
000000
000000
001000
001c00
001800
001800
001800
0ffff0
003000
003000
006000
006000
00c200
00c180
0180c0
030fe0
07f060
038060
000040
000000
000000
000000
000000
ENDCHAR
STARTCHAR 12555
ENCODING 12555
SWIDTH 520 0
DWIDTH 24 0
BBX 24 24 0 0
BITMAP
000000
000000
000000
000000
000400
00ff00
0f0600
000600
000c00
000c00
001880
003fe0
0010c0
0000c0
0000c0
0000c0
0000c0
000180
000d80
000700
000200
000000
000000
000000
ENDCHAR
STARTCHAR 12556
ENCODING 12556
SWIDTH 520 0
DWIDTH 24 0
BBX 24 24 0 0
BITMAP
000000
000000
000000
000400
000700
008600
00c600
008400
018c00
010c40
010bf0
03fc60
011860
001860
003060
0030c0
0060c0
00c0c0
018d80
020700
000200
000000
000000
000000
ENDCHAR
STARTCHAR 12557
ENCODING 12557
SWIDTH 520 0
DWIDTH 24 0
BBX 24 24 0 0
BITMAP
000000
000000
000000
004100
006180
004100
00c300
008200
008200
010400
010400
020800
020800
010400
008200
00c300
006180
0030c0
0030c0
001040
000000
000000
000000
000000
ENDCHAR
STARTCHAR 12558
ENCODING 12558
SWIDTH 520 0
DWIDTH 24 0
BBX 24 24 0 0
BITMAP
000000
000000
000000
000000
0001c0
1fffe0
008000
00c000
00c000
018000
018200
03ff80
010300
000300
000300
000300
000300
000600
003600
001c00
000800
000000
000000
000000
ENDCHAR
STARTCHAR 12559
ENCODING 12559
SWIDTH 520 0
DWIDTH 24 0
BBX 24 24 0 0
BITMAP
000000
000000
000000
000000
0001f0
003f00
03e000
00c000
00c000
00c000
00c000
00c000
00c000
00c000
008000
018000
018000
030000
060000
0c0000
100000
000000
000000
000000
ENDCHAR
STARTCHAR 12560
ENCODING 12560
SWIDTH 520 0
DWIDTH 24 0
BBX 24 24 0 0
BITMAP
000000
000000
000000
000000
000200
000380
008300
00e300
00c300
00c300
00c300
018300
018300
018700
019b00
03e300
010300
000300
000300
000300
000200
000000
000000
000000
ENDCHAR
STARTCHAR 12561
ENCODING 12561
SWIDTH 520 0
DWIDTH 24 0
BBX 24 24 0 0
BITMAP
000000
000000
000000
000000
000400
000600
000c00
000800
001000
002000
002000
004000
004000
003000
001800
000c00
000600
000300
000300
000100
000000
000000
000000
000000
ENDCHAR
STARTCHAR 12562
ENCODING 12562
SWIDTH 520 0
DWIDTH 24 0
BBX 24 24 0 0
BITMAP
000000
000000
000000
000000
000060
0ffff0
001800
001800
001800
001800
001800
001800
001800
001800
001800
001800
001800
001800
001800
001800
001000
000000
000000
000000
ENDCHAR
STARTCHAR 12563
ENCODING 12563
SWIDTH 520 0
DWIDTH 24 0
BBX 24 24 0 0
BITMAP
000000
000000
000000
003000
001c00
001800
0c18c0
071870
061860
061860
061860
061860
061860
0fffe0
041840
001800
001800
001800
001800
1ffff8
000000
000000
000000
000000
ENDCHAR
STARTCHAR 12564
ENCODING 12564
SWIDTH 520 0
DWIDTH 24 0
BBX 24 24 0 0
BITMAP
000000
000000
000000
000400
000700
000c00
001800
003200
006380
00c600
030c00
041800
003800
00d800
031800
041800
001800
001800
001800
001800
001000
000000
000000
000000
ENDCHAR
STARTCHAR 12565
ENCODING 12565
SWIDTH 520 0
DWIDTH 24 0
BBX 24 24 0 0
BITMAP
000000
000000
000000
000080
01ffe0
0000c0
0000c0
0000c0
0100c0
01ffc0
018000
018000
018000
018000
018000
030000
030000
020000
060000
0c0000
100000
000000
000000
000000
ENDCHAR
STARTCHAR 12566
ENCODING 12566
SWIDTH 520 0
DWIDTH 24 0
BBX 24 24 0 0
BITMAP
000000
000000
000000
000000
020100
03ffc0
030180
030180
030180
032180
033180
031980
031180
030180
030180
030180
030180
03ff80
030180
020100
000000
000000
000000
000000
ENDCHAR
STARTCHAR 12567
ENCODING 12567
SWIDTH 520 0
DWIDTH 24 0
BBX 24 24 0 0
BITMAP
000000
000000
000000
000100
07ffc0
00c180
00c180
00c180
00c180
00c180
00c180
00db00
00ce00
00c400
00c000
00c000
00c000
00c000
00c000
00c000
008000
000000
000000
000000
ENDCHAR
STARTCHAR 12568
ENCODING 12568
SWIDTH 520 0
DWIDTH 24 0
BBX 24 24 0 0
BITMAP
000000
000000
000000
001000
001c00
001800
001800
0ffff8
003000
003000
006040
00fff0
004060
000060
000060
0000c0
0000c0
000180
000180
000300
000200
000000
000000
000000
ENDCHAR
STARTCHAR 12569
ENCODING 12569
SWIDTH 520 0
DWIDTH 24 0
BBX 24 24 0 0
BITMAP
000000
000000
000000
000000
002000
003800
003000
003000
006000
006000
00c000
00c000
018000
018200
030180
0600c0
0c1fe0
1fe060
0e0060
000040
000000
000000
000000
000000
ENDCHAR
STARTCHAR 12570
ENCODING 12570
SWIDTH 520 0
DWIDTH 24 0
BBX 24 24 0 0
BITMAP
000000
000000
000000
000080
0400e0
0300c0
018180
00e100
006300
002600
001800
001800
001800
001800
001800
001800
001800
001800
001800
001800
001000
000000
000000
000000
ENDCHAR
STARTCHAR 12571
ENCODING 12571
SWIDTH 520 0
DWIDTH 24 0
BBX 24 24 0 0
BITMAP
000000
000000
000000
000000
0000e0
07fff0
001800
001800
001800
001800
00f800
010000
020000
020000
020000
020000
020000
020000
010180
00fe00
000000
000000
000000
000000
ENDCHAR
STARTCHAR 12572
ENCODING 12572
SWIDTH 520 0
DWIDTH 24 0
BBX 24 24 0 0
BITMAP
000000
000000
000000
003000
001c00
001800
001800
001800
1ffff8
001800
001800
000800
00f800
010000
020000
020000
020000
020000
0100c0
00ff00
000000
000000
000000
000000
ENDCHAR
STARTCHAR 12573
ENCODING 12573
SWIDTH 520 0
DWIDTH 24 0
BBX 24 24 0 0
BITMAP
000000
000000
000000
060600
038380
030300
030300
030300
0303f0
037f00
1f8600
030600
030600
030c00
031800
032000
038000
01ffe0
00ffe0
000000
000000
000000
000000
000000
ENDCHAR
STARTCHAR 12574
ENCODING 12574
SWIDTH 520 0
DWIDTH 24 0
BBX 24 24 0 0
BITMAP
000000
000000
000000
000000
000000
001ff0
0fe800
010c00
018c00
018c00
030c20
030ff8
07fc30
021830
001830
001860
003060
003060
0060c0
00c0c0
030180
000000
000000
000000
ENDCHAR
STARTCHAR 12575
ENCODING 12575
SWIDTH 520 0
DWIDTH 24 0
BBX 24 24 0 0
BITMAP
000000
000000
000000
002000
07f800
003000
003000
003000
003000
003000
003000
003000
001800
001800
001800
001800
000c00
000600
0003e0
000180
000000
000000
000000
000000
ENDCHAR
STARTCHAR 12576
ENCODING 12576
SWIDTH 520 0
DWIDTH 24 0
BBX 24 24 0 0
BITMAP
000000
000000
000000
002000
003800
003000
003000
006000
004200
00c380
018300
030600
07fc00
021800
003000
006000
00c100
030080
07ffc0
0380c0
000040
000000
000000
000000
ENDCHAR
STARTCHAR 12577
ENCODING 12577
SWIDTH 520 0
DWIDTH 24 0
BBX 24 24 0 0
BITMAP
000000
000000
000000
000080
03ffe0
0000c0
0000c0
0000c0
0000c0
00c180
003180
000d80
000700
000380
0007c0
000ce0
001860
003020
00c000
030000
0c0000
000000
000000
000000
ENDCHAR
STARTCHAR 12578
ENCODING 12578
SWIDTH 520 0
DWIDTH 24 0
BBX 24 24 0 0
BITMAP
000000
000000
000000
000100
07ffc0
000180
010180
01c300
018300
018640
03fff0
010060
000060
000060
0000c0
0000c0
0000c0
000180
000180
000300
000200
000000
000000
000000
ENDCHAR
STARTCHAR 12579
ENCODING 12579
SWIDTH 520 0
DWIDTH 24 0
BBX 24 24 0 0
BITMAP
000000
000000
000000
060000
038000
030000
030000
030000
060000
060000
060000
060040
0ffff0
040060
000060
000060
0000c0
0000c0
0000c0
000180
000180
000000
000000
000000
ENDCHAR
STARTCHAR 12580
ENCODING 12580
SWIDTH 520 0
DWIDTH 24 0
BBX 24 24 0 0
BITMAP
000000
000000
000000
002000
003800
003000
003000
003ff0
0ff600
006600
006600
006600
006600
00c600
00c600
00c600
018600
018700
0303f8
0601f8
180000
000000
000000
000000
ENDCHAR
STARTCHAR 12581
ENCODING 12581
SWIDTH 520 0
DWIDTH 24 0
BBX 24 24 0 0
BITMAP
000000
000000
000000
000000
004000
007000
006000
006000
006000
00c000
00c000
00c000
018000
018000
030000
020000
060000
0800e0
1ffff0
0e0000
000000
000000
000000
000000
ENDCHAR
STARTCHAR 12582
ENCODING 12582
SWIDTH 520 0
DWIDTH 24 0
BBX 24 24 0 0
BITMAP
000000
000000
000000
018c00
00c700
00c600
00c600
00c600
00c600
00c600
00c600
00c600
00c600
018610
018610
030610
030618
0607f8
0803f0
100000
000000
000000
000000
000000
ENDCHAR
STARTCHAR 12583
ENCODING 12583
SWIDTH 520 0
DWIDTH 24 0
BBX 24 24 0 0
BITMAP
000000
000000
000000
003000
001c00
001800
001800
001800
001800
001800
001800
001800
001800
001800
001800
001800
001800
001800
001800
001800
001000
000000
000000
000000
ENDCHAR
STARTCHAR 12584
ENCODING 12584
SWIDTH 520 0
DWIDTH 24 0
BBX 24 24 0 0
BITMAP
000000
000000
000000
000000
000100
0001c0
000180
000180
000300
030300
00c600
003600
001c00
000e00
001f00
003380
006180
00c080
030000
0c0000
000000
000000
000000
000000
ENDCHAR
STARTCHAR 12585
ENCODING 12585
SWIDTH 520 0
DWIDTH 24 0
BBX 24 24 0 0
BITMAP
000000
000000
000000
000000
000000
000040
020070
038060
030060
030060
030060
030060
030060
070060
060060
061fe0
0fe060
040040
000000
000000
000000
000000
000000
000000
ENDCHAR
STARTCHAR 12832
ENCODING 12832
SWIDTH 520 0
DWIDTH 24 0
BBX 24 24 0 0
BITMAP
000000
020040
040020
080010
180018
100008
30000c
200004
600006
600006
6000c6
67ffe6
600006
600006
600006
600006
200004
30000c
100008
180018
080010
040020
020040
000000
ENDCHAR
STARTCHAR 12833
ENCODING 12833
SWIDTH 520 0
DWIDTH 24 0
BBX 24 24 0 0
BITMAP
000000
020040
040020
080010
180018
100008
30018c
23ffc4
600006
600006
600006
600006
600006
600006
600006
6000c6
27ffe4
30000c
100008
180018
080010
040020
020040
000000
ENDCHAR
STARTCHAR 12834
ENCODING 12834
SWIDTH 520 0
DWIDTH 24 0
BBX 24 24 0 0
BITMAP
000000
020040
040020
080010
180018
100188
33ffcc
200004
600006
600006
600306
61ff86
600006
600006
600006
600006
2000c4
37ffec
100008
180018
080010
040020
020040
000000
ENDCHAR
STARTCHAR 12835
ENCODING 12835
SWIDTH 520 0
DWIDTH 24 0
BBX 24 24 0 0
BITMAP
000000
020040
040020
080010
180018
100008
37ffec
262464
662466
662466
662466
662466
664466
664566
668366
670066
260064
37ffec
160068
180018
080010
040020
020040
000000
ENDCHAR
STARTCHAR 12836
ENCODING 12836
SWIDTH 520 0
DWIDTH 24 0
BBX 24 24 0 0
BITMAP
000000
020040
040020
080010
180198
13ffc8
30300c
203004
603006
603006
606306
61ff86
606306
606306
606306
60c306
20c304
30c34c
17ffe8
180018
080010
040020
020040
000000
ENDCHAR
STARTCHAR 12837
ENCODING 12837
SWIDTH 520 0
DWIDTH 24 0
BBX 24 24 0 0
BITMAP
000000
020040
040020
080010
183018
101808
30180c
201004
600066
6ffff6
600006
608006
60e406
60c306
618186
6100c6
2300c4
3200cc
140088
180018
080010
040020
020040
000000
ENDCHAR
STARTCHAR 12838
ENCODING 12838
SWIDTH 520 0
DWIDTH 24 0
BBX 24 24 0 0
BITMAP
000000
020040
040020
080010
182018
103808
30300c
203004
603006
603046
6033e6
60fc06
6f3006
603006
603046
603046
203064
303fec
101fc8
180018
080010
040020
020040
000000
ENDCHAR
STARTCHAR 12839
ENCODING 12839
SWIDTH 520 0
DWIDTH 24 0
BBX 24 24 0 0
BITMAP
000000
020040
040020
080010
180018
100c08
30040c
204404
607406
606606
60c206
60c306
608306
618186
6101c6
6200f6
240044
30000c
100008
180018
080010
040020
020040
000000
ENDCHAR
STARTCHAR 12840
ENCODING 12840
SWIDTH 520 0
DWIDTH 24 0
BBX 24 24 0 0
BITMAP
000000
020040
040020
084010
187018
106008
30600c
206604
63ff06
606606
606606
606606
606626
60c626
60c626
618636
2107f4
3203ec
140008
180018
080010
040020
020040
000000
ENDCHAR
STARTCHAR 12841
ENCODING 12841
SWIDTH 520 0
DWIDTH 24 0
BBX 24 24 0 0
BITMAP
000000
020040
040020
080010
181018
101c08
30180c
201804
601806
601806
601866
6ffff6
601806
601806
601806
601806
201804
30180c
101808
181018
080010
040020
020040
000000
ENDCHAR
STARTCHAR 19968
ENCODING 19968
SWIDTH 520 0
DWIDTH 24 0
BBX 24 24 0 0
BITMAP
000000
000000
000000
000000
000000
000000
000000
000000
000000
000008
00001c
7ffffe
000000
000000
000000
000000
000000
000000
000000
000000
000000
000000
000000
000000
ENDCHAR
STARTCHAR 19969
ENCODING 19969
SWIDTH 520 0
DWIDTH 24 0
BBX 24 24 0 0
BITMAP
000000
000008
00001c
7ffffe
001800
001800
001800
001800
001800
001800
001800
001800
001800
001800
001800
001800
001800
001800
001800
001800
01f800
007000
002000
000000
ENDCHAR
STARTCHAR 19971
ENCODING 19971
SWIDTH 520 0
DWIDTH 24 0
BBX 24 24 0 0
BITMAP
000000
004000
007000
006000
006000
006000
006000
00600c
00601e
0061e0
007e00
07e000
786000
006000
006000
006008
006008
006008
00600c
00600e
007ffc
003ff8
000000
000000
ENDCHAR
STARTCHAR 19975
ENCODING 19975
SWIDTH 520 0
DWIDTH 24 0
BBX 24 24 0 0
BITMAP
000000
000008
00001c
3ffffe
006000
006000
006000
006000
006060
007ff0
006060
006060
006060
00c060
00c060
00c060
018060
018060
030060
0600e0
0c1fc0
100380
600100
000000
ENDCHAR
STARTCHAR 19976
ENCODING 19976
SWIDTH 520 0
DWIDTH 24 0
BBX 24 24 0 0
BITMAP
000800
000e00
000c00
000c00
000c00
000c0c
7ffffe
000c00
040c00
040c00
040c00
020c00
020c00
010800
019800
00d800
007000
007000
00dc00
018700
0703fe
1800f8
600010
000000
ENDCHAR
STARTCHAR 19977
ENCODING 19977
SWIDTH 520 0
DWIDTH 24 0
BBX 24 24 0 0
BITMAP
000000
000010
000038
3ffffc
000000
000000
000000
000000
000000
000020
000070
1ffff8
000000
000000
000000
000000
000000
000000
000008
00001c
7ffffe
000000
000000
000000
ENDCHAR
STARTCHAR 19978
ENCODING 19978
SWIDTH 520 0
DWIDTH 24 0
BBX 24 24 0 0
BITMAP
002000
003800
003000
003000
003000
003000
003000
003020
003070
003ff8
003000
003000
003000
003000
003000
003000
003000
003000
003000
003000
003008
00301c
7ffffe
000000
ENDCHAR
STARTCHAR 19979
ENCODING 19979
SWIDTH 520 0
DWIDTH 24 0
BBX 24 24 0 0
BITMAP
000000
000008
00001c
7ffffe
003000
003000
003000
003000
003000
003700
0031c0
0030e0
003060
003020
003000
003000
003000
003000
003000
003000
003000
003000
003000
002000
ENDCHAR
STARTCHAR 19980
ENCODING 19980
SWIDTH 520 0
DWIDTH 24 0
BBX 24 24 0 0
BITMAP
000000
000000
00000c
7ffffe
018180
018180
018180
018180
018180
018180
018180
018180
018180
018180
018180
018180
018180
030180
030180
060180
0c0180
180180
200180
400100
ENDCHAR
STARTCHAR 19981
ENCODING 19981
SWIDTH 520 0
DWIDTH 24 0
BBX 24 24 0 0
BITMAP
000000
000008
00001c
7ffffe
001c00
001800
001800
003000
007c00
007b00
00d980
0198e0
019870
031838
06181c
0c180e
181806
601804
001800
001800
001800
001800
001800
001000
ENDCHAR
STARTCHAR 19982
ENCODING 19982
SWIDTH 520 0
DWIDTH 24 0
BBX 24 24 0 0
BITMAP
020000
038000
030000
030010
030038
03fffc
030000
030000
030000
030030
07fff8
020030
000030
000030
000630
3fff30
000030
000030
000030
000030
000070
000fe0
0001c0
000080
ENDCHAR
STARTCHAR 19984
ENCODING 19984
SWIDTH 520 0
DWIDTH 24 0
BBX 24 24 0 0
BITMAP
000000
000008
00001c
7ffffe
001800
001800
081820
0e1870
0c1ff8
0c1800
0c1800
0c1800
0c1818
1ffffc
080018
000018
000018
000018
000030
000030
000070
0007e0
0001c0
000080
ENDCHAR
STARTCHAR 19985
ENCODING 19985
SWIDTH 520 0
DWIDTH 24 0
BBX 24 24 0 0
BITMAP
000000
000000
000060
1ffff0
003060
003060
003060
003060
003060
003060
003060
0fffe0
006060
006060
006060
006060
006060
006060
006060
006060
00606c
7ffffe
000000
000000
ENDCHAR
STARTCHAR 19987
ENCODING 19987
SWIDTH 520 0
DWIDTH 24 0
BBX 24 24 0 0
BITMAP
002000
003800
003000
003000
003060
1ffff0
006000
006000
00600c
7ffffe
00c000
00c000
018030
03fff8
010060
0000c0
000180
018300
007600
001c00
000f00
000780
000180
000080
ENDCHAR
STARTCHAR 19988
ENCODING 19988
SWIDTH 520 0
DWIDTH 24 0
BBX 24 24 0 0
BITMAP
000000
0200c0
03ffe0
0300c0
0300c0
0300c0
0300c0
0300c0
03ffc0
0300c0
0300c0
0300c0
0300c0
0300c0
03ffc0
0300c0
0300c0
0300c0
0300c0
0300c0
0300cc
7ffffe
000000
000000
ENDCHAR
STARTCHAR 19989
ENCODING 19989
SWIDTH 520 0
DWIDTH 24 0
BBX 24 24 0 0
BITMAP
000000
000010
000038
3ffffc
000c00
000c00
001800
001800
003c00
003900
0078c0
00d860
019838
03181c
06180c
181804
601800
001800
001800
001808
00181c
7ffffe
000000
000000
ENDCHAR
STARTCHAR 19990
ENCODING 19990
SWIDTH 520 0
DWIDTH 24 0
BBX 24 24 0 0
BITMAP
002080
0038e0
0830c0
0e30c0
0c30c0
0c30c0
0c30c8
0c30dc
7ffffe
0c30c0
0c30c0
0c30c0
0c30c0
0c30c0
0c30c0
0c30c0
0c3fc0
0c30c0
0c2080
0c0010
0c0038
1ffffc
080000
000000
ENDCHAR
STARTCHAR 19992
ENCODING 19992
SWIDTH 520 0
DWIDTH 24 0
BBX 24 24 0 0
BITMAP
000000
000040
0001e0
040ff0
07fe00
060000
060000
060000
060000
060010
060038
07fffc
060600
060600
060600
060600
060600
060600
060600
060608
06061c
7ffffe
000000
000000
ENDCHAR
STARTCHAR 19993
ENCODING 19993
SWIDTH 520 0
DWIDTH 24 0
BBX 24 24 0 0
BITMAP
000000
000008
00001c
7ffffe
001800
001800
001800
101818
1ffffc
181818
181818
181818
181818
183618
183318
186198
18c0d8
190098
1a0018
180018
180018
1801f8
180070
100020
ENDCHAR
STARTCHAR 19994
ENCODING 19994
SWIDTH 520 0
DWIDTH 24 0
BBX 24 24 0 0
BITMAP
008200
00e380
00c300
00c300
00c300
00c300
00c310
20c31c
10c318
08c330
0cc330
0cc320
06c360
06c340
06c340
06c380
06c300
04c300
00c300
00c308
00c31c
7ffffe
000000
000000
ENDCHAR
STARTCHAR 19995
ENCODING 19995
SWIDTH 520 0
DWIDTH 24 0
BBX 24 24 0 0
BITMAP
000000
020200
038380
030300
030300
030300
030300
030300
030300
038380
06c280
066680
062640
0c2c60
0c0c60
181830
101838
20301e
404008
018000
00000c
7ffffe
000000
000000
ENDCHAR
STARTCHAR 19996
ENCODING 19996
SWIDTH 520 0
DWIDTH 24 0
BBX 24 24 0 0
BITMAP
002000
003800
003000
006008
00601c
7ffffe
00c000
019000
031c00
021800
061800
0c1830
1ffff8
081800
021980
0398c0
031860
061830
061818
08181c
10180c
61f808
007000
002000
ENDCHAR
STARTCHAR 19997
ENCODING 19997
SWIDTH 520 0
DWIDTH 24 0
BBX 24 24 0 0
BITMAP
000000
020080
0380e0
0301c0
060180
062180
0c3b10
0c7318
18661c
10c430
7fcff0
318660
0300c0
020180
060300
0c0600
180400
3feff8
1e0780
000000
000008
00001c
7ffffe
000000
ENDCHAR
STARTCHAR 19998
ENCODING 19998
SWIDTH 520 0
DWIDTH 24 0
BBX 24 24 0 0
BITMAP
000000
000060
0ffff0
0000e0
000180
001600
019c08
3fda1c
019a30
019a60
019980
031900
031980
061880
0618c0
0c1860
101838
20181e
40f808
003020
000070
3ffff8
000000
000000
ENDCHAR
STARTCHAR 20002
ENCODING 20002
SWIDTH 520 0
DWIDTH 24 0
BBX 24 24 0 0
BITMAP
000000
000040
0007e0
003ff0
1ff800
001800
001800
001860
0ffff0
001800
001800
001808
00181c
7ffffe
002000
003800
006000
00c100
0180c0
030020
060010
1ffff8
070018
000018
ENDCHAR
STARTCHAR 20004
ENCODING 20004
SWIDTH 520 0
DWIDTH 24 0
BBX 24 24 0 0
BITMAP
000000
00000c
7ffffe
00c300
00c300
00c300
10c318
1ffffc
18c318
18c318
18c318
18c318
19a318
19b318
191698
1a16d8
1a0c58
1c0858
181018
182018
180018
1801f8
180070
100020
ENDCHAR
STARTCHAR 20005
ENCODING 20005
SWIDTH 520 0
DWIDTH 24 0
BBX 24 24 0 0
BITMAP
000000
000018
3ffffc
006600
086620
046638
066660
036640
026680
10660c
1ffffe
180000
180000
180000
180000
180000
180000
180000
180000
180000
100000
300000
200000
400000
ENDCHAR
STARTCHAR 20007
ENCODING 20007
SWIDTH 520 0
DWIDTH 24 0
BBX 24 24 0 0
BITMAP
001000
001c00
001800
001830
1ffff8
001880
0618e0
0318c0
019980
011a00
00180c
7ffffe
062000
062020
061078
0611c0
060b00
060e00
060600
066380
0781e0
0e007e
040010
000000
ENDCHAR
STARTCHAR 20008
ENCODING 20008
SWIDTH 520 0
DWIDTH 24 0
BBX 24 24 0 0
BITMAP
000000
001000
001c00
001800
001800
001800
001800
001800
001800
001800
001800
001800
001800
001800
001800
001800
001800
001800
001800
001800
001800
001800
001000
000000
ENDCHAR
STARTCHAR 20010
ENCODING 20010
SWIDTH 520 0
DWIDTH 24 0
BBX 24 24 0 0
BITMAP
001000
001c00
003800
003400
006400
00c200
018300
031180
021cc0
041870
08183e
301818
401800
001800
001800
001800
001800
001800
001800
001800
001800
001800
001800
001000
ENDCHAR
STARTCHAR 20011
ENCODING 20011
SWIDTH 520 0
DWIDTH 24 0
BBX 24 24 0 0
BITMAP
000000
0c0040
0700f0
0380c0
01c180
008200
001000
001c00
001800
001800
001800
001800
001800
001800
001800
001800
001800
001800
001800
001800
001800
001800
001000
000000
ENDCHAR
STARTCHAR 20012
ENCODING 20012
SWIDTH 520 0
DWIDTH 24 0
BBX 24 24 0 0
BITMAP
001000
001c00
001800
081800
041800
061800
031800
019800
01d800
00d800
009800
001800
001800
003800
005800
019800
071800
3c1800
181800
001800
001800
001800
001800
001000
ENDCHAR
STARTCHAR 20013
ENCODING 20013
SWIDTH 520 0
DWIDTH 24 0
BBX 24 24 0 0
BITMAP
001000
001c00
001800
001800
001800
101818
1ffffc
181818
181818
181818
181818
181818
181818
1ffff8
181818
101810
001800
001800
001800
001800
001800
001800
001800
001000
ENDCHAR
STARTCHAR 20016
ENCODING 20016
SWIDTH 520 0
DWIDTH 24 0
BBX 24 24 0 0
BITMAP
001000
001c00
001800
001810
001838
3ffffc
001800
001800
001800
001860
1ffff0
001800
001800
001800
001808
00181c
7ffffe
001800
001800
001800
001800
001800
001800
001000
ENDCHAR
STARTCHAR 20018
ENCODING 20018
SWIDTH 520 0
DWIDTH 24 0
BBX 24 24 0 0
BITMAP
001000
001c00
001800
081830
0ffff8
0c1830
0c1830
0c1830
0ffff0
081820
001800
101818
1ffffc
181818
181818
181818
181818
1ffff8
181818
101810
001800
001800
001800
001000
ENDCHAR
STARTCHAR 20020
ENCODING 20020
SWIDTH 520 0
DWIDTH 24 0
BBX 24 24 0 0
BITMAP
020400
038700
030600
030c00
230c0c
3b0ffe
331a00
333100
332180
3340c0
338080
33200c
333ffe
33318c
33318c
33318c
33318c
33318c
33318c
23318c
033ffc
03300c
032008
020000
ENDCHAR
STARTCHAR 20022
ENCODING 20022
SWIDTH 520 0
DWIDTH 24 0
BBX 24 24 0 0
BITMAP
000000
000000
000000
000000
000000
000000
008000
006000
003800
001c00
000e00
000600
000400
000000
000000
000000
000000
000000
000000
000000
000000
000000
000000
000000
ENDCHAR
STARTCHAR 20024
ENCODING 20024
SWIDTH 520 0
DWIDTH 24 0
BBX 24 24 0 0
BITMAP
004000
007000
006000
006000
006000
006180
3fffc0
006180
006180
004180
08c180
04c180
03c180
018180
01e180
033184
033184
061184
040186
0801fe
1000fc
200000
400000
000000
ENDCHAR
STARTCHAR 20025
ENCODING 20025
SWIDTH 520 0
DWIDTH 24 0
BBX 24 24 0 0
BITMAP
000000
020060
03fff0
030060
032060
031060
031860
030c60
030c60
030860
03006c
7ffffe
030060
030060
030060
030060
030060
030060
020060
060060
0c0060
1807e0
1001c0
200080
ENDCHAR
STARTCHAR 20026
ENCODING 20026
SWIDTH 520 0
DWIDTH 24 0
BBX 24 24 0 0
BITMAP
001000
001c00
0c1800
061800
031800
039800
011800
001818
3ffffc
003018
003018
003018
006418
006618
006318
00c198
00c130
018030
030030
060030
0c0070
1807e0
2001c0
400080
ENDCHAR
STARTCHAR 20027
ENCODING 20027
SWIDTH 520 0
DWIDTH 24 0
BBX 24 24 0 0
BITMAP
006000
003800
001c00
000c00
000810
000038
1ffffc
001800
001800
001800
001800
001800
001830
1ffff8
001800
001800
001800
001800
001800
001808
00181c
7ffffe
000000
000000
ENDCHAR
STARTCHAR 20029
ENCODING 20029
SWIDTH 520 0
DWIDTH 24 0
BBX 24 24 0 0
BITMAP
000000
000000
00000c
7ffffe
000000
000000
106418
1ff7fc
186618
186618
186618
1a6698
1a6698
1b66d8
1b66d8
196658
196658
186618
186618
186618
1be618
18c6f8
188630
100420
ENDCHAR
STARTCHAR 20030
ENCODING 20030
SWIDTH 520 0
DWIDTH 24 0
BBX 24 24 0 0
BITMAP
004040
0c2070
063060
0318c0
031880
021100
00010c
7ffffe
038200
031100
061cc0
0c1870
18193e
33ff88
401800
001800
001830
1ffff8
001800
001800
001800
001800
001800
001000
ENDCHAR
STARTCHAR 20031
ENCODING 20031
SWIDTH 520 0
DWIDTH 24 0
BBX 24 24 0 0
BITMAP
000000
004000
007000
006000
006000
006000
006000
006000
006000
006000
006000
006000
006000
006000
006000
00c000
00c000
008000
018000
030000
060000
040000
080000
100000
ENDCHAR
STARTCHAR 20035
ENCODING 20035
SWIDTH 520 0
DWIDTH 24 0
BBX 24 24 0 0
BITMAP
000000
000060
1ffff0
00c060
00c0c0
00c0c0
00c180
00c180
00c18c
00c3fe
00c10c
01800c
01800c
01800c
01800c
030018
030018
060018
0c0018
080038
1007f0
2000e0
400040
000000
ENDCHAR
STARTCHAR 20037
ENCODING 20037
SWIDTH 520 0
DWIDTH 24 0
BBX 24 24 0 0
BITMAP
008000
00e000
00c000
018000
018300
03ff80
030700
060600
060c00
0c0c00
180e00
101a00
201a00
003300
003100
006180
00c080
0180c0
030060
060070
0c003c
30001e
400008
000000
ENDCHAR
STARTCHAR 20039
ENCODING 20039
SWIDTH 520 0
DWIDTH 24 0
BBX 24 24 0 0
BITMAP
000040
0000e0
000ff0
007e00
0ff000
003000
003000
003000
003008
00301c
0031fe
00fe00
7f3000
003000
003000
003000
003004
003004
003004
003004
003006
003ffe
001ffc
000000
ENDCHAR
STARTCHAR 20040
ENCODING 20040
SWIDTH 520 0
DWIDTH 24 0
BBX 24 24 0 0
BITMAP
000000
000800
000e00
001c00
003800
003000
006000
00c100
0181c0
030380
060300
0c0600
100c00
201800
403080
006040
00c060
010030
020018
0ffffc
07f81c
06000c
000008
000000
ENDCHAR
STARTCHAR 20041
ENCODING 20041
SWIDTH 520 0
DWIDTH 24 0
BBX 24 24 0 0
BITMAP
000000
006000
003040
021870
021c60
020cc0
0208c0
0300c0
010180
018180
008300
00c300
004600
006600
003c00
001800
003c00
006700
00c3c0
0380f0
06007e
180018
600008
000000
ENDCHAR
STARTCHAR 20043
ENCODING 20043
SWIDTH 520 0
DWIDTH 24 0
BBX 24 24 0 0
BITMAP
000000
006000
003000
001800
001800
001030
3ffff8
0000e0
0001c0
000380
000700
000e00
001c00
003800
006000
00c000
018000
020000
060000
1b0000
71fffe
207ff8
000000
000000
ENDCHAR
STARTCHAR 20044
ENCODING 20044
SWIDTH 520 0
DWIDTH 24 0
BBX 24 24 0 0
BITMAP
002000
003800
003000
0420c0
07ffe0
0600c0
0600c0
0600c0
0600c0
063f80
060700
060000
060018
0ffffc
040018
000018
000198
7fffd8
000018
000018
000038
000ff0
0000e0
000040
ENDCHAR
STARTCHAR 20045
ENCODING 20045
SWIDTH 520 0
DWIDTH 24 0
BBX 24 24 0 0
BITMAP
008000
00e000
00c008
01801c
01fffe
033000
033000
063000
0c3000
083018
103ffc
203000
403000
003000
003008
00301c
003ffe
003000
003000
003000
003000
003000
003000
002000
ENDCHAR
STARTCHAR 20046
ENCODING 20046
SWIDTH 520 0
DWIDTH 24 0
BBX 24 24 0 0
BITMAP
000020
0007f0
007ff8
1ff800
001820
001838
041870
021860
0318c0
019980
019900
011a0c
7ffffe
001800
001800
001800
001800
001800
001800
001800
001800
01f800
007000
002000
ENDCHAR
STARTCHAR 20047
ENCODING 20047
SWIDTH 520 0
DWIDTH 24 0
BBX 24 24 0 0
BITMAP
000000
000040
0007e0
00fff0
3f8000
006000
003000
001800
001860
1ffff0
0001c0
000380
000600
000c00
003000
00c000
018000
060000
1e0000
718000
20fffe
007ff8
000000
000000
ENDCHAR
STARTCHAR 20048
ENCODING 20048
SWIDTH 520 0
DWIDTH 24 0
BBX 24 24 0 0
BITMAP
000020
0401f0
060ff8
07fe00
060000
060800
060e00
0c0c00
0c0c00
0c0c08
0c0c1c
1ffffe
080c00
010c00
01cc80
038c60
030c30
060c18
0c0c1c
180c0e
200c04
40fc00
003800
001000
ENDCHAR
STARTCHAR 20050
ENCODING 20050
SWIDTH 520 0
DWIDTH 24 0
BBX 24 24 0 0
BITMAP
000000
0001e0
020ff0
03fe00
030000
030000
030020
030070
03fff8
030600
030600
030600
030600
030608
03061c
7ffffe
000000
004000
00f000
01c000
030000
0c0000
300000
000000
ENDCHAR
STARTCHAR 20051
ENCODING 20051
SWIDTH 520 0
DWIDTH 24 0
BBX 24 24 0 0
BITMAP
000000
0000e0
020ff0
03ff00
030000
030000
030020
030070
03fff8
030600
030600
030600
030600
030608
03061c
7ffffe
000000
000400
000380
0000e0
000070
000038
000018
000000
ENDCHAR
STARTCHAR 20052
ENCODING 20052
SWIDTH 520 0
DWIDTH 24 0
BBX 24 24 0 0
BITMAP
000000
0003e0
003ff0
1ffc00
003000
003000
00600c
7ffffe
00c200
018100
018180
0300c0
048270
08e3be
30c318
40c300
00c300
018300
018300
018300
030300
060300
080300
100200
ENDCHAR
STARTCHAR 20054
ENCODING 20054
SWIDTH 520 0
DWIDTH 24 0
BBX 24 24 0 0
BITMAP
000000
0003e0
003ff0
1ffe00
001800
00180c
7ffffe
001800
011900
01d9c0
019990
3f999c
0199b0
0199c0
019984
019984
0f9984
7999fe
2118fc
001800
001800
001800
001800
001000
ENDCHAR
STARTCHAR 20056
ENCODING 20056
SWIDTH 520 0
DWIDTH 24 0
BBX 24 24 0 0
BITMAP
0003c0
003fe0
1ffe00
001800
00180c
7ffffe
011900
01d9c8
01999c
3f99b0
0199c0
019980
07b980
3d7dfe
105afc
00d900
019900
0318c0
061860
0c1838
30181e
401808
001800
001000
ENDCHAR
STARTCHAR 20057
ENCODING 20057
SWIDTH 520 0
DWIDTH 24 0
BBX 24 24 0 0
BITMAP
000000
000000
000180
3fffc0
0003e0
000700
000e00
001c00
003800
007000
00e000
01c000
038000
070000
0e0008
0c0008
180008
180008
300008
38001c
1ffffc
0ffff8
000000
000000
ENDCHAR
STARTCHAR 20060
ENCODING 20060
SWIDTH 520 0
DWIDTH 24 0
BBX 24 24 0 0
BITMAP
000000
020000
038000
030000
0300c0
0300e0
0301c0
0306c0
0338c0
03c0c0
0300c0
0f00c0
7300c0
0300c0
0300c0
0301c0
030f84
030304
030204
030004
03000e
03fffe
01fffc
000000
ENDCHAR
STARTCHAR 20061
ENCODING 20061
SWIDTH 520 0
DWIDTH 24 0
BBX 24 24 0 0
BITMAP
008000
00e000
00c000
00c000
00c000
00c300
00ff80
3fc300
00c300
00c300
00c300
00c300
00c300
00c300
018300
018304
010304
030304
060304
0c0306
1803fe
3001fc
400000
000000
ENDCHAR
STARTCHAR 20062
ENCODING 20062
SWIDTH 520 0
DWIDTH 24 0
BBX 24 24 0 0
BITMAP
004000
007000
00e000
00c010
018038
03fffc
030000
060000
0c0000
180200
27ff00
400c00
001800
003000
006000
00c000
018004
030004
030004
060004
060006
03fffe
01fffc
000000
ENDCHAR
STARTCHAR 20063
ENCODING 20063
SWIDTH 520 0
DWIDTH 24 0
BBX 24 24 0 0
BITMAP
001000
001c00
001800
001800
041860
071870
0619e0
061e60
067860
079860
1e1860
661860
061860
061860
061860
061bc0
061884
061804
061004
060004
060006
07fffe
03fffc
000000
ENDCHAR
STARTCHAR 20064
ENCODING 20064
SWIDTH 520 0
DWIDTH 24 0
BBX 24 24 0 0
BITMAP
000000
000000
000030
3ffff8
000030
010030
008030
00c030
00c030
006030
006030
0041b0
000e30
007030
01c030
0f8060
7e0060
300060
100060
0000e0
007fc0
000780
000300
000000
ENDCHAR
STARTCHAR 20065
ENCODING 20065
SWIDTH 520 0
DWIDTH 24 0
BBX 24 24 0 0
BITMAP
001000
001800
003c00
003000
006040
00c060
0180f0
0201c0
0fff00
070600
000c00
003820
00e038
010070
07ffe0
03c0c0
000180
000300
000600
001c00
007000
01c000
0e0000
300000
ENDCHAR
STARTCHAR 20070
ENCODING 20070
SWIDTH 520 0
DWIDTH 24 0
BBX 24 24 0 0
BITMAP
002000
003860
003038
00301c
00300c
003064
1ffff0
003060
003060
003060
003060
00306c
7ffffe
00300c
00300c
00300c
003018
003018
003038
0033f0
0030e0
003040
003000
002000
ENDCHAR
STARTCHAR 20073
ENCODING 20073
SWIDTH 520 0
DWIDTH 24 0
BBX 24 24 0 0
BITMAP
020100
0381c0
030180
030180
030180
031980
03fd80
030180
030180
030180
030180
233180
3ff980
303180
303180
303180
303184
303184
303184
303184
3ff186
3031fe
2020fc
000000
ENDCHAR
STARTCHAR 20080
ENCODING 20080
SWIDTH 520 0
DWIDTH 24 0
BBX 24 24 0 0
BITMAP
000000
000018
1ffffc
000018
000818
030e30
018c20
01cc00
188c00
0e0c00
060c00
030c00
020c08
000c1c
7ffffe
001800
003c00
003300
0060c0
00c070
030038
0c001c
30000c
400004
ENDCHAR
STARTCHAR 20081
ENCODING 20081
SWIDTH 520 0
DWIDTH 24 0
BBX 24 24 0 0
BITMAP
000100
0071c0
03f980
3f8180
030180
030180
030180
031980
7ffd80
030180
030180
030180
233180
3ff980
303180
303180
303180
303184
303184
303184
3ff186
3031fe
2020fc
000000
ENDCHAR
STARTCHAR 20083
ENCODING 20083
SWIDTH 520 0
DWIDTH 24 0
BBX 24 24 0 0
BITMAP
000900
007dc0
07fd80
780180
020980
211d80
119980
193180
084980
7fff80
001980
012180
01c180
018180
019d80
03e180
7f8180
3d8184
218184
018184
018186
1f81fe
0700fc
020000
ENDCHAR
STARTCHAR 20094
ENCODING 20094
SWIDTH 520 0
DWIDTH 24 0
BBX 24 24 0 0
BITMAP
020100
0381c0
030180
033180
7ffb0c
0303fe
232600
3ff400
303800
303060
3ff7f0
303060
3030c0
3ff0c0
232180
030180
033184
7ffb04
030304
030604
030606
0307fe
0303fc
020000
ENDCHAR
STARTCHAR 20102
ENCODING 20102
SWIDTH 520 0
DWIDTH 24 0
BBX 24 24 0 0
BITMAP
000000
000018
3ffffc
000030
0000e0
000180
000600
001800
001c00
001800
001800
001800
001800
001800
001800
001800
001800
001800
001800
001800
001800
01f800
007000
002000
ENDCHAR
STARTCHAR 20104
ENCODING 20104
SWIDTH 520 0
DWIDTH 24 0
BBX 24 24 0 0
BITMAP
000000
0000c0
07ffe0
0001c0
008300
006400
003800
001c00
00180c
7ffffe
00180c
001818
001820
001800
001800
001800
001800
001800
001800
001800
001800
01f800
007000
002000
ENDCHAR
STARTCHAR 20105
ENCODING 20105
SWIDTH 520 0
DWIDTH 24 0
BBX 24 24 0 0
BITMAP
008000
00e000
00c180
01ffc0
018300
030600
060860
0ffff0
101860
201860
001864
7ffffe
001860
001860
001860
001860
0fffe0
001860
001840
001800
001800
01f800
007000
002000
ENDCHAR
STARTCHAR 20107
ENCODING 20107
SWIDTH 520 0
DWIDTH 24 0
BBX 24 24 0 0
BITMAP
001000
001c00
00180c
7ffffe
001800
041860
07fff0
061860
061860
07ffe0
041840
001830
1ffff8
001830
001834
7ffffe
001830
001830
1ffff0
001820
001800
01f800
007000
002000
ENDCHAR
STARTCHAR 20108
ENCODING 20108
SWIDTH 520 0
DWIDTH 24 0
BBX 24 24 0 0
BITMAP
000000
000000
000000
000010
000038
1ffffc
000000
000000
000000
000000
000000
000000
000000
000000
000000
000000
000000
000008
00001c
7ffffe
000000
000000
000000
000000
ENDCHAR
STARTCHAR 20109
ENCODING 20109
SWIDTH 520 0
DWIDTH 24 0
BBX 24 24 0 0
BITMAP
000000
000040
0000e0
0ffff0
000000
000000
000000
000008
00001c
7ffffe
001800
001800
001800
001800
001800
001800
001800
001800
001800
001800
001800
01f800
007000
002000
ENDCHAR
STARTCHAR 20110
ENCODING 20110
SWIDTH 520 0
DWIDTH 24 0
BBX 24 24 0 0
BITMAP
000000
000020
000070
1ffff8
001800
001800
001800
001800
001808
00181c
7ffffe
001800
001800
001800
001800
001800
001800
001800
001800
001800
001800
01f800
007000
002000
ENDCHAR
STARTCHAR 20111
ENCODING 20111
SWIDTH 520 0
DWIDTH 24 0
BBX 24 24 0 0
BITMAP
000000
000060
0ffff0
000000
000000
000000
00000c
7ffffe
00e000
00c000
018000
018060
03fff0
010060
000060
000060
000060
000060
0000e0
0000c0
003f80
000700
000200
000000
ENDCHAR
STARTCHAR 20113
ENCODING 20113
SWIDTH 520 0
DWIDTH 24 0
BBX 24 24 0 0
BITMAP
000000
000000
000060
0ffff0
000000
000000
000000
000000
00000c
7ffffe
002000
003800
006000
006000
00c100
018080
0300c0
060060
0c0030
3ffff8
1f8018
080010
000000
000000
ENDCHAR
STARTCHAR 20114
ENCODING 20114
SWIDTH 520 0
DWIDTH 24 0
BBX 24 24 0 0
BITMAP
000000
000000
000018
3ffffc
01c000
018000
018000
018180
01ffc0
018180
030180
030180
030180
030180
030300
07ff00
020300
000300
000300
000308
00031c
7ffffe
000000
000000
ENDCHAR
STARTCHAR 20115
ENCODING 20115
SWIDTH 520 0
DWIDTH 24 0
BBX 24 24 0 0
BITMAP
000000
000030
1ffff8
000000
000000
000000
000000
00000c
7ffffe
00c180
00c180
00c180
00c180
00c180
00c180
00c180
018180
018180
030180
030180
060180
0c0180
100180
200100
ENDCHAR
STARTCHAR 20116
ENCODING 20116
SWIDTH 520 0
DWIDTH 24 0
BBX 24 24 0 0
BITMAP
000000
000018
3ffffc
006000
006000
006000
006000
006000
006000
006000
0060c0
0fffe0
00c0c0
00c0c0
00c0c0
00c0c0
00c0c0
00c0c0
00c0c0
00c0c0
00c0cc
7ffffe
000000
000000
ENDCHAR
STARTCHAR 20117
ENCODING 20117
SWIDTH 520 0
DWIDTH 24 0
BBX 24 24 0 0
BITMAP
008100
00e1c0
00c180
00c180
00c180
00c198
3ffffc
00c180
00c180
00c180
00c180
00c180
00c18c
7ffffe
018180
018180
018180
030180
030180
060180
0c0180
180180
200180
400100
ENDCHAR
STARTCHAR 20120
ENCODING 20120
SWIDTH 520 0
DWIDTH 24 0
BBX 24 24 0 0
BITMAP
000000
000010
000038
3ffffc
000000
000000
040060
07fff0
060060
060060
060060
060060
07ffe0
060060
060060
060060
060060
07ffe0
040040
000008
00001c
7ffffe
000000
000000
ENDCHAR
STARTCHAR 20122
ENCODING 20122
SWIDTH 520 0
DWIDTH 24 0
BBX 24 24 0 0
BITMAP
000000
000000
000018
3ffffc
006600
006600
006600
106610
08661c
086618
0c6630
046630
066660
066640
0666c0
066680
046700
006600
006600
006600
006600
7ffffe
000000
000000
ENDCHAR
STARTCHAR 20123
ENCODING 20123
SWIDTH 520 0
DWIDTH 24 0
BBX 24 24 0 0
BITMAP
000400
010700
01c600
118610
1d861c
198638
19a660
19f6c4
198704
198604
198604
198604
1bf606
1f87fe
7c03fc
300000
0000c0
0fffe0
000000
000000
00000c
7ffffe
000000
000000
ENDCHAR
STARTCHAR 20127
ENCODING 20127
SWIDTH 520 0
DWIDTH 24 0
BBX 24 24 0 0
BITMAP
000000
000030
0ffff8
000030
0000c0
001300
001c00
119808
1fdbfc
199818
199a18
199918
1998b0
199870
199830
1f9870
1118d8
00198c
00fa04
003000
00200c
7ffffe
000000
000000
ENDCHAR
STARTCHAR 20128
ENCODING 20128
SWIDTH 520 0
DWIDTH 24 0
BBX 24 24 0 0
BITMAP
000000
000000
004000
003000
003800
001c00
000c08
00081c
7ffffe
000000
000000
000000
000000
000000
000000
000000
000000
000000
000000
000000
000000
000000
000000
000000
ENDCHAR
STARTCHAR 20129
ENCODING 20129
SWIDTH 520 0
DWIDTH 24 0
BBX 24 24 0 0
BITMAP
000000
003000
001800
001c00
000c08
00081c
7ffffe
060000
060000
060000
060000
060000
060000
060000
060000
060000
060000
060000
060010
060038
0ffffc
040000
000000
000000
ENDCHAR
STARTCHAR 20130
ENCODING 20130
SWIDTH 520 0
DWIDTH 24 0
BBX 24 24 0 0
BITMAP
006000
003000
003800
001808
00101c
7ffffe
000000
000000
010300
01ff80
018300
018300
018300
018300
018300
018300
018304
030304
030304
060304
0c0306
3003fe
4001fc
000000
ENDCHAR
STARTCHAR 20132
ENCODING 20132
SWIDTH 520 0
DWIDTH 24 0
BBX 24 24 0 0
BITMAP
006000
003000
003800
001808
00101c
7ffffe
018200
01c180
030060
060238
0c839c
18830c
208600
404600
004c00
002c00
003800
003800
006c00
00c700
0383e0
0c00fe
700018
000000
ENDCHAR
STARTCHAR 20133
ENCODING 20133
SWIDTH 520 0
DWIDTH 24 0
BBX 24 24 0 0
BITMAP
003000
001800
001c08
00081c
7ffffe
004000
00e000
018200
030380
020700
0ffe00
078c40
001870
0030e0
0061c0
018300
060600
180d00
0018c0
006060
018038
060018
180008
000000
ENDCHAR
STARTCHAR 20134
ENCODING 20134
SWIDTH 520 0
DWIDTH 24 0
BBX 24 24 0 0
BITMAP
002000
001000
001800
000c08
00081c
7ffffe
00c300
00c300
00c300
08c300
0ec380
0cc360
18c330
18c318
10c318
20c30c
20c30c
418308
018300
030300
061f00
180600
600400
000000
ENDCHAR
STARTCHAR 20135
ENCODING 20135
SWIDTH 520 0
DWIDTH 24 0
BBX 24 24 0 0
BITMAP
003000
001800
000c08
00081c
3ffffe
010100
008180
00c300
006200
08420c
0ffffe
0c0000
0c0000
0c0000
0c0000
0c0000
0c0000
0c0000
080000
180000
300000
200000
400000
000000
ENDCHAR
STARTCHAR 20136
ENCODING 20136
SWIDTH 520 0
DWIDTH 24 0
BBX 24 24 0 0
BITMAP
002000
003000
001808
00101c
7ffffe
000000
040060
07fff0
060060
060060
07ffe0
040040
000020
3ffff0
000078
001180
001e00
001800
001800
001800
001800
01f800
007000
002000
ENDCHAR
STARTCHAR 20137
ENCODING 20137
SWIDTH 520 0
DWIDTH 24 0
BBX 24 24 0 0
BITMAP
003000
001800
000c08
00081c
7ffffe
000000
000000
080030
0ffff8
0c1830
0c1830
0c1830
0c1830
0c1830
0ffff0
0c1830
0c1830
0c1830
0c1830
0c1830
0ffff0
0c0030
080020
000000
ENDCHAR
STARTCHAR 20139
ENCODING 20139
SWIDTH 520 0
DWIDTH 24 0
BBX 24 24 0 0
BITMAP
003000
001800
00100c
7ffffe
000000
0400c0
07ffe0
0600c0
0600c0
07ffc0
040080
000020
0ffff0
0000c0
001300
001c0c
7ffffe
001800
001800
001800
001800
00f800
003000
002000
ENDCHAR
STARTCHAR 20140
ENCODING 20140
SWIDTH 520 0
DWIDTH 24 0
BBX 24 24 0 0
BITMAP
003000
001800
001808
00081c
7ffffe
000000
040040
07fff0
060060
060060
060060
060060
060060
07ffc0
041840
011800
01d980
0318e0
061830
0c1818
18181c
21f808
407000
002000
ENDCHAR
STARTCHAR 20141
ENCODING 20141
SWIDTH 520 0
DWIDTH 24 0
BBX 24 24 0 0
BITMAP
003000
001800
001018
3ffffc
000000
0200c0
03ffe0
0300c0
0300c0
03ffc0
0300c0
20000c
3ffffe
60000c
600048
4fffe0
001800
001800
001800
001800
001800
01f800
007000
002000
ENDCHAR
STARTCHAR 20142
ENCODING 20142
SWIDTH 520 0
DWIDTH 24 0
BBX 24 24 0 0
BITMAP
003000
001c10
001838
3ffffc
000000
0200c0
03ffe0
0300c0
0300c0
03ffc0
020080
10000c
1ffffe
100008
308310
60ffa0
00c300
00c304
00c304
00c304
018306
0303fe
0c01fc
700000
ENDCHAR
STARTCHAR 20146
ENCODING 20146
SWIDTH 520 0
DWIDTH 24 0
BBX 24 24 0 0
BITMAP
003000
001800
001800
001030
1ffff8
000100
018180
00c300
006200
00440c
7ffffe
001800
001800
001830
1ffff8
001800
021b00
0398c0
061870
0c1838
30181c
41f808
007000
002000
ENDCHAR
STARTCHAR 20147
ENCODING 20147
SWIDTH 520 0
DWIDTH 24 0
BBX 24 24 0 0
BITMAP
003000
001800
001018
3ffffc
000000
03ffc0
0300c0
0300c0
03ffc0
020080
20000c
3ffffe
60010c
600f90
41f800
1e3020
0031f8
00ff00
3f3004
003004
003004
003ffe
001ffc
000000
ENDCHAR
STARTCHAR 20149
ENCODING 20149
SWIDTH 520 0
DWIDTH 24 0
BBX 24 24 0 0
BITMAP
003000
001800
00080c
7ffffe
020400
038700
034660
3ffff0
030660
03d660
7f0e64
231b64
03313e
0fd01e
023c40
007070
00c8c0
038500
078600
1d8380
7198e0
01e07e
03c030
010000
ENDCHAR
STARTCHAR 20154
ENCODING 20154
SWIDTH 520 0
DWIDTH 24 0
BBX 24 24 0 0
BITMAP
000000
001000
001c00
001800
001800
001800
003800
003800
003400
003400
006400
006200
00c200
00c300
018100
018180
0300c0
060060
040070
08003c
10001f
200008
400000
000000
ENDCHAR
STARTCHAR 20155
ENCODING 20155
SWIDTH 520 0
DWIDTH 24 0
BBX 24 24 0 0
BITMAP
020000
038000
030000
030000
060000
060000
060000
0e0000
0f0000
1e0000
160000
260000
260000
460000
060000
060000
060000
060000
060000
060000
060000
060000
060000
040000
ENDCHAR
STARTCHAR 20159
ENCODING 20159
SWIDTH 520 0
DWIDTH 24 0
BBX 24 24 0 0
BITMAP
020000
038000
030000
030030
067ff8
0600e0
0e00c0
0c01c0
0f0180
1e0300
1e0700
360600
260c00
460c00
061800
061804
063004
063004
066004
066004
066006
063ffe
061ffc
040000
ENDCHAR
STARTCHAR 20160
ENCODING 20160
SWIDTH 520 0
DWIDTH 24 0
BBX 24 24 0 0
BITMAP
010200
01c380
018300
030300
030300
060300
060300
0f0308
0e031c
1efffe
160300
260300
460300
060300
060300
060300
060300
060300
060300
060300
060300
060300
060300
040200
ENDCHAR
STARTCHAR 20161
ENCODING 20161
SWIDTH 520 0
DWIDTH 24 0
BBX 24 24 0 0
BITMAP
010000
01c000
018000
030000
030018
037ffc
060000
070000
0e0000
0e0000
1e0000
360000
260000
460000
060000
060000
060000
060000
060000
06000c
06fffe
060000
060000
040000
ENDCHAR
STARTCHAR 20162
ENCODING 20162
SWIDTH 520 0
DWIDTH 24 0
BBX 24 24 0 0
BITMAP
020800
038e00
030c00
030c00
060c00
060c00
0c0c18
0cfffc
1e0c18
1c0c18
2c0c18
2c0c18
4c0c18
0c1818
0c1818
0c1818
0c1818
0c3018
0c3018
0c6030
0c4030
0c83f0
0d00e0
0a0040
ENDCHAR
STARTCHAR 20163
ENCODING 20163
SWIDTH 520 0
DWIDTH 24 0
BBX 24 24 0 0
BITMAP
020000
038000
030008
03001c
067ffe
0600c0
0e00c0
0f00c0
1e00c0
1600c0
2600c0
2600c0
4600c0
0600c0
0600c0
0600c0
0600c0
0600c0
0600c0
0600c0
0600c0
061fc0
060380
040100
ENDCHAR
STARTCHAR 20164
ENCODING 20164
SWIDTH 520 0
DWIDTH 24 0
BBX 24 24 0 0
BITMAP
000000
000008
08001c
0ffffe
0c0000
0c0800
0c0e00
0c0c00
0c0c00
0c0c00
0c0c00
0c0c00
0c0c00
0c1a00
0c1a00
0c1900
0c3100
0c3180
1860c0
186060
10c038
21801e
220008
4c0000
ENDCHAR
STARTCHAR 20165
ENCODING 20165
SWIDTH 520 0
DWIDTH 24 0
BBX 24 24 0 0
BITMAP
020000
038000
030018
033ffc
060018
060018
061018
0e1018
0f0818
1e0830
160830
360830
260460
460460
0606c0
060380
060380
060380
0606c0
060c70
061838
06301e
064008
048000
ENDCHAR
STARTCHAR 20166
ENCODING 20166
SWIDTH 520 0
DWIDTH 24 0
BBX 24 24 0 0
BITMAP
010200
01c380
018300
018300
030300
030300
060300
060300
0f8380
0b0360
1b0330
130318
23030c
43030e
030306
030304
030300
030300
030300
030300
030300
030300
030300
020200
ENDCHAR
STARTCHAR 20167
ENCODING 20167
SWIDTH 520 0
DWIDTH 24 0
BBX 24 24 0 0
BITMAP
020800
038e00
030c00
060c00
060c00
0c0c00
0c0c60
0cfff0
1c0c60
1c0c60
2c0c60
2c0c60
4c0c60
0c0c60
0c0c60
0c0c60
0c0c60
0c1864
0c1864
0c3064
0c2064
0c407e
0c803c
090000
ENDCHAR
STARTCHAR 20169
ENCODING 20169
SWIDTH 520 0
DWIDTH 24 0
BBX 24 24 0 0
BITMAP
020000
038000
032060
063ff0
063060
063060
0c3060
0e3060
1c3060
1c3060
2c3060
2c3060
4c3060
0c3060
0c3060
0c3060
0c3064
0c6064
0c6064
0cc066
0c807e
0d003c
0e0000
080000
ENDCHAR
STARTCHAR 20170
ENCODING 20170
SWIDTH 520 0
DWIDTH 24 0
BBX 24 24 0 0
BITMAP
001000
001c00
003800
003400
006400
00c200
018300
030180
0630e0
0c1878
381c1e
600c08
800800
000060
0ffff0
0000c0
0000c0
000180
000180
000300
000600
000600
000c00
001800
ENDCHAR
STARTCHAR 20171
ENCODING 20171
SWIDTH 520 0
DWIDTH 24 0
BBX 24 24 0 0
BITMAP
001000
001c00
001800
003800
003400
006200
00c300
018180
0300e0
04003e
190118
61c1c0
018180
018180
018180
018180
018180
030180
030180
060180
040180
080180
100180
000100
ENDCHAR
STARTCHAR 20173
ENCODING 20173
SWIDTH 520 0
DWIDTH 24 0
BBX 24 24 0 0
BITMAP
020000
038000
030030
027ff8
061830
061830
0c1860
0c1860
1e1860
1c18cc
2c19fe
2c188c
4c180c
0c180c
0c180c
0c180c
0c300c
0c300c
0c200c
0c600c
0c401c
0c81f8
0d0070
080020
ENDCHAR
STARTCHAR 20174
ENCODING 20174
SWIDTH 520 0
DWIDTH 24 0
BBX 24 24 0 0
BITMAP
000000
040200
070380
060300
060300
060300
060300
060300
060300
060300
070300
068380
06c680
066640
066640
0c2c60
0c0c60
0c1830
181830
10301c
20e00e
418008
060000
000000
ENDCHAR
STARTCHAR 20177
ENCODING 20177
SWIDTH 520 0
DWIDTH 24 0
BBX 24 24 0 0
BITMAP
001000
001c00
001800
003400
003600
006200
00c180
0181c0
0300e0
060078
09003f
11c088
618180
0183c0
018e00
01b000
01c000
018020
018020
018020
018030
01fff0
00ffe0
000000
ENDCHAR
STARTCHAR 20179
ENCODING 20179
SWIDTH 520 0
DWIDTH 24 0
BBX 24 24 0 0
BITMAP
001000
001c00
003800
007400
00e400
00c200
018300
030180
0600f0
0fff7e
130318
230300
030300
030300
030300
033f00
030e20
030420
030020
030030
03fff0
01ffe0
000000
000000
ENDCHAR
STARTCHAR 20180
ENCODING 20180
SWIDTH 520 0
DWIDTH 24 0
BBX 24 24 0 0
BITMAP
020000
038000
030018
067ffc
060018
0c0030
0c0240
180380
180300
3c0300
2c0300
4c030c
8dfffe
0c0300
0c0300
0c0300
0c0300
0c0300
0c0300
0c0300
0c0300
0c3f00
0c0e00
080400
ENDCHAR
STARTCHAR 20181
ENCODING 20181
SWIDTH 520 0
DWIDTH 24 0
BBX 24 24 0 0
BITMAP
020200
038380
030300
030300
060300
060300
0c0308
0e031c
1ffffe
160300
260300
260300
460300
060300
060300
060300
060300
060300
060310
060338
06fffc
060000
040000
000000
ENDCHAR
STARTCHAR 20182
ENCODING 20182
SWIDTH 520 0
DWIDTH 24 0
BBX 24 24 0 0
BITMAP
040200
070380
060300
060300
0c4300
0c7318
0c633c
0c63d8
1e6718
1c7b18
2de318
4c6318
0c6318
0c6318
0c6318
0c63f8
0c6330
0c6304
0c6204
0c6004
0c6006
0c7ffe
0c3ffc
080000
ENDCHAR
STARTCHAR 20183
ENCODING 20183
SWIDTH 520 0
DWIDTH 24 0
BBX 24 24 0 0
BITMAP
020100
0381c0
030180
060180
060180
040188
0c019c
0dfffe
1e0180
1c4180
2c4180
2c4180
4c2180
0c2180
0c1100
0c1300
0c0b00
0c0600
0c0700
0c0f80
0c18f0
0c307e
08c018
030000
ENDCHAR
STARTCHAR 20184
ENCODING 20184
SWIDTH 520 0
DWIDTH 24 0
BBX 24 24 0 0
BITMAP
020040
038070
030060
030060
060060
060060
0c006c
0f7ffe
1e0060
160060
262060
261060
461860
060c60
060c60
060860
060060
060060
060060
060060
060060
0607e0
0601c0
040080
ENDCHAR
STARTCHAR 20185
ENCODING 20185
SWIDTH 520 0
DWIDTH 24 0
BBX 24 24 0 0
BITMAP
020200
038380
070300
060300
060300
0e0300
0c4310
1e731c
1c6318
3c6318
2c6318
4c6318
0c6318
0c6318
0c6318
0c6318
0c6318
0c6318
0c6318
0c6318
0cfff8
0c4018
0c0010
080000
ENDCHAR
STARTCHAR 20189
ENCODING 20189
SWIDTH 520 0
DWIDTH 24 0
BBX 24 24 0 0
BITMAP
001000
001c00
003800
003400
006600
00c300
018180
0300e0
060078
0c003e
100010
6000c0
0fffe0
001800
001800
001800
001800
001800
001800
001800
001818
3ffffc
000000
000000
ENDCHAR
STARTCHAR 20190
ENCODING 20190
SWIDTH 520 0
DWIDTH 24 0
BBX 24 24 0 0
BITMAP
020000
038000
030000
03000c
067ffe
06060c
0c060c
0c060c
1e060c
1c260c
2c260c
2c260c
4c660c
0c460c
0cc60c
0c860c
0c0c0c
0c0c0c
0c180c
0c300c
0c401c
0c81f8
0d0070
080020
ENDCHAR
STARTCHAR 20191
ENCODING 20191
SWIDTH 520 0
DWIDTH 24 0
BBX 24 24 0 0
BITMAP
020000
038018
0300fc
0607c0
067b00
060300
0e0300
0f0300
1e0308
16031c
36fffe
260300
460300
060300
060300
060300
060300
060300
060300
060300
060300
060300
040300
000200
ENDCHAR
STARTCHAR 20193
ENCODING 20193
SWIDTH 520 0
DWIDTH 24 0
BBX 24 24 0 0
BITMAP
020800
038e00
030c00
030c00
06180c
061ffe
0e3000
0f2000
1e4000
1680c0
263fe0
260180
460300
060600
060600
060c00
060c04
061804
061804
063004
063006
063ffe
061ffc
040000
ENDCHAR
STARTCHAR 20195
ENCODING 20195
SWIDTH 520 0
DWIDTH 24 0
BBX 24 24 0 0
BITMAP
040800
070e00
060cc0
060c60
060c30
0c0c20
0c0c0c
0e0ffe
1cfc00
1c0c00
2c0c00
2c0600
4c0600
8c0600
0c0600
0c0300
0c0300
0c0184
0c0184
0c00c4
0c0074
0c003e
08000e
000000
ENDCHAR
STARTCHAR 20196
ENCODING 20196
SWIDTH 520 0
DWIDTH 24 0
BBX 24 24 0 0
BITMAP
002000
003800
003000
006800
006400
00c200
018300
030180
0630c0
0c1860
100c38
20081e
4000c8
0fffe0
0000c0
000180
000300
000600
01c800
007000
003c00
000c00
000700
000200
ENDCHAR
STARTCHAR 20197
ENCODING 20197
SWIDTH 520 0
DWIDTH 24 0
BBX 24 24 0 0
BITMAP
000000
000040
100070
1c8060
184060
186060
183060
183860
181860
181060
180060
180060
1800c0
1810c0
1820c0
1840c0
1981a0
1e0330
1c0618
380c0c
10300c
00c008
030000
000000
ENDCHAR
STARTCHAR 20200
ENCODING 20200
SWIDTH 520 0
DWIDTH 24 0
BBX 24 24 0 0
BITMAP
010000
01c000
018000
018018
037ffc
030000
060000
060000
0f0000
1e0000
160018
263ffc
460000
060000
060000
060000
060000
060000
060000
06000c
06fffe
060000
060000
040000
ENDCHAR
STARTCHAR 20202
ENCODING 20202
SWIDTH 520 0
DWIDTH 24 0
BBX 24 24 0 0
BITMAP
020000
038800
030c20
064638
064730
0c4330
0c2220
0c2060
1e2060
1c1040
2c10c0
2c18c0
4c0880
0c0d80
0c0500
0c0700
0c0700
0c0d80
0c08c0
0c1060
0c2038
0cc01e
0d0008
080000
ENDCHAR
STARTCHAR 20203
ENCODING 20203
SWIDTH 520 0
DWIDTH 24 0
BBX 24 24 0 0
BITMAP
020100
0381c0
030380
060300
060600
060600
0c0c00
0e1840
1c1070
1c20e0
2c40c0
2c8180
4d0180
0c0300
0c0600
0c0420
0c0c10
0c1818
0c300c
0c40fc
0cff06
0c6006
0c0004
080000
ENDCHAR
STARTCHAR 20204
ENCODING 20204
SWIDTH 520 0
DWIDTH 24 0
BBX 24 24 0 0
BITMAP
040000
074000
062018
0637fc
0e2018
0c8018
0ce018
1ec018
1cc018
3cc018
2cc018
6cc018
4cc018
8cc018
0cc018
0cc018
0cc018
0cc018
0cc018
0cc018
0cc018
0cc1f8
0c8070
080020
ENDCHAR
STARTCHAR 20208
ENCODING 20208
SWIDTH 520 0
DWIDTH 24 0
BBX 24 24 0 0
BITMAP
020000
038300
030f80
06590c
0661fe
06618c
0c618c
0c618c
1c618c
1c618c
3c618c
2c618c
4c618c
0c638c
0c6d8c
0c798c
0c718c
0ce1fc
0c4198
0c0190
0c0180
0c0180
080180
000100
ENDCHAR
STARTCHAR 20210
ENCODING 20210
SWIDTH 520 0
DWIDTH 24 0
BBX 24 24 0 0
BITMAP
020200
038380
030300
030300
060300
060300
0c430c
0c7ffe
1e630c
16630c
26630c
46630c
06630c
06630c
067ffc
06630c
064308
060300
060300
060300
060300
060300
040300
000200
ENDCHAR
STARTCHAR 20211
ENCODING 20211
SWIDTH 520 0
DWIDTH 24 0
BBX 24 24 0 0
BITMAP
040100
0741c0
067180
066180
0c6180
0c6180
0c6190
18619c
1e61b0
1c69c0
2c7d80
2c6180
4c6180
0c6180
0c6180
0c6180
0c6184
0c6184
0c6584
0c6984
0c7186
0ce1fe
0c40fc
080000
ENDCHAR
STARTCHAR 20213
ENCODING 20213
SWIDTH 520 0
DWIDTH 24 0
BBX 24 24 0 0
BITMAP
041000
071c00
061800
061800
063018
0c3ffc
0c6300
186300
1ec300
1c8300
2d0300
2c030c
4dfffe
0c0300
0c0300
0c0300
0c0300
0c0300
0c0300
0c0300
0c0300
0c0300
0c0300
080200
ENDCHAR
STARTCHAR 20214
ENCODING 20214
SWIDTH 520 0
DWIDTH 24 0
BBX 24 24 0 0
BITMAP
020100
0301c0
03a180
033980
063180
063180
063180
0f6198
0e7ffc
1e4180
168180
360180
26018c
46fffe
060180
060180
060180
060180
060180
060180
060180
060180
060180
040100
ENDCHAR
STARTCHAR 20215
ENCODING 20215
SWIDTH 520 0
DWIDTH 24 0
BBX 24 24 0 0
BITMAP
020400
038700
030600
030d00
061900
061880
0c30c0
0e6060
1cc038
1ca09e
2d38e8
2e30c0
4c30c0
0c30c0
0c30c0
0c30c0
0c30c0
0c30c0
0c60c0
0c60c0
0cc0c0
0c80c0
0d00c0
0a0080
ENDCHAR
STARTCHAR 20219
ENCODING 20219
SWIDTH 520 0
DWIDTH 24 0
BBX 24 24 0 0
BITMAP
020000
038010
030078
0607fc
067f00
0c0300
0c0300
0c0300
1e0300
1c0300
2c030c
2dfffe
4c0300
0c0300
0c0300
0c0300
0c0300
0c0300
0c0300
0c0300
0c0318
0cfffc
0c0000
080000
ENDCHAR
STARTCHAR 20221
ENCODING 20221
SWIDTH 520 0
DWIDTH 24 0
BBX 24 24 0 0
BITMAP
020080
0390c0
031c80
061880
063080
0c3040
0c3040
0e2060
1c6030
1cc01e
2c8068
2d7ff0
4d1860
0c1860
0c1860
0c1860
0c1860
0c3060
0c3060
0c6060
0c40e0
0c8fc0
0d0380
0a0100
ENDCHAR
STARTCHAR 20223
ENCODING 20223
SWIDTH 520 0
DWIDTH 24 0
BBX 24 24 0 0
BITMAP
020000
038600
030300
060380
060100
0c000c
0dfffe
0c0c00
1e0c00
1c0c30
2c0ff8
2c0c30
4c0c30
0c0c30
0c0c30
0c1830
0c1830
0c1830
0c3030
0c3030
0c6070
0cc7e0
0d01c0
0a0080
ENDCHAR
STARTCHAR 20225
ENCODING 20225
SWIDTH 520 0
DWIDTH 24 0
BBX 24 24 0 0
BITMAP
001000
001800
003800
003400
006200
00c200
018180
0300c0
061060
0c1c3c
18181f
601808
821800
0398c0
031fe0
031800
031800
031800
031800
031800
03180c
7ffffe
000000
000000
ENDCHAR
STARTCHAR 20233
ENCODING 20233
SWIDTH 520 0
DWIDTH 24 0
BBX 24 24 0 0
BITMAP
040000
070c00
060600
060300
0c020c
0dfffe
0c0000
1e0000
1c20c0
1c3fe0
2c30c0
2c30c0
4c30c0
0c30c0
0c30c0
0c30c0
0c30c4
0c60c4
0c60c4
0c40c6
0cc0fe
0c807c
090000
020000
ENDCHAR
STARTCHAR 20234
ENCODING 20234
SWIDTH 520 0
DWIDTH 24 0
BBX 24 24 0 0
BITMAP
040000
070000
060030
06fff8
0c0c30
0c0c30
0c0c30
1c0c36
1dfffe
1c0c30
2c0c30
2c0c30
4c0c30
0c0c30
0cfff0
0c0c30
0c1820
0c1800
0c1800
0c3000
0c2000
0c4000
0c8000
090000
ENDCHAR
STARTCHAR 20237
ENCODING 20237
SWIDTH 520 0
DWIDTH 24 0
BBX 24 24 0 0
BITMAP
040000
070000
060018
06fffc
0c0600
0c0600
0c0600
1e0600
1c0c00
3c0c30
2cfff8
4c0c30
0c0c30
0c0c30
0c0c30
0c1830
0c1830
0c1830
0c1830
0c1830
0c1834
0dfffe
0c0000
080000
ENDCHAR
STARTCHAR 20238
ENCODING 20238
SWIDTH 520 0
DWIDTH 24 0
BBX 24 24 0 0
BITMAP
040400
070700
060600
060600
0c060c
0dfffe
0c0600
180600
1e0600
1c0630
2cfff8
2c2030
4c2060
0c1060
0c10c0
0c0880
0c0d80
0c0700
0c0700
0c0d80
0c18f0
0c607e
0d8010
0a0000
ENDCHAR
STARTCHAR 20239
ENCODING 20239
SWIDTH 520 0
DWIDTH 24 0
BBX 24 24 0 0
BITMAP
020400
038700
030600
060660
060630
060618
0c0610
0c0604
1efffe
1c0600
2c0600
2c0600
4c0d00
0c0d00
0c0c80
0c0c80
0c18c0
0c1840
0c3060
0c2060
0c4030
0c801e
0d0008
0a0000
ENDCHAR
STARTCHAR 20240
ENCODING 20240
SWIDTH 520 0
DWIDTH 24 0
BBX 24 24 0 0
BITMAP
020800
038e80
030c40
030c60
060c30
060c20
0c0c0c
0e0c3e
1c0fc0
1dfc00
2c0c10
4c0c3c
0c0c30
0c0c60
0c0c60
0c06c0
0c0780
0c0304
0c0f84
0c1984
0c60e4
0d807c
0c001e
080006
ENDCHAR
STARTCHAR 20241
ENCODING 20241
SWIDTH 520 0
DWIDTH 24 0
BBX 24 24 0 0
BITMAP
040400
070700
060600
060600
060600
0c060c
0dfffe
1c0f00
1c0f00
3c1e80
2c1e80
4c36c0
0c3640
0c6660
0c4620
0cc630
0c8618
0d061e
0e0608
0c0600
0c0600
0c0600
0c0600
080400
ENDCHAR
STARTCHAR 20247
ENCODING 20247
SWIDTH 520 0
DWIDTH 24 0
BBX 24 24 0 0
BITMAP
001000
001c00
003800
003400
006600
00c300
018180
0300e0
060278
0e039e
138308
630300
030300
030300
028300
066380
067680
043440
0c2c60
181830
103018
20601e
418008
020000
ENDCHAR
STARTCHAR 20248
ENCODING 20248
SWIDTH 520 0
DWIDTH 24 0
BBX 24 24 0 0
BITMAP
020800
038e00
030c80
030cc0
060c60
060c30
0c0c20
0c0c0c
1efffe
1c0d80
2c0d80
4c0d80
0c1980
0c1980
0c1980
0c1980
0c1180
0c3184
0c2184
0c6184
0c4186
0c81fe
0d00fc
0a0000
ENDCHAR
STARTCHAR 20249
ENCODING 20249
SWIDTH 520 0
DWIDTH 24 0
BBX 24 24 0 0
BITMAP
040400
070700
060600
060600
060600
0c0610
0c461c
0c4630
1e6660
1c66c0
2ce700
2ccd00
4c8d00
0c0c80
0c0c80
0c0c80
0c18c0
0c1860
0c3060
0c3030
0c6038
0c801e
0d0008
0a0000
ENDCHAR
STARTCHAR 20250
ENCODING 20250
SWIDTH 520 0
DWIDTH 24 0
BBX 24 24 0 0
BITMAP
001000
001c00
003800
007400
006200
00c300
0181c0
0300f0
06037e
19ffb0
600000
000000
000018
3ffffc
002000
003800
007000
006000
00c180
0180e0
020070
0ffff0
078030
000020
ENDCHAR
STARTCHAR 20251
ENCODING 20251
SWIDTH 520 0
DWIDTH 24 0
BBX 24 24 0 0
BITMAP
040000
070000
06400c
067ffe
0c6000
0c6020
0c6038
1e6830
1c6430
2c6260
2c6160
4c60c0
0c60c0
0c61e0
0c6130
0c6330
0c6218
0c6418
0c6810
0c6000
0c600c
0cfffe
0c4000
080000
ENDCHAR
STARTCHAR 20254
ENCODING 20254
SWIDTH 520 0
DWIDTH 24 0
BBX 24 24 0 0
BITMAP
001000
001c00
003800
007400
006200
00c300
0191c0
031cf0
06183e
181818
241840
431870
0198c0
019980
011908
001a1c
3ffffe
001800
001800
001800
001800
001800
001800
001000
ENDCHAR
STARTCHAR 20255
ENCODING 20255
SWIDTH 520 0
DWIDTH 24 0
BBX 24 24 0 0
BITMAP
040400
070700
060600
060618
0dfffc
0c0600
0c0600
180630
1efff8
3c0600
2c0600
4c060c
0dfffe
0c060c
0c060c
0c060c
0c060c
0c061c
0c06f8
0c0670
0c0620
0c0600
0c0600
080400
ENDCHAR
STARTCHAR 20256
ENCODING 20256
SWIDTH 520 0
DWIDTH 24 0
BBX 24 24 0 0
BITMAP
040200
070380
060300
060300
0c0618
0cfffc
0c0c00
0e0c00
1c0c00
1c180c
2dfffe
2c1800
4c1000
0c3010
0c7ff8
0c2030
0c0060
0c00c0
0c3180
0c0d00
0c0780
0c01c0
0c00e0
080040
ENDCHAR
STARTCHAR 20258
ENCODING 20258
SWIDTH 520 0
DWIDTH 24 0
BBX 24 24 0 0
BITMAP
040000
070000
06000c
06fffe
0c0060
0c2060
0c3860
1e3060
1c3060
2c3066
2c7fff
4c23e0
0c0360
0c0660
0c0660
0c0c60
0c1860
0c3060
0c6060
0c8060
0d0060
0c07e0
0c01c0
080080
ENDCHAR
STARTCHAR 20260
ENCODING 20260
SWIDTH 520 0
DWIDTH 24 0
BBX 24 24 0 0
BITMAP
041000
071c00
061800
061800
0c300c
0c3ffe
0c6000
0c4400
1e8700
1c8600
2d0618
2c7ffc
4c0618
0c0618
0c0618
0c0618
0c0418
0c0c18
0c0c18
0c1818
0c3038
0c63f0
0c80e0
090040
ENDCHAR
STARTCHAR 20261
ENCODING 20261
SWIDTH 520 0
DWIDTH 24 0
BBX 24 24 0 0
BITMAP
021000
039c00
031810
031838
031830
061860
0618c0
061900
0f1a00
0e1c00
16180c
17fffe
261900
461900
061880
061880
0618c0
061860
061870
0618b8
061b1e
061e08
063800
041000
ENDCHAR
STARTCHAR 20262
ENCODING 20262
SWIDTH 520 0
DWIDTH 24 0
BBX 24 24 0 0
BITMAP
020400
038700
030600
030d00
060900
061880
0c18c0
083060
0e6030
1c401e
2c9008
2d1c20
4e1870
0c18c0
0c1b80
0c1c00
0c1800
0c1808
0c1808
0c1808
0c180c
0c1ffc
0c0ff8
080000
ENDCHAR
STARTCHAR 20263
ENCODING 20263
SWIDTH 520 0
DWIDTH 24 0
BBX 24 24 0 0
BITMAP
020200
038380
030300
060700
060c80
0c0cc0
0c1860
1c3038
1e601e
2ce0c8
2d3fe0
4c30c0
8c30c0
0c30c0
0c30c0
0c30c0
0c37c0
0c3188
0c3108
0c3008
0c300c
0c3ffc
0c1ff8
080000
ENDCHAR
STARTCHAR 20266
ENCODING 20266
SWIDTH 520 0
DWIDTH 24 0
BBX 24 24 0 0
BITMAP
020200
038380
030300
034300
066300
063300
062300
07020c
0efffe
0e060c
1e060c
16060c
26068c
4606cc
06046c
060c4c
060c0c
06080c
06180c
061818
063038
0621f0
064070
048020
ENDCHAR
STARTCHAR 20267
ENCODING 20267
SWIDTH 520 0
DWIDTH 24 0
BBX 24 24 0 0
BITMAP
020200
038300
030180
030180
060100
06200c
0e3ffe
0e601c
1f6018
164010
260020
260000
460000
060000
060000
060000
060000
060000
060008
06001c
06fffe
060000
060000
040000
ENDCHAR
STARTCHAR 20271
ENCODING 20271
SWIDTH 520 0
DWIDTH 24 0
BBX 24 24 0 0
BITMAP
040000
070200
060380
060600
060400
0c4808
0c7ffc
0c6018
1e6018
1c6018
2c6018
2c6018
4c6018
0c7ff8
0c6018
0c6018
0c6018
0c6018
0c6018
0c6018
0c7ff8
0c6018
0c4010
080000
ENDCHAR
STARTCHAR 20272
ENCODING 20272
SWIDTH 520 0
DWIDTH 24 0
BBX 24 24 0 0
BITMAP
040200
070380
060300
060300
0c0308
0c031c
0dfffe
0c0300
1e0300
1c0300
2c0300
2c4318
4c7ffc
8c6018
0c6018
0c6018
0c6018
0c6018
0c6018
0c6018
0c7ff8
0c6018
0c4010
080000
ENDCHAR
STARTCHAR 20274
ENCODING 20274
SWIDTH 520 0
DWIDTH 24 0
BBX 24 24 0 0
BITMAP
020000
038000
034018
037ffc
066018
066018
0c6018
0c6018
1e7ff8
1c6400
3c6710
2c661c
4c6630
0c6660
0c66c0
0c6700
0c6604
0c6604
0c4604
0cc604
0c8606
0d07fe
0c03fc
080000
ENDCHAR
STARTCHAR 20276
ENCODING 20276
SWIDTH 520 0
DWIDTH 24 0
BBX 24 24 0 0
BITMAP
040400
070700
060620
068630
0c4638
0c6660
0c3640
1c2680
1e0618
3dfffc
2c0600
4c0600
0c0600
0c060c
0dfffe
0c0600
0c0600
0c0600
0c0600
0c0600
0c0600
0c0600
0c0600
080400
ENDCHAR
STARTCHAR 20278
ENCODING 20278
SWIDTH 520 0
DWIDTH 24 0
BBX 24 24 0 0
BITMAP
020400
038700
030e00
060d00
061980
0c1080
0c3040
086060
1e4438
1c861e
2d0308
2c0200
4c0030
0cfff8
0c0070
0c0060
0c00c0
0c2180
0c1a00
0c0e00
0c0700
0c0380
0c0180
080080
ENDCHAR
STARTCHAR 20280
ENCODING 20280
SWIDTH 520 0
DWIDTH 24 0
BBX 24 24 0 0
BITMAP
020200
038380
030300
030300
060300
064318
0c7ffc
0c6318
0e6318
1c6318
1c7ff8
2c6318
4c6318
0c6318
0c6318
0c7ff8
0c6318
0c4310
0c0300
0c0300
0c0300
0c0300
080300
000200
ENDCHAR
STARTCHAR 20282
ENCODING 20282
SWIDTH 520 0
DWIDTH 24 0
BBX 24 24 0 0
BITMAP
020000
038000
030018
067ffc
060018
060018
0c0198
0dffd8
1c0018
1e0018
2c4318
2c7f98
4c6318
0c6318
0c6318
0c6318
0c6318
0c7f18
0c6318
0c4218
0c0018
0c01f8
0c0070
080020
ENDCHAR
STARTCHAR 20284
ENCODING 20284
SWIDTH 520 0
DWIDTH 24 0
BBX 24 24 0 0
BITMAP
040000
070020
060038
064030
067030
0c6430
0c6630
0c6330
186330
186230
2e6030
2c6030
4c6030
0c6030
0c6030
0c6260
0c6460
0c6870
0c70c8
0ce0cc
0c4186
0c0306
0c0c04
083000
ENDCHAR
STARTCHAR 20285
ENCODING 20285
SWIDTH 520 0
DWIDTH 24 0
BBX 24 24 0 0
BITMAP
088000
0ee000
0cc000
0cc000
0cc08c
18ccfe
1bfecc
18cccc
1ccccc
38cccc
78cccc
58cccc
98cccc
18cccc
18cccc
18cccc
18cccc
198ccc
198cfc
1b0ccc
1a7ccc
1c1888
180000
100000
ENDCHAR
STARTCHAR 20291
ENCODING 20291
SWIDTH 520 0
DWIDTH 24 0
BBX 24 24 0 0
BITMAP
040000
070000
060000
064018
067ffc
0c6318
0c6318
186318
1e6318
2c6318
2c6318
4c7ff8
0c6318
0c6318
0c6318
0c6318
0c6318
0c6318
0c6318
0c7ff8
0c6018
0c6018
0c4010
080000
ENDCHAR
STARTCHAR 20294
ENCODING 20294
SWIDTH 520 0
DWIDTH 24 0
BBX 24 24 0 0
BITMAP
040000
070000
062018
063ffc
0c3018
0c3018
183018
183018
183018
3e3ff8
2c3018
4c3018
8c3018
0c3018
0c3018
0c3ff8
0c3018
0c2000
0c0000
0c0000
0c000c
0cfffe
0c0000
080000
ENDCHAR
STARTCHAR 20301
ENCODING 20301
SWIDTH 520 0
DWIDTH 24 0
BBX 24 24 0 0
BITMAP
020400
038600
030300
030300
060200
060018
0efffc
0e0000
1e2040
362070
263060
461060
061040
061840
061c40
060cc0
060c80
060c80
060880
060100
06010c
07fffe
060000
040000
ENDCHAR
STARTCHAR 20302
ENCODING 20302
SWIDTH 520 0
DWIDTH 24 0
BBX 24 24 0 0
BITMAP
020010
038078
0343fc
067f80
066180
0c6180
0c6180
0e6180
1c6180
1c618c
2c7ffe
2c6180
4c6180
0c60c0
0c60c0
0c60c0
0c62c4
0c6464
0c7864
0c7234
0ce31c
0c418e
0c0186
080100
ENDCHAR
STARTCHAR 20303
ENCODING 20303
SWIDTH 520 0
DWIDTH 24 0
BBX 24 24 0 0
BITMAP
020000
038c00
030600
060700
060310
0c0238
0dfffc
0c0600
1e0600
1c0600
2c0600
2c0600
4c0630
0cfff8
0c0600
0c0600
0c0600
0c0600
0c0600
0c0608
0c061c
0dfffe
0c0000
080000
ENDCHAR
STARTCHAR 20304
ENCODING 20304
SWIDTH 520 0
DWIDTH 24 0
BBX 24 24 0 0
BITMAP
020400
038700
030600
070600
060608
060c1c
0dfffe
0c0600
181800
1e1800
2c1800
2c3018
4c3ffc
4c3180
0c6180
0c5180
0cc180
0c8180
0d0180
0e0180
0c018c
0dfffe
0c0000
080000
ENDCHAR
STARTCHAR 20305
ENCODING 20305
SWIDTH 520 0
DWIDTH 24 0
BBX 24 24 0 0
BITMAP
040400
070700
060600
060600
0c0608
0c0c1c
0dfffe
0c0c00
1e0c00
1c1800
2c1800
4c3018
0c3ffc
0c7818
0c5818
0c9818
0d1818
0e1818
0c1818
0c1818
0c1ff8
0c1818
0c1810
081000
ENDCHAR
STARTCHAR 20307
ENCODING 20307
SWIDTH 520 0
DWIDTH 24 0
BBX 24 24 0 0
BITMAP
040400
070700
060600
060600
0c0608
0c061c
0dfffe
1c0e80
1e1e80
3c1e80
2c36c0
2c3640
4c6640
0c6620
0cc630
0c8618
0d065e
0effe8
0c0600
0c0600
0c0600
0c0600
0c0600
080400
ENDCHAR
STARTCHAR 20309
ENCODING 20309
SWIDTH 520 0
DWIDTH 24 0
BBX 24 24 0 0
BITMAP
040000
070008
06001c
06fffe
0c0030
0c0030
0c0030
0c4330
1e7fb0
1c6330
2c6330
2c6330
4c6330
0c6330
0c6330
0c7f30
0c6230
0c4030
0c0030
0c0030
0c0030
0c03f0
0c00e0
080040
ENDCHAR
STARTCHAR 20311
ENCODING 20311
SWIDTH 520 0
DWIDTH 24 0
BBX 24 24 0 0
BITMAP
020600
038300
030180
030180
06410c
067ffe
0c400c
0cc808
1d8e10
3c0c00
2c0c20
4c0c78
0c0ce0
0c0d80
0c0e00
0c0c00
0c0c00
0c0c04
0c0c04
0c0c04
0c0c06
0c0ffe
0c07fc
080000
ENDCHAR
STARTCHAR 20312
ENCODING 20312
SWIDTH 520 0
DWIDTH 24 0
BBX 24 24 0 0
BITMAP
001000
001c00
003800
003400
006600
00c300
018180
0300e0
060178
0dffbe
300010
400000
000030
1ffff8
001800
011900
0398c0
071870
0e1838
18181c
301808
40f800
007000
002000
ENDCHAR
STARTCHAR 20313
ENCODING 20313
SWIDTH 520 0
DWIDTH 24 0
BBX 24 24 0 0
BITMAP
001000
001c00
003800
003400
006600
00c300
018180
0300e0
060338
0dff9e
101808
601800
001830
1ffff8
001800
011900
01d8c0
031870
061838
0c181c
101808
61f800
007000
002000
ENDCHAR
STARTCHAR 20314
ENCODING 20314
SWIDTH 520 0
DWIDTH 24 0
BBX 24 24 0 0
BITMAP
020200
038380
030300
032300
063b00
063300
063318
0c7ffc
0e6300
1c4300
1c8300
2c030c
2dfffe
4c0380
0c0380
0c0280
0c0640
0c0640
0c0c60
0c0c30
0c1818
0c301e
0c4008
088000
ENDCHAR
STARTCHAR 20315
ENCODING 20315
SWIDTH 520 0
DWIDTH 24 0
BBX 24 24 0 0
BITMAP
020880
038ee0
030cc0
060cc0
060ccc
0cfffe
0c0ccc
1e0ccc
1c8ccc
2cfffc
2cccc8
4cccc0
0ccccc
0dfffe
0c8ccc
0c0ccc
0c0ccc
0c18cc
0c10cc
0c30fc
0c60c8
0cc0c0
0900c0
020080
ENDCHAR
STARTCHAR 20316
ENCODING 20316
SWIDTH 520 0
DWIDTH 24 0
BBX 24 24 0 0
BITMAP
010800
01ce00
018c00
030c08
03181c
061ffe
063600
0f2600
0e6600
164600
168618
2607fc
460600
060600
060600
06060c
0607fe
060600
060600
060600
060600
060600
060600
040400
ENDCHAR
STARTCHAR 20317
ENCODING 20317
SWIDTH 520 0
DWIDTH 24 0
BBX 24 24 0 0
BITMAP
020800
038e00
030c00
031800
06180c
063ffe
0c300c
0c600c
1ec00c
3ca18c
2d3fcc
4e318c
8c318c
0c318c
0c318c
0c318c
0c318c
0c3f8c
0c318c
0c210c
0c001c
0c00f8
0c0030
080020
ENDCHAR
STARTCHAR 20318
ENCODING 20318
SWIDTH 520 0
DWIDTH 24 0
BBX 24 24 0 0
BITMAP
040000
070030
06fff8
060000
0c0000
0c0000
0c0018
0dfffc
1e0800
1c0e00
2c0c00
2c180c
4ffffe
0c30e0
0c30c0
0c60c0
0c6080
0c1980
0c0700
0c07c0
0c1c70
0c3038
0cc018
090000
ENDCHAR
STARTCHAR 20319
ENCODING 20319
SWIDTH 520 0
DWIDTH 24 0
BBX 24 24 0 0
BITMAP
020800
038e00
030c00
061818
061ffc
063030
0c6830
0c4860
1e84c0
1d0780
3c0300
2c0fc0
4c18f0
0c703e
0d8610
0c0300
0c0180
0c0180
0c0000
0c3e00
0c07c0
0c01e0
0c0070
080020
ENDCHAR
STARTCHAR 20320
ENCODING 20320
SWIDTH 520 0
DWIDTH 24 0
BBX 24 24 0 0
BITMAP
000800
020e00
038c00
031800
061800
0e300c
0c3ffe
0c620c
1e6390
3cc300
2c8300
4d2300
4c3b60
0c3330
0c6318
0c630c
0c430c
0cc306
0c8306
0d0304
0c0300
0c3f00
0c0e00
080400
ENDCHAR
STARTCHAR 20323
ENCODING 20323
SWIDTH 520 0
DWIDTH 24 0
BBX 24 24 0 0
BITMAP
040000
070000
06400c
067ffe
0c630c
0c630c
0c630c
0e630c
1c7ffc
1c630c
2c630c
2c630c
4c630c
0c7ffc
0c630c
0c630c
0c630c
0cc30c
0cc30c
0cc30c
0d837c
0d0318
0a0310
000200
ENDCHAR
STARTCHAR 20324
ENCODING 20324
SWIDTH 520 0
DWIDTH 24 0
BBX 24 24 0 0
BITMAP
040000
070008
06001c
06fffe
0c1800
0c1800
0c1800
1c1860
1e1ff0
3c3060
2c3060
4c3060
8c3660
0c3360
0c3360
0c6260
0c6060
0c6064
0c6364
0c6c64
0c7066
0ce07e
0c403c
080000
ENDCHAR
STARTCHAR 20325
ENCODING 20325
SWIDTH 520 0
DWIDTH 24 0
BBX 24 24 0 0
BITMAP
001000
001c00
003800
007400
00e600
00c300
018180
0300c0
060070
1c003e
300318
43ff80
000000
042040
021070
0210c0
0318c0
030c80
018d00
018900
010200
00020c
7ffffe
000000
ENDCHAR
STARTCHAR 20327
ENCODING 20327
SWIDTH 520 0
DWIDTH 24 0
BBX 24 24 0 0
BITMAP
020400
038700
030600
030600
060630
0607f8
0e0600
0f0600
160600
16060c
26fffe
460400
060700
060600
060780
060660
060638
06061c
060608
060600
060600
060600
060600
040400
ENDCHAR
STARTCHAR 20329
ENCODING 20329
SWIDTH 520 0
DWIDTH 24 0
BBX 24 24 0 0
BITMAP
080000
0e0000
0d0030
0dfff8
0d8030
098030
198130
1dbfb0
398430
398430
59a4b0
59bfb0
99a4b0
19a4b0
19a4b0
19a4b0
19a4b0
19a4b2
19a7b2
19251a
1b041a
1b040f
1a0403
140000
ENDCHAR
STARTCHAR 20332
ENCODING 20332
SWIDTH 520 0
DWIDTH 24 0
BBX 24 24 0 0
BITMAP
020800
038e00
030c08
060c1e
060c98
0cfff0
0c0c60
0e0c60
1c0cc0
3c0d8c
2ffffe
4c0600
0c0c10
0c1830
0c3878
0c78c0
0cdb08
0d1c08
0e1808
0c1808
0c180c
0c1ffc
0c0ff8
080000
ENDCHAR
ENDFONT
